<?xml version="1.0" encoding="UTF-8" standalone="no"?>
<!-- Created with Inkscape (http://www.inkscape.org/) -->

<svg
   xmlns:dc="http://purl.org/dc/elements/1.1/"
   xmlns:cc="http://creativecommons.org/ns#"
   xmlns:rdf="http://www.w3.org/1999/02/22-rdf-syntax-ns#"
   xmlns:svg="http://www.w3.org/2000/svg"
   xmlns="http://www.w3.org/2000/svg"
   xmlns:xlink="http://www.w3.org/1999/xlink"
   xmlns:sodipodi="http://sodipodi.sourceforge.net/DTD/sodipodi-0.dtd"
   xmlns:inkscape="http://www.inkscape.org/namespaces/inkscape"
   width="66.145836mm"
   height="66.052299mm"
   viewBox="0 0 66.145834 66.052301"
   version="1.1"
   id="svg8"
   inkscape:version="0.92.3 (2405546, 2018-03-11)"
   sodipodi:docname="icon.svg"
   inkscape:export-filename="/home/nrfaikar/Documents/Kuliah @UPI/Game Programming/Tugas Besar/Electroidesia 0.1.5 Alpha/icon.png"
   inkscape:export-xdpi="96"
   inkscape:export-ydpi="96">
  <defs
     id="defs2">
    <linearGradient
       inkscape:collect="always"
       id="linearGradient1041">
      <stop
         style="stop-color:#1a1a1a;stop-opacity:1;"
         offset="0"
         id="stop1037" />
      <stop
         style="stop-color:#000000;stop-opacity:1"
         offset="1"
         id="stop1039" />
    </linearGradient>
    <linearGradient
       inkscape:collect="always"
       id="linearGradient1033">
      <stop
         style="stop-color:#00e5ff;stop-opacity:1;"
         offset="0"
         id="stop1029" />
      <stop
         style="stop-color:#673ab7;stop-opacity:1"
         offset="1"
         id="stop1031" />
    </linearGradient>
    <linearGradient
       inkscape:collect="always"
       xlink:href="#linearGradient1033"
       id="linearGradient1035"
       x1="114.77407"
       y1="128.7339"
       x2="180.9199"
       y2="128.7339"
       gradientUnits="userSpaceOnUse"
       gradientTransform="translate(-19.113083,-276.58089)" />
    <linearGradient
       inkscape:collect="always"
       xlink:href="#linearGradient1041"
       id="linearGradient1043"
       x1="177.69524"
       y1="98.927803"
       x2="177.69524"
       y2="158.54001"
       gradientUnits="userSpaceOnUse" />
  </defs>
  <sodipodi:namedview
     id="base"
     pagecolor="#ffffff"
     bordercolor="#666666"
     borderopacity="1.0"
     inkscape:pageopacity="0.0"
     inkscape:pageshadow="2"
     inkscape:zoom="1.3026756"
     inkscape:cx="22.017541"
     inkscape:cy="127.99927"
     inkscape:document-units="mm"
     inkscape:current-layer="layer1"
     showgrid="false"
     inkscape:window-width="1366"
     inkscape:window-height="717"
     inkscape:window-x="0"
     inkscape:window-y="25"
     inkscape:window-maximized="1"
     inkscape:snap-bbox="true"
     inkscape:bbox-nodes="true"
     inkscape:snap-page="true"
     inkscape:snap-global="true" />
  <metadata
     id="metadata5">
    <rdf:RDF>
      <cc:Work
         rdf:about="">
        <dc:format>image/svg+xml</dc:format>
        <dc:type
           rdf:resource="http://purl.org/dc/dcmitype/StillImage" />
        <dc:title />
      </cc:Work>
    </rdf:RDF>
  </metadata>
  <g
     inkscape:label="Layer 1"
     inkscape:groupmode="layer"
     id="layer1"
     transform="translate(-114.77407,-95.707755)">
    <ellipse
       style="opacity:1;vector-effect:none;fill:url(#linearGradient1035);fill-opacity:1;fill-rule:nonzero;stroke:none;stroke-width:0;stroke-linecap:round;stroke-linejoin:miter;stroke-miterlimit:4;stroke-dasharray:none;stroke-dashoffset:0;stroke-opacity:1;paint-order:fill markers stroke"
       id="path845"
       cx="128.7339"
       cy="-147.84698"
       rx="33.072918"
       ry="33.02615"
       transform="rotate(90)" />
    <path
       style="opacity:1;vector-effect:none;fill:url(#linearGradient1043);fill-opacity:1;stroke:none;stroke-width:1.50812495;stroke-linecap:butt;stroke-linejoin:miter;stroke-miterlimit:4;stroke-dasharray:none;stroke-dashoffset:0;stroke-opacity:0.99570815;paint-order:fill markers stroke"
       d="m 147.84698,98.927806 c -16.53596,0 -29.84831,13.312634 -29.84831,29.848764 0,15.55419 11.7786,28.25469 26.93904,29.7084 l 0.66738,-3.32996 0.47758,-3.22408 0.21733,-2.60519 -1.0848,-3.26606 c 0,0 -3.22227,-4.88333 -3.19376,-4.94456 -0.0666,-9.5e-4 -1.05029,-0.40714 -1.05029,-0.40714 l -1.03863,-0.41602 -0.0686,1.16082 -7.36134,-0.24065 -0.19494,-5.39368 2.68541,-3.17791 0.84462,0.2635 -1.45185,-4.2935 1.88324,-5.00052 8.6215,-8.70171 6.23783,1.20699 8.2927,7.93405 -0.0877,0.80963 0.50043,-0.0415 3.55241,5.34751 -4.76733,6.15761 -3.11682,-0.61096 -1.4705,1.16129 1.40567,0.2635 1.0391,2.91441 -0.58484,2.41072 -1.81795,1.42479 -1.9061,-0.41648 -0.93229,-0.56945 -1.2569,2.19292 c 0,0 -0.86295,1.73152 -0.79797,1.84127 0.0665,0.10938 -0.51954,2.41025 -0.51954,2.41025 l 0.21406,2.74278 0.45473,3.00208 0.79051,3.45029 c 15.46589,-1.15419 27.57517,-13.99231 27.57517,-29.76344 0,-16.53613 -13.31234,-29.848764 -29.84831,-29.848764 z m -7.51338,38.548624 c 0,0 -0.18287,1.49092 -0.25977,1.53532 -0.0766,0.0465 1.0237,0.35538 1.0237,0.35538 l 0.66086,-0.55779 0.1525,-0.71403 c 0,0 -0.96449,-0.4947 -1.57729,-0.61888 z m 3.12848,1.14962 c 0.10794,0.13155 -0.0877,1.60062 -0.0877,1.60062 l 3.83504,4.93149 1.31799,-1.66543 0.65293,-1.18415 0.3246,-1.70741 -0.34746,0.26351 c 0,0 -5.80372,-2.37003 -5.69542,-2.23863 z"
       id="rect17"
       inkscape:connector-curvature="0" />
  </g>
</svg>
