<?xml version="1.0" encoding="UTF-8" standalone="no"?>
<!-- Created with Inkscape (http://www.inkscape.org/) -->

<svg
   xmlns:dc="http://purl.org/dc/elements/1.1/"
   xmlns:cc="http://creativecommons.org/ns#"
   xmlns:rdf="http://www.w3.org/1999/02/22-rdf-syntax-ns#"
   xmlns:svg="http://www.w3.org/2000/svg"
   xmlns="http://www.w3.org/2000/svg"
   xmlns:sodipodi="http://sodipodi.sourceforge.net/DTD/sodipodi-0.dtd"
   xmlns:inkscape="http://www.inkscape.org/namespaces/inkscape"
   width="1080"
   height="1080"
   viewBox="0 0 1080 1080"
   version="1.1"
   id="svg8"
   sodipodi:docname="title_screen.svg"
   inkscape:version="0.92.3 (2405546, 2018-03-11)">
  <defs
     id="defs2">
    <inkscape:path-effect
       effect="perspective-envelope"
       up_left_point="-611.95,698.15705"
       up_right_point="-96.304334,698.15705"
       down_left_point="-612.05382,799.59892"
       down_right_point="-96.304334,799.59892"
       id="path-effect4578"
       is_visible="true"
       deform_type="perspective"
       horizontal_mirror="false"
       vertical_mirror="false"
       overflow_perspective="false" />
    <inkscape:path-effect
       effect="skeletal"
       id="path-effect4576"
       is_visible="true"
       pattern="M 0,0 H 1"
       copytype="single_stretched"
       prop_scale="1000000"
       scale_y_rel="false"
       spacing="0"
       normal_offset="0"
       tang_offset="0"
       prop_units="false"
       vertical_pattern="false"
       fuse_tolerance="0" />
    <inkscape:path-effect
       effect="envelope"
       id="path-effect4574"
       is_visible="true"
       yy="true"
       xx="true"
       bendpath1="M -612.05382,698.15705 H -96.304334"
       bendpath2="M -96.304334,698.15705 V 799.59892"
       bendpath3="M -612.05382,799.59892 H -96.304334"
       bendpath4="M -612.05382,698.15705 V 799.59892" />
    <inkscape:path-effect
       effect="bounding_box"
       id="path-effect4572"
       is_visible="true"
       linkedpath=""
       visualbounds="false" />
    <inkscape:path-effect
       effect="envelope"
       id="path-effect4570"
       is_visible="true"
       yy="true"
       xx="true"
       bendpath1="M -612.05382,698.15705 H -96.304334"
       bendpath2="M -96.304334,698.15705 V 799.59892"
       bendpath3="M -612.05382,799.59892 H -96.304334"
       bendpath4="M -612.05382,698.15705 V 799.59892" />
    <inkscape:path-effect
       effect="bspline"
       id="path-effect4568"
       is_visible="true"
       weight="20"
       steps="2"
       helper_size="0"
       apply_no_weight="true"
       apply_with_weight="true"
       only_selected="false" />
  </defs>
  <sodipodi:namedview
     id="base"
     pagecolor="#ffffff"
     bordercolor="#666666"
     borderopacity="1.0"
     inkscape:pageopacity="0.0"
     inkscape:pageshadow="2"
     inkscape:zoom="0.70710678"
     inkscape:cx="-430.80433"
     inkscape:cy="417.40175"
     inkscape:document-units="px"
     inkscape:current-layer="layer1"
     showgrid="false"
     units="px"
     borderlayer="true"
     inkscape:window-width="1366"
     inkscape:window-height="717"
     inkscape:window-x="0"
     inkscape:window-y="25"
     inkscape:window-maximized="1"
     showborder="false"
     inkscape:snap-global="true"
     inkscape:snap-bbox="true"
     inkscape:bbox-nodes="true"
     showguides="true"
     inkscape:guide-bbox="true" />
  <metadata
     id="metadata5">
    <rdf:RDF>
      <cc:Work
         rdf:about="">
        <dc:format>image/svg+xml</dc:format>
        <dc:type
           rdf:resource="http://purl.org/dc/dcmitype/StillImage" />
        <dc:title />
      </cc:Work>
    </rdf:RDF>
  </metadata>
  <g
     inkscape:label="Layer 1"
     inkscape:groupmode="layer"
     id="layer1"
     transform="translate(0,-42.519653)">
    <path
       style="fill:#1a1a1a;fill-opacity:1;fill-rule:nonzero;stroke:none;stroke-width:0.49076104px;stroke-linecap:butt;stroke-linejoin:miter;stroke-opacity:1"
       d="m -460.25274,684.18302 -17.3665,22.70966 -19.03593,-4.34102 -6.34531,21.04022 36.40243,22.70966 37.07212,-38.40671 z m 341.94364,15.55116 -37.68202,13.98694 35.06783,65.22301 57.854029,-23.90553 -7.730134,-28.34224 -26.84739,10.32041 z m -184.70524,13.45598 -19.73911,19.92327 -4.31233,11.44931 3.32454,9.83008 -1.93493,-0.60272 -6.14679,7.27571 0.44486,12.35099 16.85466,0.55011 0.15786,-2.65723 2.37739,0.95191 c 0,0 2.69442,1.11267 2.39653,0.91125 -0.29756,-0.20085 7.32115,11.34168 7.32115,11.34168 l 2.48263,7.479 -0.49748,5.96502 -1.09304,7.38094 -1.24131,6.19463 -9.28955,6.03678 -21.62142,44.48415 -0.96387,0.68882 -0.27505,-0.96388 13.63297,-32.22642 8.95232,-21.07132 -1.92775,-2.06648 -2.7553,1.37765 -10.4663,1.23893 -8.95232,4.13294 2.7553,2.34153 2.75529,1.51398 -6.61079,27.68211 -12.25772,26.44318 -0.13633,2.2028 1.6527,1.1002 3.58045,-1.37525 4.81938,-1.37765 5.78324,-0.27505 3.03035,-2.20519 0.96388,-2.20281 15.01301,-34.01545 14.46052,-17.07949 2.61657,1.93014 -2.20519,4.13055 1.92775,3.71918 4.408,0.96387 5.09682,-8.12478 -2.37262,-5.28816 -1.84643,-8.0578 -1.04041,-6.87389 -0.49031,-6.28073 c 0,0 1.34341,-5.26731 1.19109,-5.51776 -0.14879,-0.25127 1.8273,-4.21666 1.8273,-4.21666 l 2.87727,-5.02028 2.13345,1.3035 4.36493,0.95431 4.16404,-3.26234 1.33699,-5.52017 -2.3774,-6.67298 -3.2193,-0.60271 3.36758,-2.65963 7.13699,1.39917 10.91355,-14.09936 -8.13195,-12.24337 -1.14804,0.0956 0.20091,-1.85362 -18.9881,-18.16771 z m -10.43281,51.67135 c 1.40309,0.28435 3.61153,1.41831 3.61153,1.41831 l -0.34919,1.63596 -1.51398,1.27719 c 0,0 -2.51923,-0.70897 -2.34391,-0.81559 0.17604,-0.10164 0.59555,-3.51587 0.59555,-3.51587 z m 7.16328,2.63332 c -0.24797,-0.30087 13.03982,5.12552 13.03982,5.12552 l 0.79645,-0.60272 -0.74383,3.90812 -1.49484,2.71224 -3.0184,3.81245 -8.78011,-11.29145 c 0,0 0.44807,-3.36297 0.20091,-3.66416 z m 119.83622,4.07793 -10.88008,3.85789 -4.81936,9.08865 1.6527,3.99422 4.13054,1.6527 5.64692,-4.68305 -1.79142,-5.78324 4.408,-1.79142 15.83816,25.34059 -0.55249,5.37185 -4.26928,-1.65268 -26.16573,12.39404 -10.4663,29.05976 3.99422,15.97449 12.25532,8.40222 26.02941,-19.2823 12.53278,-45.72307 -7.16091,-25.4769 z m -266.68725,1.51637 -35.12044,18.72979 -21.20764,37.18453 -7.7134,27.26833 -0.27505,4.68305 9.9162,12.25533 9.77747,-5.23315 4.54671,-7.98845 -2.34152,-2.89162 -4.408,4.68304 -6.19701,4.68305 -1.6527,-2.20519 7.71099,-25.61564 19.83239,-39.66238 27.40705,-20.65754 3.58046,1.37765 -1.6527,3.58045 1.78903,4.26926 4.82176,1.78904 4.54433,-1.6527 2.06647,-4.13055 z m -67.60996,2.2028 -34.56796,11.43017 -20.10744,29.60986 0.27505,2.89163 -36.90948,33.7428 3.3054,10.05252 8.40222,3.99422 6.19702,-2.2028 2.7553,-6.88585 -4.26928,-6.33573 -2.89401,2.20279 -1.51398,2.06647 -1.23893,0.13872 -2.89163,-3.58044 31.3989,-26.30446 18.59345,9.22497 12.94415,-1.92775 0.55249,0.13872 -0.41377,0.41377 -18.72979,7.29724 -20.38249,11.98265 -9.50241,21.20765 9.36369,16.66571 22.44896,4.68305 23.82422,-10.05492 11.29385,-23.54916 -3.71917,-12.80782 -12.25534,-6.19702 -17.35453,6.33335 -7.98605,17.21581 2.47785,9.08864 8.2635,4.54433 5.92197,-2.06407 3.03035,-6.47447 -3.99422,-5.09443 -0.96388,0.13872 -2.89163,3.16668 -3.16906,-1.6527 -1.37526,-3.71917 4.4056,-9.08865 9.22737,-3.85549 6.74952,4.13054 1.92775,7.98844 -7.57468,16.93837 -17.49086,7.16091 -11.15511,-4.54433 -3.44412,-11.15512 9.91619,-19.96871 20.79625,-11.43018 9.36371,-2.48024 4.68305,-5.92198 -5.78326,-5.36947 -6.33574,1.23893 -4.54432,1.23893 -10.60502,-4.81938 7.98845,-0.13872 34.15417,-8.2635 12.94655,-24.37671 -5.51059,-12.66909 z m 310.88676,3.99423 -6.33575,3.99422 -2.75289,8.81359 1.6527,4.81938 4.13054,2.06647 6.74952,-4.26927 2.2028,-8.81361 -1.6527,-4.82176 z m 168.92209,0 -6.335746,3.99422 -2.752896,8.81359 1.6527,4.81938 4.130543,2.06647 6.747131,-4.26927 2.205191,-8.81361 -1.6527,-4.82176 z m -480.63641,3.03035 10.74374,8.81358 -13.22158,17.6272 -26.44318,7.02457 -8.67489,0.96387 v -0.41377 l 12.11901,-22.31024 20.93259,-11.29384 z m 179.73042,5.36947 -2.33914,0.68882 -2.06647,0.82754 -4.54433,0.68883 -3.58045,2.7529 -3.58284,5.5106 -4.81936,10.60262 h -11.70523 l -2.7553,6.88585 h 11.29385 l -14.3242,31.40128 -3.16668,12.94414 2.7553,9.50482 7.84973,3.8555 11.84395,-4.13294 5.36947,-8.8136 -2.34153,-3.3054 -5.23314,3.99422 -5.36948,3.99422 -2.48024,-3.99422 2.89163,-10.32757 16.39065,-35.12045 h 13.08288 l 2.75289,-6.88585 h -12.66909 l 3.99422,-8.39982 4.26928,-9.22738 0.13632,-2.34152 z m 350.0540554,9.74877 -2.0760477,9.25847 0.3779041,-9.17715 -1.8870957,6.38358 -0.7533957,-6.30465 -1.1312998,7.74208 -0.9447357,-7.26374 -1.88470779,7.90235 -1.13128751,-7.90235 -0.1889521,6.86432 -0.7557959,-7.18241 -0.9423477,7.98127 -0.00735,0.34441 -0.1267558,-3.24322 -1.088256,8.06258 -0.047881,0.0216 -0.1841639,-9.12214 -2.0760355,9.25847 0.3778918,-9.17714 -1.8870834,6.38358 -0.753408,-6.30466 -1.1313001,7.7397 -0.944736,-7.26134 -1.884695,7.89994 -1.1337,-7.89994 -0.186552,6.86432 -0.755796,-7.18243 -0.942348,7.97888 -0.24156,3.18581 -0.121967,-3.12124 -0.875388,6.48643 -0.291792,0.12915 -0.153072,-7.6536 -1.925352,8.58878 -0.12438,0.0574 0.351588,-8.56724 -1.887083,6.38597 -0.753408,-6.30466 -1.131288,7.73971 -0.944748,-7.26135 -1.884695,7.89995 -1.133688,-7.89995 -0.186564,6.86192 -0.755784,-7.18242 -0.942347,7.98127 -0.09086,4.55151 -1.226976,0.55249 -13.357917,32.6402 3.719171,12.25772 11.98027,5.37187 10.605021,-5.78564 7.8497149,-13.08288 8.6772701,-23.82661 1.51397971,-1.51397 0.68882389,1.6527 -8.8136022,23.96293 -2.2027913,8.2635 3.716771,7.02457 7.9884463,2.2028 7.9884456,-3.8555 3.580452,-7.57468 -2.480244,-4.13294 -2.616575,4.26928 -4.269275,4.13294 -2.6165755,-3.03035 1.3776477,-5.92197 12.1189938,-29.8849 4.269273,-6.74952 -5.508194,-7.98606 -4.1544702,-1.15282 -0.3252841,-11.33689 -1.1312998,8.38069 z m -400.9504854,0.48074 -1.6551,9.48329 -0.34919,0.16981 0.30615,-9.55026 -1.8871,8.20132 -0.7534,-8.09846 -1.1313,9.94489 -0.94474,-9.33022 -1.8847,10.15058 -1.1313,-10.15058 -0.18894,8.81599 -0.75579,-9.22737 -0.94235,10.25343 -0.0956,3.55654 -0.0168,0.007 -0.12675,-7.72055 -1.58096,8.5505 -0.41138,0.19851 0.29419,-8.65335 -1.88709,7.7421 -0.7534,-7.64404 -1.1313,9.38523 -0.94475,-8.80642 -1.88469,9.58135 -1.1313,-9.58135 -0.18894,8.32328 -0.7558,-8.70836 -0.94235,9.67463 -0.13872,3.28148 -5.84782,2.83662 -12.53278,27.54339 7.16091,19.14356 17.2158,5.51059 13.2216,-6.47447 4.95809,-8.95232 -1.93014,-2.2028 -3.44172,3.03035 -5.23315,5.64692 -9.09104,2.34152 -7.16091,-5.09682 -2.34152,-9.64114 9.50243,-26.02701 18.3184,-12.94655 3.16668,1.51398 -2.61658,4.26928 1.6527,3.58045 3.99423,1.37765 4.68304,-2.34153 1.6527,-5.64453 -4.54671,-6.47447 -6.19942,-1.29871 -0.25113,-8.21088 -0.83951,7.98127 -0.33724,-0.0693 z m 141.0008,3.03274 -2.07604,9.4809 0.3779,-9.39958 -1.88709,6.53904 -0.75341,-6.45533 -1.13129,7.92625 -0.94475,-7.43594 -1.78663,7.66555 -0.16742,-0.0718 -1.06433,-7.5938 -0.18895,7.02696 -0.7534,-7.35463 -0.77493,6.7232 -0.15785,-0.067 -4.463,2.52091 -0.22722,-5.76173 -0.86103,6.37402 -0.30614,0.1746 -0.15307,-7.58424 -1.96842,8.7825 -0.0909,0.0502 0.36116,-8.7538 -1.8871,6.38358 -0.7534,-6.30466 -1.1313,7.7421 -0.94474,-7.26135 -1.8847,7.89994 -1.1313,-7.89994 -0.18894,6.86193 -0.75579,-7.18243 -0.94235,7.98127 -0.11474,5.82391 -8.17261,4.61369 -12.94655,31.12383 17.62959,18.86852 26.30446,-14.04915 11.5665,-31.81265 -3.99661,-12.66193 -0.31332,-11.85111 -1.1313,8.58159 z m 39.95178,5.46753 -2.7553,1.37765 -10.46629,1.23893 -8.95232,4.13294 2.7553,2.34153 2.75529,1.51398 -7.29962,18.04096 -7.29961,24.92681 2.7553,9.50482 7.84971,3.8555 10.74135,-3.58045 4.81937,-9.22737 -2.34151,-4.13295 -4.26928,4.68305 -6.60841,4.54433 -2.48024,-3.99423 11.29384,-28.23221 11.43017,-24.92681 z m 168.922089,0 -2.755296,1.37765 -10.466289,1.23893 -8.952322,4.13294 2.755295,2.34153 2.752908,1.51398 -7.297235,18.04096 -7.29961,24.92681 2.755295,9.50482 7.849714,3.8555 10.741354,-3.58045 4.819367,-9.22737 -2.341524,-4.13295 -4.269263,4.68305 -6.60841,4.54433 -2.480244,-3.99423 11.293846,-28.23221 11.430165,-24.92681 z m -39.614547,1.24133 -15.838161,4.95809 -6.747131,12.94416 6.472079,15.013 6.610799,14.73556 -3.719171,8.39983 -8.538547,3.58046 -3.44172,-1.10021 -1.51638,-2.61658 4.9581,-5.78564 -1.92776,-4.68305 -4.68303,-2.06407 -5.5082,2.61658 -1.24372,3.34365 -2.22911,-1.96601 -6.88585,5.09442 -11.56888,5.09682 -7.71101,-11.98267 9.22738,-11.29383 17.21342,-7.43595 9.22737,-16.52699 -2.47786,-6.88585 -6.74951,-2.89163 -26.30447,12.39406 -13.22158,28.64598 5.78564,16.11321 14.87429,6.6108 14.04674,-5.64692 6.58927,-8.83034 -0.77493,2.08321 4.9581,9.77748 11.0164,3.71917 16.251941,-6.0607 7.16089,-14.87429 -3.580451,-12.53276 -7.024559,-9.08866 -3.441731,-9.22736 3.166679,-5.23315 6.060695,-1.92775 4.544315,1.10259 -1.79142,3.85551 1.79142,3.71917 4.130555,1.51398 4.132943,-2.20281 1.6527,-5.37187 -4.132943,-6.74952 z m -356.090832,0.55009 -26.30445,12.39406 -13.2216,28.64598 5.78325,16.11321 14.87429,6.6108 14.04674,-5.64692 6.88585,-9.22737 -2.33914,-2.06408 -6.88584,5.09442 -11.56889,5.09682 -7.7134,-11.98267 9.22738,-11.29383 17.21581,-7.43595 9.22737,-16.52699 -2.48024,-6.88585 z m 441.9761684,5.92198 7.9884466,2.75529 -3.5804515,4.54433 0.9638758,2.61658 H -3.4788221 l -11.5688849,29.19607 -5.369483,7.98845 -6.060695,3.58045 -2.477843,-1.79142 -1.102608,-3.58045 8.263498,-29.8849 z m -444.3176984,0.5501 1.37765,2.34153 -4.13294,9.09104 -9.3637,5.78324 -10.05492,6.74713 6.74952,-15.01062 z m 319.01394,0 1.37765,2.34153 -4.13056,9.09104 -9.36608,5.78324 -10.05253,6.74713 6.74713,-15.01062 z m -140.32393,0.13872 3.58284,5.37187 -7.43835,30.43502 -18.72979,15.01062 -5.37187,-6.33336 9.91619,-28.64598 z m 84.58661,0.13633 3.85549,3.58284 0.13872,5.78326 -7.16089,22.86034 -15.83817,19.14356 -4.95809,-13.08288 7.02456,-25.75434 z m -128.98706,84.17523 -20.54991,5.57995 27.59122,29.47353 34.68515,-17.62958 -8.23479,-13.20724 -24.33366,13.56601 z"
       id="path898"
       inkscape:connector-curvature="0"
       inkscape:label="title"
       inkscape:export-xdpi="96"
       inkscape:export-ydpi="96" />
    <rect
       style="opacity:1;vector-effect:none;fill:#fdefba;fill-opacity:1;stroke:none;stroke-width:9.05172443;stroke-linecap:round;stroke-linejoin:miter;stroke-miterlimit:4;stroke-dasharray:none;stroke-dashoffset:0;stroke-opacity:1;paint-order:fill markers stroke"
       id="rect814"
       width="150"
       height="150"
       x="-599.18164"
       y="464.19583"
       inkscape:label="background_color"
       inkscape:export-xdpi="96"
       inkscape:export-ydpi="96" />
  </g>
</svg>
