<?xml version="1.0" encoding="UTF-8" standalone="no"?>
<!-- Created with Inkscape (http://www.inkscape.org/) -->

<svg
   xmlns:dc="http://purl.org/dc/elements/1.1/"
   xmlns:cc="http://creativecommons.org/ns#"
   xmlns:rdf="http://www.w3.org/1999/02/22-rdf-syntax-ns#"
   xmlns:svg="http://www.w3.org/2000/svg"
   xmlns="http://www.w3.org/2000/svg"
   xmlns:sodipodi="http://sodipodi.sourceforge.net/DTD/sodipodi-0.dtd"
   xmlns:inkscape="http://www.inkscape.org/namespaces/inkscape"
   width="1080"
   height="1080"
   viewBox="0 0 1080 1080"
   version="1.1"
   id="svg8"
   sodipodi:docname="title_screen.svg"
   inkscape:version="0.92.3 (2405546, 2018-03-11)">
  <defs
     id="defs2">
    <inkscape:path-effect
       effect="perspective-envelope"
       up_left_point="-611.95,698.15705"
       up_right_point="-96.304334,698.15705"
       down_left_point="-612.05382,799.59892"
       down_right_point="-96.304334,799.59892"
       id="path-effect4578"
       is_visible="true"
       deform_type="perspective"
       horizontal_mirror="false"
       vertical_mirror="false"
       overflow_perspective="false" />
    <inkscape:path-effect
       effect="skeletal"
       id="path-effect4576"
       is_visible="true"
       pattern="M 0,0 H 1"
       copytype="single_stretched"
       prop_scale="1000000"
       scale_y_rel="false"
       spacing="0"
       normal_offset="0"
       tang_offset="0"
       prop_units="false"
       vertical_pattern="false"
       fuse_tolerance="0" />
    <inkscape:path-effect
       effect="envelope"
       id="path-effect4574"
       is_visible="true"
       yy="true"
       xx="true"
       bendpath1="M -612.05382,698.15705 H -96.304334"
       bendpath2="M -96.304334,698.15705 V 799.59892"
       bendpath3="M -612.05382,799.59892 H -96.304334"
       bendpath4="M -612.05382,698.15705 V 799.59892" />
    <inkscape:path-effect
       effect="bounding_box"
       id="path-effect4572"
       is_visible="true"
       linkedpath=""
       visualbounds="false" />
    <inkscape:path-effect
       effect="envelope"
       id="path-effect4570"
       is_visible="true"
       yy="true"
       xx="true"
       bendpath1="M -612.05382,698.15705 H -96.304334"
       bendpath2="M -96.304334,698.15705 V 799.59892"
       bendpath3="M -612.05382,799.59892 H -96.304334"
       bendpath4="M -612.05382,698.15705 V 799.59892" />
    <inkscape:path-effect
       effect="bspline"
       id="path-effect4568"
       is_visible="true"
       weight="20"
       steps="2"
       helper_size="0"
       apply_no_weight="true"
       apply_with_weight="true"
       only_selected="false" />
  </defs>
  <sodipodi:namedview
     id="base"
     pagecolor="#ffffff"
     bordercolor="#666666"
     borderopacity="1.0"
     inkscape:pageopacity="0.0"
     inkscape:pageshadow="2"
     inkscape:zoom="1"
     inkscape:cx="-355.07836"
     inkscape:cy="648.6084"
     inkscape:document-units="px"
     inkscape:current-layer="layer1"
     showgrid="false"
     units="px"
     borderlayer="true"
     inkscape:window-width="1366"
     inkscape:window-height="717"
     inkscape:window-x="0"
     inkscape:window-y="25"
     inkscape:window-maximized="1"
     showborder="false"
     inkscape:snap-global="true"
     inkscape:snap-bbox="true"
     inkscape:bbox-nodes="true"
     showguides="true"
     inkscape:guide-bbox="true" />
  <metadata
     id="metadata5">
    <rdf:RDF>
      <cc:Work
         rdf:about="">
        <dc:format>image/svg+xml</dc:format>
        <dc:type
           rdf:resource="http://purl.org/dc/dcmitype/StillImage" />
        <dc:title />
      </cc:Work>
    </rdf:RDF>
  </metadata>
  <g
     inkscape:label="Layer 1"
     inkscape:groupmode="layer"
     id="layer1"
     transform="translate(0,-42.519653)">
    <path
       style="color:#000000;font-style:normal;font-variant:normal;font-weight:normal;font-stretch:normal;font-size:medium;line-height:normal;font-family:sans-serif;font-variant-ligatures:normal;font-variant-position:normal;font-variant-caps:normal;font-variant-numeric:normal;font-variant-alternates:normal;font-feature-settings:normal;text-indent:0;text-align:start;text-decoration:none;text-decoration-line:none;text-decoration-style:solid;text-decoration-color:#000000;letter-spacing:normal;word-spacing:normal;text-transform:none;writing-mode:lr-tb;direction:ltr;text-orientation:mixed;dominant-baseline:auto;baseline-shift:baseline;text-anchor:start;white-space:normal;shape-padding:0;clip-rule:nonzero;display:inline;overflow:visible;visibility:visible;opacity:1;isolation:auto;mix-blend-mode:normal;color-interpolation:sRGB;color-interpolation-filters:linearRGB;solid-color:#000000;solid-opacity:1;vector-effect:none;fill:#1a1a1a;fill-opacity:1;fill-rule:nonzero;stroke:none;stroke-width:5;stroke-linecap:round;stroke-linejoin:miter;stroke-miterlimit:4;stroke-dasharray:none;stroke-dashoffset:0;stroke-opacity:1;paint-order:fill markers stroke;color-rendering:auto;image-rendering:auto;shape-rendering:auto;text-rendering:auto;enable-background:accumulate"
       d="m -472.54492,262.71692 v 72.58984 h 272.58984 v -72.58984 z m 86.47851,21.56835 c 1.56421,10e-6 2.84532,0.46462 3.84375,1.39649 0.99844,0.89859 1.49805,2.04751 1.49805,3.44531 0,1.39781 -0.34993,2.69642 -1.04883,3.89453 -0.6989,1.19812 -1.54649,1.79688 -2.54492,1.79688 -0.96515,0 -1.44727,-0.26633 -1.44727,-0.79883 0,-0.59906 0.31493,-1.28141 0.94727,-2.04688 0.66562,-0.76546 0.99805,-1.53141 0.99805,-2.29687 0,-2.36295 -1.26361,-3.54492 -3.79297,-3.54492 -2.49608,0 -4.75892,1.68158 -6.78906,5.04297 -2.03015,3.36138 -3.04493,6.82174 -3.04493,10.38281 0,2.4628 0.6979,4.65954 2.09571,6.58984 1.3978,1.89702 3.36126,2.84571 5.89062,2.84571 2.9953,0 5.87439,-1.99651 8.63672,-5.99024 0.0336,-0.048 0.0853,-0.13888 0.12305,-0.19726 0.0815,-2.06291 0.71915,-4.01243 1.92969,-5.84375 1.33124,-1.96359 3.02837,-2.94532 5.09179,-2.94532 0.93187,-0.66562 2.03024,-0.99804 3.29492,-0.99804 1.29796,0 2.49548,0.68235 3.59375,2.04687 1.09828,1.36453 1.66399,3.14525 1.69727,5.3418 1.33124,-0.43265 2.24688,-0.79813 2.74609,-1.09766 l 0.0645,-0.041 v -0.95899 c 0,-1.59749 0.16524,-2.56172 0.49805,-2.89453 0.33281,-0.33281 0.91602,-0.81492 1.74805,-1.44726 0.8653,-0.63234 1.48156,-0.94922 1.84765,-0.94922 0.39938,0 0.64821,0.0661 0.74805,0.19922 0.0998,0.13312 0.15039,0.3839 0.15039,0.75 0,1.76389 -0.33242,3.42797 -0.99805,4.99218 -0.1664,1.89702 -0.25,3.21118 -0.25,3.94336 0.13313,-0.19968 0.83103,-1.3311 2.09571,-3.39453 1.26468,-2.06342 2.33,-3.57782 3.19531,-4.54297 0.89859,-0.96515 1.69758,-1.44726 2.39648,-1.44726 0.69891,0 1.31516,0.23133 1.84766,0.69726 0.56578,0.46594 0.84766,1.04915 0.84766,1.74805 0,1.46437 -0.16524,3.62806 -0.49805,6.49023 -0.29953,2.82889 -0.44922,4.62516 -0.44922,5.39063 0,0.73218 0.0991,1.09961 0.29883,1.09961 0.56578,-0.0333 1.34727,-0.73313 2.3457,-2.09766 0.99843,-1.3978 1.98016,-3.17853 2.94531,-5.34179 0.25845,-0.55997 0.41617,-0.84475 0.6211,-1.25977 0.10414,-1.30282 0.22568,-2.68163 0.38281,-4.23047 -1.66405,-0.33281 -2.54664,-1.01516 -2.64648,-2.04687 0,-0.5325 0.34992,-0.79883 1.04882,-0.79883 0.69891,0 1.31516,0.13219 1.84766,0.39844 0.29953,-2.39624 0.6475,-4.82627 1.04688,-7.28907 0.0998,-0.63234 0.41672,-1.23109 0.94921,-1.79687 0.5325,-0.56578 1.04766,-0.84766 1.54688,-0.84766 0.43265,0 0.65039,0.68235 0.65039,2.04688 0,0.63234 -0.23328,3.54448 -0.69922,8.73632 0.89859,-0.1664 1.88032,-0.49883 2.94531,-0.99804 1.09828,-0.49922 1.74758,-0.75 1.94727,-0.75 0.59906,0 0.89844,0.18273 0.89844,0.54883 0.0333,0.33281 -0.58298,0.79937 -1.84766,1.39843 -1.26468,0.56578 -2.62938,0.9993 -4.09375,1.29883 -0.39937,4.85904 -0.59961,8.53517 -0.59961,11.03125 0,1.33124 0.20024,1.99805 0.59961,1.99805 0.59906,-0.0333 1.39805,-0.73313 2.39649,-2.09766 0.93385,-1.27627 1.85306,-2.91558 2.75781,-4.89062 0.0188,-0.32899 0.0259,-0.55043 0.0469,-0.90039 0.23297,-3.36139 0.43125,-5.17516 0.59765,-5.44141 0.16641,-0.26625 0.68352,-0.76586 1.54883,-1.49805 0.86531,-0.73218 1.53016,-1.09765 1.9961,-1.09765 0.49921,0 0.75,0.6318 0.75,1.89648 0,0.33281 -0.1011,0.98212 -0.30079,1.94727 -0.1664,0.96515 -0.36468,1.665 -0.59765,2.09765 -0.43266,1.09828 -0.65039,3.97737 -0.65039,8.63672 0,0.89859 0.10109,1.34766 0.30078,1.34766 0.56578,-0.0333 1.34727,-0.73313 2.3457,-2.09766 0.93552,-1.30973 1.85542,-2.9694 2.76172,-4.95117 0.005,-0.19649 0.0234,-0.4699 0.0234,-0.64062 v -2.94532 c 0,-1.59749 0.16524,-2.56172 0.49805,-2.89453 0.33281,-0.33281 0.91602,-0.81492 1.74804,-1.44726 0.86531,-0.63234 1.48157,-0.94922 1.84766,-0.94922 0.39937,0 0.6482,0.0661 0.74805,0.19922 0.0998,0.13312 0.15039,0.3839 0.15039,0.75 0,1.76389 -0.33438,3.42797 -1,4.99218 -0.16641,1.89702 -0.24805,3.21118 -0.24805,3.94336 0.13313,-0.19968 0.83102,-1.3311 2.0957,-3.39453 1.26468,-2.06342 2.33001,-3.57782 3.19532,-4.54297 0.89859,-0.96515 1.69758,-1.44726 2.39648,-1.44726 0.6989,0 1.31516,0.23133 1.84766,0.69726 0.56578,0.46594 0.84765,1.04915 0.84765,1.74805 0,1.46437 -0.16523,3.62806 -0.49804,6.49023 -0.29953,2.82889 -0.45118,4.62516 -0.45118,5.39063 0,0.73218 0.1011,1.09961 0.30079,1.09961 0.56577,-0.0333 1.34727,-0.73313 2.3457,-2.09766 0.89948,-1.25926 1.78574,-2.84604 2.6582,-4.72656 l 0.043,-0.81445 c 0,-3.56108 0.16524,-5.50899 0.49805,-5.8418 0.33281,-0.33281 0.91602,-0.81493 1.74805,-1.44727 0.8653,-0.66562 1.48156,-0.99804 1.84765,-0.99804 0.39937,0 0.64821,0.0661 0.74805,0.19922 0.0998,0.13312 0.15039,0.39945 0.15039,0.79882 0,1.43109 -0.31688,2.87939 -0.94922,4.34375 -0.49922,3.06186 -0.74805,5.57353 -0.74805,7.53711 0,1.96359 0.31493,2.94727 0.94727,2.94727 0.76546,0 1.66555,-0.66681 2.69727,-1.99805 1.03171,-1.33124 2.06203,-3.31025 3.09375,-5.93945 0.29952,-3.32811 0.53281,-5.12633 0.69921,-5.39258 0.19969,-0.26625 0.66626,-0.74836 1.39844,-1.44726 0.73218,-0.69891 1.33094,-1.04883 1.79688,-1.04883 0.49921,0 0.74804,0.6318 0.74804,1.89648 0,0.33281 -0.0991,0.98212 -0.29882,1.94727 -0.16641,0.96515 -0.36665,1.665 -0.59961,2.09765 -0.3661,0.93187 -0.54883,3.81097 -0.54883,8.63672 0,0.89859 0.10109,1.34766 0.30078,1.34766 0.56578,-0.0333 1.34727,-0.73313 2.3457,-2.09766 0.70585,-0.98819 1.40258,-2.17807 2.0918,-3.54883 0.16015,-3.01249 0.91447,-5.34186 2.26367,-6.98437 1.53093,-1.86374 3.50994,-2.79492 5.93945,-2.79492 1.13156,0 2.06275,0.31492 2.79493,0.94726 0.73218,0.59906 1.09961,1.4311 1.09961,2.4961 0,1.99686 -0.84955,3.67844 -2.54687,5.04297 -1.66406,1.33124 -3.71112,2.02914 -6.14063,2.0957 0.13312,1.29796 0.56664,2.42938 1.29882,3.39453 0.76547,0.93187 1.64806,1.39844 2.64649,1.39844 0.99843,0 1.89657,-0.23329 2.69532,-0.69922 0.79873,-0.46594 1.52969,-1.13079 2.19531,-1.9961 1.3978,-1.83045 2.59727,-3.91056 3.5957,-6.24023 0.26625,-0.59906 0.46648,-1.03258 0.59961,-1.29883 0.16641,-0.26625 0.33163,-0.39844 0.49805,-0.39844 0.19968,0 0.29883,0.13219 0.29883,0.39844 0,1.66405 -1.01478,4.16018 -3.04493,7.48828 -2.19655,3.56108 -4.90845,5.3418 -8.13672,5.3418 -1.86374,0 -3.34509,-0.6979 -4.44336,-2.0957 -0.79904,-1.04118 -1.30378,-2.18106 -1.52148,-3.41602 -1.99646,3.65357 -3.72692,5.51172 -5.17969,5.51172 -1.29796,0 -2.27969,-0.26633 -2.94531,-0.79883 -0.23297,-0.23297 -0.34961,-0.94836 -0.34961,-2.14648 0,-1.19812 0.0505,-2.52978 0.15039,-3.99414 -1.065,2.26311 -2.13032,3.99524 -3.19532,5.19336 -1.06499,1.16483 -2.2625,1.74609 -3.59375,1.74609 -1.29796,0 -2.16304,-0.34993 -2.5957,-1.04883 -0.43265,-0.6989 -0.65039,-1.87891 -0.65039,-3.54297 l 0.0781,-1.46289 c -2.12291,4.02243 -3.94832,6.05469 -5.47266,6.05469 -1.29796,0 -2.27969,-0.26633 -2.94531,-0.79883 -0.23297,-0.23297 -0.34961,-0.83172 -0.34961,-1.79687 0,-0.99843 0.0816,-2.59642 0.24805,-4.79297 0.19969,-2.22983 0.30078,-3.89391 0.30078,-4.99219 0,-1.09827 -0.20024,-1.64648 -0.59961,-1.64648 -0.36609,0 -1.36532,1.14892 -2.99609,3.44531 -1.63077,2.26311 -2.49586,3.70946 -2.59571,4.3418 -0.19968,1.16483 -0.29882,2.2632 -0.29882,3.29492 l 0.0508,1.54883 c 0,0.93187 -0.26633,1.39648 -0.79883,1.39648 -0.79875,0 -1.56469,-0.0991 -2.29688,-0.29883 -0.73218,-0.23297 -1.09765,-0.53234 -1.09765,-0.89844 0,-0.39937 0.0816,-1.71352 0.24804,-3.94336 0.0361,-0.40919 0.0524,-0.70201 0.082,-1.07421 -2.16081,4.13488 -4.01699,6.21484 -5.5625,6.21484 -1.29796,0 -2.27969,-0.26633 -2.94531,-0.79883 -0.23297,-0.23297 -0.34961,-1.06501 -0.34961,-2.49609 0,-0.73187 0.0298,-1.72706 0.082,-2.95508 -2.17315,4.1599 -4.05198,6.25 -5.63086,6.25 -1.79717,0 -2.8625,-0.21578 -3.19531,-0.64844 -0.29953,-0.43265 -0.44922,-1.86345 -0.44922,-4.29297 0,-0.80512 0.0348,-1.77371 0.0859,-2.8164 -2.49223,5.15333 -4.60471,7.75781 -6.33008,7.75781 -1.29796,0 -2.27969,-0.26633 -2.94531,-0.79883 -0.23297,-0.23297 -0.34961,-0.83172 -0.34961,-1.79687 0,-0.99843 0.0816,-2.59642 0.24805,-4.79297 0.19969,-2.22983 0.30078,-3.89391 0.30078,-4.99219 0,-1.09827 -0.20024,-1.64648 -0.59961,-1.64648 -0.36609,0 -1.36337,1.14892 -2.99414,3.44531 -1.63077,2.26311 -2.49781,3.70946 -2.59766,4.3418 -0.19968,1.16483 -0.29882,2.2632 -0.29882,3.29492 l 0.0508,1.54883 c 0,0.93187 -0.26633,1.39648 -0.79883,1.39648 -0.79875,0 -1.56469,-0.0991 -2.29688,-0.29883 -0.73218,-0.23297 -1.09765,-0.53234 -1.09765,-0.89844 0,-0.39937 0.0816,-1.71352 0.24804,-3.94336 0.19969,-2.26311 0.30079,-3.96219 0.30079,-5.09374 v -0.51954 c -0.8313,0.48861 -1.77987,0.94673 -2.85938,1.36914 -0.23297,2.79561 -1.11556,5.05845 -2.64648,6.78907 -1.53093,1.73061 -3.71018,2.5957 -6.53907,2.5957 -2.06342,0 -3.64586,-0.81454 -4.74414,-2.44531 -0.70262,-1.06459 -1.17657,-2.23896 -1.42968,-3.52149 -3.0172,4.13968 -6.9658,6.2168 -11.85352,6.2168 -1.43109,0 -2.74719,-0.33243 -3.94531,-0.99805 -1.19812,-0.66562 -2.14485,-1.51516 -2.84375,-2.54687 -1.43109,-2.09671 -2.14844,-4.29345 -2.14844,-6.58985 0,-5.7909 1.49885,-10.44877 4.49414,-13.97656 3.02858,-3.56107 6.60557,-5.3418 10.73242,-5.3418 z m 56.54493,2.34571 c 0.89858,0 1.34765,0.51516 1.34765,1.54687 0,1.03172 -0.26633,1.9318 -0.79883,2.69727 -0.53249,0.73218 -1.28094,1.09765 -2.24609,1.09765 -0.63234,0 -0.94922,-1.04782 -0.94922,-3.14453 0,-0.59906 0.31688,-1.11617 0.94922,-1.54882 0.63234,-0.43266 1.19805,-0.64844 1.69727,-0.64844 z m -41.91211,10.03515 c -0.5325,0 -0.94852,0.24884 -1.24805,0.74805 -0.29953,0.46594 -0.44922,0.9811 -0.44922,1.54688 0,1.2314 0.41602,2.23063 1.24805,2.99609 0.8653,0.76546 1.86453,1.14844 2.99609,1.14844 h 0.59766 c -0.0666,-1.63077 -0.34844,-3.11212 -0.84766,-4.44336 -0.46593,-1.33124 -1.23188,-1.9961 -2.29687,-1.9961 z m 90.64062,0.44922 c -1.16484,0 -2.14657,0.81454 -2.94531,2.44532 -0.79875,1.59749 -1.23227,3.37821 -1.29883,5.34179 1.96358,-0.33281 3.39633,-0.96461 4.29492,-1.89648 0.93187,-0.93187 1.39649,-2.14689 1.39649,-3.64453 0,-1.49765 -0.48212,-2.2461 -1.44727,-2.2461 z m -94.28516,0.69727 c -1.43108,1.13155 -2.14648,3.36135 -2.14648,6.68945 0,1.59749 0.33243,3.12939 0.99805,4.59375 0.66562,1.43109 1.7154,2.14649 3.14648,2.14649 1.43109,0 2.54501,-0.59876 3.34375,-1.79688 0.79875,-1.2314 1.26531,-2.73024 1.39844,-4.49414 l -1.79688,0.10156 c -1.53092,0 -2.82953,-0.45102 -3.89453,-1.34961 -1.06499,-0.93187 -1.59765,-1.94664 -1.59765,-3.04492 0,-1.09827 0.18273,-2.04696 0.54882,-2.8457 z"
       id="rect971"
       inkscape:connector-curvature="0"
       inkscape:label="continue_button_hover"
       inkscape:export-xdpi="96"
       inkscape:export-ydpi="96"
       sodipodi:nodetypes="cccccccscsscsscscsccccsscccsscscsccccscscsccccccscccssccscccsccccccssccscccssscscsccccscscsccccscscscssccccssccsccccscscccsccccsscsccscsccscccscscssccccscsccscscscscscscssccccscscscccsccsscscccsscsscsscscsccsscccsscscsccccsc" />
    <g
       id="g963"
       inkscape:label="continue_button_normal"
       inkscape:export-xdpi="96"
       inkscape:export-ydpi="96"
       transform="translate(-380.24999,170)">
      <text
         id="text942"
         y="401.23917"
         x="-21.041992"
         style="font-style:normal;font-variant:normal;font-weight:normal;font-stretch:normal;font-size:49.92158127px;line-height:1.25;font-family:Cookie;-inkscape-font-specification:'Cookie, Normal';font-variant-ligatures:normal;font-variant-caps:normal;font-variant-numeric:normal;font-feature-settings:normal;text-align:start;letter-spacing:0px;word-spacing:0px;writing-mode:lr-tb;text-anchor:start;fill:#1a1a1a;fill-opacity:1;stroke:none;stroke-width:1.24803948"
         xml:space="preserve"
         inkscape:label="continue_text"><tspan
           style="fill:#1a1a1a;stroke-width:1.24803948"
           y="401.23917"
           x="-21.041992"
           id="tspan940"
           sodipodi:role="line">Continue</tspan></text>
      <rect
         inkscape:label="continue_border"
         style="opacity:1;vector-effect:none;fill:none;fill-opacity:1;fill-rule:nonzero;stroke:#1a1a1a;stroke-width:5;stroke-linecap:round;stroke-linejoin:miter;stroke-miterlimit:4;stroke-dasharray:none;stroke-dashoffset:0;stroke-opacity:1;paint-order:fill markers stroke"
         id="rect965"
         width="267.58984"
         height="67.590317"
         x="-89.79493"
         y="353.21637" />
    </g>
    <path
       style="color:#000000;font-style:normal;font-variant:normal;font-weight:normal;font-stretch:normal;font-size:medium;line-height:normal;font-family:sans-serif;font-variant-ligatures:normal;font-variant-position:normal;font-variant-caps:normal;font-variant-numeric:normal;font-variant-alternates:normal;font-feature-settings:normal;text-indent:0;text-align:start;text-decoration:none;text-decoration-line:none;text-decoration-style:solid;text-decoration-color:#000000;letter-spacing:normal;word-spacing:normal;text-transform:none;writing-mode:lr-tb;direction:ltr;text-orientation:mixed;dominant-baseline:auto;baseline-shift:baseline;text-anchor:start;white-space:normal;shape-padding:0;clip-rule:nonzero;display:inline;overflow:visible;visibility:visible;opacity:1;isolation:auto;mix-blend-mode:normal;color-interpolation:sRGB;color-interpolation-filters:linearRGB;solid-color:#000000;solid-opacity:1;vector-effect:none;fill:#1a1a1a;fill-opacity:1;fill-rule:nonzero;stroke:none;stroke-width:5;stroke-linecap:round;stroke-linejoin:miter;stroke-miterlimit:4;stroke-dasharray:none;stroke-dashoffset:0;stroke-opacity:1;paint-order:fill markers stroke;color-rendering:auto;image-rendering:auto;shape-rendering:auto;text-rendering:auto;enable-background:accumulate"
       d="m -472.54492,430.71692 v 72.58984 h 272.58984 v -72.58984 z m 80.74023,20.94335 c 0.83203,10e-6 1.49688,0.29938 1.9961,0.89844 0.49921,0.59906 0.75,1.26587 0.75,1.99805 0,0.73218 -0.14969,1.39703 -0.44922,1.99609 -0.26625,0.56578 -0.63368,0.84961 -1.09961,0.84961 -0.46594,0 -0.69922,-0.23328 -0.69922,-0.69922 0,-0.46593 -0.14969,-0.81586 -0.44922,-1.04882 -0.26625,-0.26625 -0.61422,-0.4004 -1.04687,-0.40039 -1.36453,-10e-6 -2.64564,0.71735 -3.84375,2.14843 -1.69734,2.03015 -3.11259,4.92479 -4.24414,8.68555 2.19654,4.72591 3.29492,8.55369 3.29492,11.48242 0,1.19812 -0.26633,2.26344 -0.79883,3.19531 -0.5325,0.89859 -1.31399,1.34766 -2.3457,1.34766 -2.19655,0 -3.29493,-1.86432 -3.29493,-5.5918 0,-2.6292 0.19829,-5.12532 0.59766,-7.48828 -0.99843,-2.12999 -2.12985,-4.07595 -3.39453,-5.83984 -0.5325,3.39467 -1.28094,6.68783 -2.24609,9.88281 -0.93187,3.19498 -1.96415,5.54142 -3.09571,7.03906 -1.13155,1.49765 -2.4943,2.2461 -4.09179,2.2461 -1.16484,0 -1.74805,-0.44907 -1.74805,-1.34766 0,-0.73218 0.24883,-1.24734 0.74805,-1.54687 0.49921,-0.29953 1.08242,-0.51532 1.74804,-0.64844 0.6989,-0.16641 1.14797,-0.34914 1.34766,-0.54883 1.2314,-1.29796 2.36282,-3.61135 3.39453,-6.93945 1.06499,-3.36139 1.83094,-6.77315 2.29687,-10.23438 -1.43108,-1.49765 -2.14648,-2.71266 -2.14648,-3.64453 0,-0.93187 0.26633,-1.99719 0.79883,-3.19531 0.53249,-1.2314 1.1643,-1.8457 1.89648,-1.84571 0.43266,0 0.81563,0.53071 1.14844,1.59571 0.33281,1.06499 0.5,2.39665 0.5,3.99414 1.73061,2.19655 3.07782,4.09391 4.04297,5.69141 1.03171,-3.39467 2.44501,-6.24072 4.24219,-8.53711 1.79717,-2.32968 3.86173,-3.49415 6.1914,-3.49415 z m 61.85938,0.99805 c 1.83046,0 3.51008,0.60071 5.04101,1.79883 1.53093,1.16484 2.29688,2.51204 2.29688,4.04297 0,0.49921 -0.20024,0.91524 -0.59961,1.24805 -0.36609,0.33281 -0.81516,0.49804 -1.34766,0.49804 -0.76546,0 -1.29812,-0.53071 -1.59765,-1.5957 -0.73219,-2.56264 -2.47986,-3.8457 -5.24219,-3.8457 -2.32968,0 -4.59251,1.44829 -6.78906,4.34375 -2.16327,2.89545 -3.24414,6.32275 -3.24414,10.2832 0,2.79561 0.83204,5.22564 2.49609,7.28906 1.69733,2.06343 3.81048,3.09571 6.33984,3.09571 2.03015,0 3.76032,-0.58321 5.19141,-1.74805 1.43108,-1.16484 2.34672,-2.66173 2.74609,-4.49219 -0.83202,0.16641 -1.8468,0.25 -3.04492,0.25 -1.19812,0 -2.24594,-0.28383 -3.14453,-0.84961 -0.86531,-0.56578 -1.29883,-1.33172 -1.29883,-2.29687 0,-0.99844 0.49962,-1.84602 1.49805,-2.54493 1.03171,-0.6989 2.33032,-1.04882 3.89453,-1.04882 1.56421,0 2.87837,0.31687 3.94336,0.94921 1.09827,0.63235 1.64648,1.59658 1.64648,2.89454 1.03172,-0.29953 2.11454,-0.79915 3.2461,-1.49805 0.45904,-0.29703 0.80093,-0.49144 1.12304,-0.66797 0.29867,-0.61553 0.65048,-1.20967 1.0625,-1.77734 1.53093,-2.06343 3.52744,-3.09571 5.99024,-3.09571 1.06499,0 2.26251,0.69986 3.59375,2.09766 0.26625,-0.36609 0.73282,-0.79961 1.39844,-1.29883 0.6989,-0.53249 1.28016,-0.79883 1.74609,-0.79883 0.49922,0 0.75,0.63376 0.75,1.89844 0,0.33281 -0.10109,0.98016 -0.30078,1.94531 -0.16641,0.96515 -0.36469,1.66501 -0.59766,2.09766 -0.29953,0.76546 -0.44922,3.47737 -0.44922,8.13672 0,0.89859 0.0991,1.34765 0.29883,1.34766 0.56578,-0.0333 1.34727,-0.73118 2.34571,-2.09571 0.8805,-1.23271 1.74693,-2.78134 2.60156,-4.60937 0.0107,-0.32275 0.0352,-0.72037 0.0352,-0.98242 v -2.94532 c 0,-1.59749 0.16719,-2.56172 0.5,-2.89453 0.33281,-0.33281 0.91407,-0.81688 1.7461,-1.44922 0.8653,-0.63234 1.48156,-0.94726 1.84765,-0.94726 0.39938,0 0.65016,0.0661 0.75,0.19922 0.0999,0.13312 0.14844,0.38195 0.14844,0.74804 0,1.7639 -0.33242,3.42798 -0.99805,4.99219 -0.1664,1.89702 -0.25,3.21313 -0.25,3.94531 1.7639,-3.29482 2.99641,-5.45852 3.69532,-6.49023 1.2314,-1.9303 2.34532,-2.89649 3.34375,-2.89649 0.63234,0 1.21555,0.25079 1.74804,0.75 0.56578,0.49922 0.84766,1.11352 0.84766,1.84571 0,0.73218 -0.0155,1.43203 -0.0488,2.09765 0,0.63234 -0.0175,1.13196 -0.0508,1.49805 -0.0333,0.36609 -0.0488,0.59938 -0.0488,0.69922 0.13313,-0.26625 0.69884,-1.01665 1.69727,-2.24805 0.99843,-1.2314 1.66328,-2.02844 1.99609,-2.39453 0.36609,-0.36609 0.74907,-0.73352 1.14844,-1.09961 0.76546,-0.76546 1.44782,-1.14844 2.04687,-1.14844 0.63234,0 1.2136,0.23329 1.7461,0.69922 0.56578,0.46594 0.84961,1.04915 0.84961,1.74805 0,1.46437 -0.16719,3.62806 -0.5,6.49023 -0.29953,2.82889 -0.44922,4.62516 -0.44922,5.39063 0,0.73218 0.10109,1.09765 0.30078,1.09766 0.56578,-0.0333 1.34727,-0.73118 2.3457,-2.09571 0.7399,-1.03585 1.47175,-2.28402 2.19336,-3.74023 0.18172,-2.91894 0.92785,-5.18577 2.24805,-6.79297 1.53093,-1.86374 3.51189,-2.79688 5.94141,-2.79688 1.13155,0 2.06273,0.31688 2.79492,0.94922 0.73218,0.59906 1.09765,1.4311 1.09765,2.4961 0,1.99686 -0.84758,3.67844 -2.54492,5.04297 -1.66405,1.33124 -3.71111,2.02914 -6.14062,2.0957 0.13312,1.29796 0.56664,2.42938 1.29883,3.39453 0.76546,0.93187 1.64609,1.39844 2.64453,1.39844 0.99843,0 1.89656,-0.23329 2.69531,-0.69922 0.79874,-0.46594 1.53164,-1.13079 2.19726,-1.9961 1.39781,-1.83045 2.59532,-3.91056 3.59375,-6.24023 0.26625,-0.59906 0.46649,-1.03258 0.59961,-1.29883 0.16641,-0.26625 0.3336,-0.39844 0.5,-0.39844 0.19969,0 0.29883,0.13219 0.29883,0.39844 0,1.66405 -1.01478,4.16018 -3.04492,7.48828 -2.19655,3.56108 -4.90846,5.3418 -8.13672,5.3418 -1.86374,0 -3.34508,-0.69985 -4.44336,-2.09766 -0.82493,-1.0749 -1.33961,-2.25175 -1.54492,-3.5332 -2.0236,3.7319 -3.77588,5.63086 -5.24414,5.63086 -1.13156,0 -2.02969,-0.26633 -2.69531,-0.79883 -0.23297,-0.23297 -0.34961,-0.83172 -0.34961,-1.79687 0,-0.99843 0.0836,-2.59642 0.25,-4.79297 0.19968,-2.22983 0.29883,-3.89391 0.29883,-4.99219 0,-1.09827 -0.18274,-1.64648 -0.54883,-1.64648 -0.43266,0 -1.38134,0.73094 -2.84571,2.19531 -1.43108,1.46437 -2.19507,2.49664 -2.29492,3.0957 -0.19968,1.13156 -0.30078,3.57713 -0.30078,7.33789 0,0.93187 -0.24883,1.39844 -0.74805,1.39844 -0.76546,0 -1.49836,-0.0991 -2.19726,-0.29883 -0.66562,-0.23297 -0.99805,-0.5343 -0.99805,-0.90039 0,-0.39937 0.0991,-2.04595 0.29883,-4.94141 0.19969,-2.89545 0.30078,-4.925 0.30078,-6.08984 0,-1.19812 -0.20024,-1.79687 -0.59961,-1.79687 -0.36609,0 -1.28173,1.14696 -2.74609,3.44336 -1.46437,2.26311 -2.27891,3.84359 -2.44531,4.74218 -0.13313,0.89859 -0.19922,1.86477 -0.19922,2.89649 l 0.0488,1.54687 c 0,0.93187 -0.26633,1.39844 -0.79882,1.39844 -0.79875,0 -1.56469,-0.0991 -2.29688,-0.29883 -0.73218,-0.23297 -1.09765,-0.5343 -1.09765,-0.90039 0,-0.39937 0.0836,-1.71353 0.25,-3.94336 0.0255,-0.28937 0.0344,-0.48889 0.0566,-0.75976 -2.08664,3.91558 -3.88472,5.90234 -5.38868,5.90234 -1.29796,0 -2.27969,-0.26633 -2.94531,-0.79883 -0.23297,-0.23297 -0.34961,-0.81618 -0.34961,-1.74804 0,-0.96516 0.0331,-2.24626 0.0996,-3.84376 -0.86531,2.16327 -1.73039,3.77876 -2.5957,4.84376 -0.83203,1.03171 -1.91485,1.54687 -3.2461,1.54687 -1.33124,0 -2.4957,-0.61626 -3.49414,-1.84766 -0.99843,-1.26468 -1.49804,-3.22814 -1.49804,-5.89062 0,-1.0971 0.13085,-2.13849 0.3789,-3.13086 -1.20581,0.71099 -2.44105,1.29373 -3.71093,1.73242 -0.69891,3.22826 -2.26385,5.64275 -4.69336,7.24024 -2.42952,1.59749 -5.20947,2.39453 -8.33789,2.39453 -1.99687,0 -3.76009,-0.34798 -5.29102,-1.04688 -1.49765,-0.6989 -2.64657,-1.59704 -3.44531,-2.69531 -1.59749,-2.16327 -2.39453,-4.44361 -2.39453,-6.83984 0,-3.09514 0.46461,-5.89064 1.39648,-8.38672 0.96515,-2.52936 2.21321,-4.54337 3.74414,-6.04102 1.53093,-1.53093 3.17947,-2.69539 4.94336,-3.49414 1.79718,-0.79874 3.61095,-1.19922 5.44141,-1.19922 z m -31.50391,10.73438 c 1.53093,0 2.29688,1.64658 2.29688,4.9414 0,0.86531 -0.0505,1.76345 -0.15039,2.69532 0.49921,0.1664 0.98133,0.25 1.44726,0.25 1.39781,0 2.69641,-0.59876 3.89453,-1.79688 0.59906,-0.59906 0.99758,-0.89844 1.19727,-0.89844 0.23297,0 0.34961,0.16719 0.34961,0.5 0,0.33281 -0.21579,0.73133 -0.64844,1.19727 -1.7639,1.96358 -3.97814,2.94531 -6.64062,2.94531 -0.5325,2.4628 -1.36454,4.5254 -2.4961,6.18945 -1.13155,1.63078 -2.56235,2.44727 -4.29297,2.44727 -1.73061,0 -2.97867,-1.01478 -3.74414,-3.04492 -1.36452,2.03014 -2.77782,3.04492 -4.24219,3.04492 -2.42316,0 -3.78451,-2.05082 -4.08203,-6.14844 -0.15987,0.27444 -0.28403,0.51984 -0.45898,0.80664 -2.19655,3.56108 -4.91041,5.3418 -8.13867,5.3418 -1.86374,0 -3.34313,-0.69985 -4.44141,-2.09766 -1.09827,-1.43108 -1.64844,-3.04462 -1.64844,-4.84179 0,-3.62764 0.76595,-6.37259 2.29688,-8.23633 1.53093,-1.86374 3.50993,-2.79688 5.93945,-2.79688 1.13156,0 2.06469,0.31688 2.79688,0.94922 0.73218,0.59906 1.09765,1.4311 1.09765,2.4961 0,1.99686 -0.84759,3.67844 -2.54492,5.04297 -1.66405,1.33124 -3.71111,2.02914 -6.14062,2.0957 0.13312,1.29796 0.56469,2.42938 1.29687,3.39453 0.76546,0.93187 1.64805,1.39844 2.64648,1.39844 0.99844,0 1.89657,-0.23329 2.69532,-0.69922 0.79874,-0.46594 1.53164,-1.13079 2.19726,-1.9961 0.87128,-1.14096 1.65498,-2.39163 2.3711,-3.72656 0.0665,-3.10677 0.414,-5.31097 1.07226,-6.50781 0.13313,-0.23297 0.63079,-0.61594 1.4961,-1.14844 0.8653,-0.53249 1.46601,-0.79883 1.79882,-0.79883 0.49922,0 0.74805,0.29938 0.74805,0.89844 -0.0666,1.56421 -0.53313,3.41103 -1.39844,5.54102 -0.19968,0.39937 -0.29882,1.36555 -0.29882,2.89648 0,1.49765 0.16719,2.82735 0.5,3.99219 0.36609,1.13155 0.88125,1.69726 1.54687,1.69726 0.66562,0 1.48016,-0.79704 2.44531,-2.39453 -0.1664,-0.83202 -0.25,-1.71461 -0.25,-2.64648 0,-0.96515 0.1011,-1.97993 0.30078,-3.04492 0.19969,-1.09828 0.59821,-2.19665 1.19727,-3.29493 0.59906,-1.09827 1.31446,-1.64843 2.14648,-1.64843 0.26625,0 0.45094,0.0836 0.55079,0.25 0.13312,0.1664 0.19921,0.56688 0.19921,1.19922 0,1.69733 -0.44906,3.81048 -1.34765,6.33984 0.13312,1.46437 0.46555,2.71243 0.99805,3.74414 0.56577,0.99843 1.18203,1.49609 1.84765,1.49609 0.96515,0 1.77969,-0.6143 2.44531,-1.8457 0.66562,-1.26468 1.18079,-2.79657 1.54688,-4.59375 -1.2314,-0.33281 -2.18008,-0.96461 -2.8457,-1.89648 -0.66563,-0.93187 -0.99805,-1.9972 -0.99805,-3.19532 0,-1.23139 0.28383,-2.27922 0.84961,-3.14453 0.59906,-0.89859 1.46415,-1.34765 2.5957,-1.34765 z m -0.34961,1.89648 c -0.29953,0 -0.44922,0.56571 -0.44922,1.69727 0,1.13155 0.51517,2.17938 1.54688,3.14453 0.0333,-0.16641 0.0508,-0.41524 0.0508,-0.74805 0,-2.72905 -0.38297,-4.09375 -1.14844,-4.09375 z m -23.76172,0.19922 c -1.16483,0 -2.14656,0.81649 -2.94531,2.44727 -0.79874,1.59749 -1.23031,3.37821 -1.29687,5.34179 1.96358,-0.33281 3.39438,-0.96657 4.29296,-1.89843 0.93187,-0.93187 1.39649,-2.14689 1.39649,-3.64454 0,-1.49764 -0.48212,-2.24609 -1.44727,-2.24609 z m 121.49024,0 c -1.16484,0 -2.14657,0.81649 -2.94531,2.44727 -0.79875,1.59749 -1.23227,3.37821 -1.29883,5.34179 1.96358,-0.33281 3.39438,-0.96657 4.29297,-1.89843 0.93187,-0.93187 1.39843,-2.14689 1.39843,-3.64454 0,-1.49764 -0.48211,-2.24609 -1.44726,-2.24609 z m -45.9668,0.40039 c -0.93187,0 -1.9311,0.6979 -2.99609,2.0957 -1.03172,1.36453 -1.54688,2.98001 -1.54688,4.84375 0,1.86374 0.26633,3.39368 0.79883,4.5918 0.56578,1.19812 1.29672,1.79688 2.19531,1.79688 1.09828,0 2.71181,-2.74496 4.8418,-8.23633 0.0333,-0.26625 0.0683,-0.71532 0.10156,-1.34766 l 0.14844,-1.49805 c -0.29953,-0.53249 -0.83219,-1.03211 -1.59766,-1.49804 -0.73218,-0.49922 -1.37953,-0.74805 -1.94531,-0.74805 z m -16.86328,2.89453 c -1.49765,0 -2.24609,0.33243 -2.24609,0.99805 0,0.49921 0.29937,0.91524 0.89843,1.24805 0.59906,0.33281 1.21337,0.5 1.84571,0.5 0.66562,0 1.33242,-0.0331 1.99804,-0.0996 -0.0333,-0.79875 -0.29961,-1.43055 -0.79882,-1.89649 -0.49922,-0.49921 -1.06493,-0.75 -1.69727,-0.75 z m -75.33789,3.54492 c -0.16641,1.19812 -0.25,2.42868 -0.25,3.69336 0,1.26468 0.0836,2.24641 0.25,2.94532 0.1664,0.6989 0.34914,1.04882 0.54883,1.04882 0.39937,0 0.59961,-0.68235 0.59961,-2.04687 0,-1.36452 -0.38298,-3.24439 -1.14844,-5.64063 z"
       id="rect909"
       inkscape:connector-curvature="0"
       inkscape:label="new_game_button_hover"
       inkscape:export-xdpi="96"
       inkscape:export-ydpi="96"
       sodipodi:nodetypes="cccccccscssccccscssccccsscccccscccccccccscscscscsccscscscccccsccssccscccssscscscccscscscsccscscscccsscscccsccccsscsccscscssccsscscssccccscsccscsccscscccsccscccccsscsssscccscsccscssscscccscccccsccscscsccscsccscccscssscsssscccssscccssscscsccccscssscccccscssc" />
    <g
       inkscape:label="new_game_button_normal"
       id="g926"
       transform="translate(-131.25,-80)"
       inkscape:export-xdpi="96"
       inkscape:export-ydpi="96">
      <rect
         inkscape:label="new_game_border"
         style="opacity:1;vector-effect:none;fill:none;fill-opacity:1;fill-rule:nonzero;stroke:#1a1a1a;stroke-width:5;stroke-linecap:round;stroke-linejoin:miter;stroke-miterlimit:4;stroke-dasharray:none;stroke-dashoffset:0;stroke-opacity:1;paint-order:fill markers stroke"
         id="rect920"
         width="267.58987"
         height="67.590317"
         x="-338.79495"
         y="433.21637" />
      <text
         inkscape:label="new_game_text"
         xml:space="preserve"
         style="font-style:normal;font-variant:normal;font-weight:normal;font-stretch:normal;font-size:49.92158127px;line-height:1.25;font-family:Cookie;-inkscape-font-specification:'Cookie, Normal';font-variant-ligatures:normal;font-variant-caps:normal;font-variant-numeric:normal;font-feature-settings:normal;text-align:start;letter-spacing:0px;word-spacing:0px;writing-mode:lr-tb;text-anchor:start;fill:#1a1a1a;fill-opacity:1;stroke:none;stroke-width:1.24803948"
         x="-286.76376"
         y="481.61359"
         id="text924"><tspan
           sodipodi:role="line"
           id="tspan922"
           x="-286.76376"
           y="481.61359"
           style="fill:#1a1a1a;stroke-width:1.24803948">New Game</tspan></text>
    </g>
    <path
       style="fill:#1a1a1a;fill-opacity:1;fill-rule:nonzero;stroke:none;stroke-width:0.40076005px;stroke-linecap:butt;stroke-linejoin:miter;stroke-opacity:1"
       d="m -488.0918,584.27344 -14.18164,18.54492 -15.54492,-3.54492 L -523,616.45508 -493.27344,635 -463,603.63672 Z m 279.23438,12.69922 -30.77149,11.42187 28.63672,53.26172 47.24414,-19.52148 -6.3125,-23.14454 -21.92383,8.42774 z m -150.83203,10.98828 -16.11914,16.26953 -3.52149,9.34961 2.71485,8.02734 -1.58008,-0.49219 -5.01953,5.94141 0.36328,10.08594 13.76367,0.44922 0.12891,-2.16992 1.9414,0.77734 c 0,0 2.20029,0.90862 1.95703,0.74414 -0.24299,-0.16402 5.97852,9.26172 5.97852,9.26172 l 2.02734,6.10742 -0.40625,4.87109 -0.89258,6.02735 -1.01367,5.05859 -7.58593,4.92969 -17.65626,36.32617 -0.7871,0.5625 -0.22461,-0.78711 11.13281,-26.3164 7.31055,-17.20704 -1.57422,-1.6875 -2.25,1.125 -8.54688,1.01172 -7.31055,3.375 2.25,1.91211 2.25,1.23633 -5.39843,22.60547 -10.00977,21.59375 -0.11133,1.79883 1.34961,0.89843 2.92383,-1.12304 3.93555,-1.125 4.72265,-0.22461 2.47461,-1.80078 0.78711,-1.79883 12.25977,-27.77734 11.80859,-13.94727 2.13672,1.57617 -1.80078,3.37305 1.57422,3.03711 3.59961,0.78711 4.16211,-6.63477 -1.9375,-4.31836 -1.50781,-6.58008 -0.84961,-5.61328 -0.40039,-5.1289 c 0,0 1.09704,-4.30134 0.97265,-4.50586 -0.1215,-0.20519 1.49219,-3.44336 1.49219,-3.44336 l 2.34961,-4.09961 1.74219,1.06445 3.56445,0.7793 3.40039,-2.66406 1.0918,-4.50782 -1.94141,-5.44922 -2.62891,-0.49218 2.75,-2.17188 5.82813,1.14258 8.91211,-11.51367 -6.64063,-9.99805 -0.9375,0.0781 0.16407,-1.51368 -15.50586,-14.83593 z m -8.51953,42.19531 c 1.14578,0.2322 2.94921,1.1582 2.94921,1.1582 l -0.28515,1.33594 -1.23633,1.04297 c 0,0 -2.05723,-0.57895 -1.91406,-0.66602 0.14376,-0.083 0.48633,-2.87109 0.48633,-2.87109 z m 5.8496,2.15039 c -0.20249,-0.24569 10.64844,4.18555 10.64844,4.18555 l 0.65039,-0.49219 -0.60742,3.19141 -1.2207,2.21484 -2.46485,3.11328 -7.16992,-9.2207 c 0,0 0.3659,-2.74623 0.16406,-2.99219 z m 97.85938,3.33008 -8.88477,3.15039 -3.93554,7.42187 1.34961,3.26172 3.37304,1.34961 4.61133,-3.82422 -1.46289,-4.72265 3.59961,-1.46289 12.93359,20.69336 -0.45117,4.38671 -3.48633,-1.3496 -21.36718,10.12109 -8.54688,23.73047 3.26172,13.04492 10.00781,6.86133 21.25586,-15.7461 10.23438,-37.33789 -5.84766,-20.80468 z m -217.7793,1.23828 -28.67968,15.29492 -17.31836,30.36524 -6.29883,22.26757 -0.22461,3.82422 8.09766,10.00782 7.98437,-4.27344 3.71289,-6.52344 -1.91211,-2.36133 -3.59961,3.82422 -5.06054,3.82422 -1.34961,-1.80078 6.29687,-20.91797 16.19531,-32.38867 22.38086,-16.86914 2.92383,1.125 -1.34961,2.92383 1.46094,3.48632 3.9375,1.46094 3.71094,-1.34961 1.6875,-3.37304 z m -55.21093,1.79883 -28.22852,9.33398 -16.41992,24.17969 0.22461,2.36133 -30.14063,27.55469 2.69922,8.20898 6.86133,3.26172 5.06055,-1.79883 2.25,-5.62305 -3.48633,-5.17382 -2.36328,1.79882 -1.23633,1.6875 -1.01172,0.11328 -2.36133,-2.92382 25.64063,-21.48047 15.18359,7.5332 10.57031,-1.57422 0.45117,0.11328 -0.33789,0.33789 -15.29492,5.95899 -16.64453,9.78515 -7.75976,17.31836 7.64648,13.60938 18.33203,3.82422 19.45508,-8.21094 9.22266,-19.23047 -3.03711,-10.45898 -10.00782,-5.06055 -14.17187,5.17188 -6.52149,14.05859 2.02344,7.42187 6.74805,3.71094 4.83594,-1.68554 2.47461,-5.28711 -3.26172,-4.16016 -0.78711,0.11328 -2.36133,2.58594 -2.58789,-1.34961 -1.12305,-3.03711 3.59766,-7.42188 7.53515,-3.14843 5.51172,3.37304 1.57422,6.52344 -6.18555,13.83203 -14.2832,5.84766 -9.10937,-3.71094 -2.8125,-9.10937 8.09765,-16.30664 16.98242,-9.33399 7.64649,-2.02539 3.82422,-4.83594 -4.72266,-4.38476 -5.17383,1.01172 -3.71093,1.01172 -8.66016,-3.93555 6.52344,-0.11328 27.89062,-6.74805 10.57227,-19.90625 -4.5,-10.3457 z m 253.87304,3.26172 -5.17383,3.26172 -2.24804,7.19726 1.34961,3.93555 3.37304,1.6875 5.51172,-3.48633 1.79883,-7.19727 -1.34961,-3.9375 z m 137.94336,0 -5.17383,3.26172 -2.24804,7.19726 1.34961,3.93555 3.37304,1.6875 5.50977,-3.48633 1.80078,-7.19727 -1.34961,-3.9375 z m -392.49219,2.47461 8.77344,7.19726 -10.79687,14.39453 -21.59375,5.73633 -7.08399,0.78711 v -0.33789 l 9.89649,-18.21875 17.09375,-9.22266 z m 146.76954,4.38476 -1.91016,0.5625 -1.6875,0.67578 -3.71094,0.5625 -2.92383,2.24805 -2.92578,4.5 -3.93554,8.6582 h -9.5586 l -2.25,5.62305 h 9.22266 l -11.69727,25.64258 -2.58594,10.57031 2.25,7.76172 6.41016,3.14844 9.67188,-3.375 4.38476,-7.19727 -1.91211,-2.69922 -4.27343,3.26172 -4.38477,3.26172 -2.02539,-3.26172 2.36133,-8.43359 13.38476,-28.67969 h 10.6836 l 2.24804,-5.62305 h -10.3457 l 3.26172,-6.85937 3.48633,-7.53516 0.11132,-1.91211 z m 285.85742,7.96094 -1.69532,7.56055 0.3086,-7.49414 -1.54102,5.21289 -0.61523,-5.14844 -0.92383,6.32226 -0.77148,-5.93164 -1.53907,6.45313 -0.92382,-6.45313 -0.1543,5.60547 -0.61719,-5.86523 -0.76953,6.51758 -0.006,0.28125 -0.10351,-2.64844 -0.88868,6.58398 -0.0391,0.0176 -0.15039,-7.44922 -1.69531,7.56055 0.30859,-7.49414 -1.54101,5.21289 -0.61524,-5.14844 -0.92383,6.32031 -0.77148,-5.92968 -1.53906,6.45117 -0.92579,-6.45117 -0.15234,5.60547 -0.61719,-5.86524 -0.76953,6.51563 -0.19726,2.60156 -0.0996,-2.54883 -0.71485,5.29688 -0.23828,0.10546 -0.125,-6.25 -1.57226,7.01368 -0.10157,0.0469 0.28711,-6.99609 -1.54101,5.21484 -0.61524,-5.14844 -0.92382,6.32032 -0.77149,-5.92969 -1.53906,6.45117 -0.92578,-6.45117 -0.15235,5.60351 -0.61718,-5.86523 -0.76953,6.51758 -0.0742,3.7168 -1.00196,0.45117 -10.9082,26.65429 3.03711,10.00977 9.7832,4.38672 8.66016,-4.72461 6.41015,-10.6836 7.08594,-19.45703 1.23633,-1.23632 0.5625,1.34961 -7.19727,19.56835 -1.79882,6.74805 3.03515,5.73633 6.52344,1.79883 6.52344,-3.14844 2.92383,-6.18555 -2.02539,-3.375 -2.13672,3.48633 -3.48633,3.375 -2.13672,-2.47461 1.125,-4.83594 9.896484,-24.40429 3.486328,-5.51172 -4.498042,-6.52149 -3.39258,-0.9414 -0.26563,-9.25781 -0.92383,6.84375 z m -327.41992,0.39258 -1.35157,7.74414 -0.28515,0.13867 0.25,-7.79883 -1.54102,6.69727 -0.61523,-6.61328 -0.92383,8.12109 -0.77149,-7.61914 -1.53906,8.28906 -0.92383,-8.28906 -0.15429,7.19922 -0.61719,-7.53516 -0.76953,8.37305 -0.0781,2.9043 -0.0137,0.006 -0.10351,-6.30468 -1.29102,6.98242 -0.33594,0.16211 0.24024,-7.06641 -1.54102,6.32227 -0.61523,-6.24219 -0.92383,7.66406 -0.77149,-7.1914 -1.53906,7.82422 -0.92383,-7.82422 -0.15429,6.79687 -0.61719,-7.11133 -0.76953,7.90039 -0.11328,2.67969 -4.77539,2.31641 -10.23438,22.49219 5.84766,15.63281 14.05859,4.5 10.79688,-5.28711 4.04882,-7.31055 -1.57617,-1.79883 -2.81054,2.47461 -4.27344,4.61133 -7.42383,1.91211 -5.84766,-4.16211 -1.91211,-7.87305 7.75977,-21.2539 14.95898,-10.57227 2.58594,1.23633 -2.13672,3.48633 1.34961,2.92383 3.26172,1.125 3.82422,-1.91211 1.34961,-4.60938 -3.71289,-5.28711 -5.0625,-1.06054 -0.20508,-6.70508 -0.68555,6.51758 -0.27539,-0.0566 z m 115.14257,2.47656 -1.69531,7.74219 0.3086,-7.67578 -1.54102,5.33984 -0.61524,-5.27148 -0.92382,6.47265 -0.77149,-6.07226 -1.45898,6.25976 -0.13672,-0.0586 -0.86914,-6.20117 -0.1543,5.73828 -0.61523,-6.00586 -0.63282,5.49023 -0.1289,-0.0547 -3.64453,2.0586 -0.18555,-4.70508 -0.70312,5.20508 -0.25,0.14258 -0.125,-6.19336 -1.60743,7.17187 -0.0742,0.041 0.29492,-7.14844 -1.54102,5.21289 -0.61523,-5.14844 -0.92383,6.32227 -0.77149,-5.92969 -1.53906,6.45117 -0.92383,-6.45117 -0.15429,5.60352 -0.61719,-5.86524 -0.76953,6.51758 -0.0937,4.75586 -6.67383,3.76758 -10.57227,25.41601 14.39649,15.40821 21.48047,-11.47266 9.44531,-25.97851 -3.26367,-10.33985 -0.25586,-9.67773 -0.92383,7.00781 z m 32.625,4.46484 -2.25,1.125 -8.54687,1.01172 -7.31055,3.375 2.25,1.91211 2.25,1.23633 -5.96094,14.73242 -5.96093,20.35547 2.25,7.76172 6.41015,3.14844 8.77149,-2.92383 3.93554,-7.53516 -1.9121,-3.375 -3.48633,3.82422 -5.39649,3.71094 -2.02539,-3.26172 9.22266,-23.05469 9.33398,-20.35547 z m 137.94336,0 -2.25,1.125 -8.54687,1.01172 -7.31055,3.375 2.25,1.91211 2.24805,1.23633 -5.95899,14.73242 -5.96093,20.35547 2.25,7.76172 6.41015,3.14844 8.77149,-2.92383 3.93554,-7.53516 -1.91211,-3.375 -3.48632,3.82422 -5.39649,3.71094 -2.02539,-3.26172 9.22266,-23.05469 9.33398,-20.35547 z m -32.34961,1.01368 -12.93359,4.04882 -5.50977,10.57032 5.28516,12.25976 5.39844,12.0332 -3.03711,6.85938 -6.97266,2.92383 -2.81054,-0.89844 -1.23829,-2.13672 4.04883,-4.72461 -1.57422,-3.82422 -3.82421,-1.68554 -4.49805,2.13672 -1.01563,2.73046 -1.82031,-1.60546 -5.62305,4.16015 -9.44726,4.16211 -6.29688,-9.78516 7.53516,-9.22265 14.05664,-6.07227 7.53516,-13.49609 -2.02344,-5.62305 -5.51172,-2.36133 -21.48047,10.1211 -10.79687,23.39258 4.72461,13.1582 12.14648,5.39844 11.4707,-4.61133 5.38086,-7.21094 -0.63281,1.70117 4.04883,7.98438 8.99609,3.03711 13.27149,-4.94922 5.84765,-12.14649 -2.92383,-10.23437 -5.73632,-7.42188 -2.81055,-7.53515 2.58594,-4.27344 4.94922,-1.57422 3.71093,0.90039 -1.46289,3.14844 1.46289,3.03711 3.37305,1.23633 3.375,-1.79883 1.34961,-4.38672 -3.375,-5.51172 z m -290.78711,0.44921 -21.48046,10.1211 -10.79688,23.39258 4.72266,13.1582 12.14648,5.39844 11.4707,-4.61133 5.62305,-7.53516 -1.91016,-1.68554 -5.62304,4.16015 -9.44727,4.16211 -6.29883,-9.78516 7.53516,-9.22265 14.05859,-6.07227 7.53516,-13.49609 -2.02539,-5.62305 z m 360.92188,4.83594 6.52344,2.25 -2.92383,3.71094 0.78711,2.13672 h -10.00977 l -9.44726,23.84179 -4.38477,6.52344 -4.94922,2.92383 -2.02343,-1.46289 -0.9004,-2.92383 6.74805,-24.40429 z m -362.83399,0.44922 1.125,1.91211 -3.375,7.42383 -7.64648,4.72265 -8.21094,5.50977 5.51172,-12.25781 z m 260.50977,0 1.125,1.91211 -3.37305,7.42383 -7.64843,4.72265 -8.20899,5.50977 5.50977,-12.25781 z m -114.58984,0.11328 2.92578,4.38672 -6.07422,24.85352 -15.29492,12.25781 -4.38672,-5.17188 8.09765,-23.39257 z m 69.07422,0.11133 3.14843,2.92578 0.11328,4.72266 -5.84765,18.66797 -12.9336,15.63281 -4.04882,-10.6836 5.73632,-21.03124 z m -105.33204,68.73828 -16.78125,4.55664 22.53125,24.06836 28.32422,-14.39648 -6.72461,-10.78516 -19.87109,11.07813 z"
       transform="translate(0,42.519653)"
       id="path898"
       inkscape:connector-curvature="0"
       inkscape:label="title"
       inkscape:export-xdpi="96"
       inkscape:export-ydpi="96" />
    <rect
       style="opacity:1;vector-effect:none;fill:#fdefba;fill-opacity:1;stroke:none;stroke-width:9.05172443;stroke-linecap:round;stroke-linejoin:miter;stroke-miterlimit:4;stroke-dasharray:none;stroke-dashoffset:0;stroke-opacity:1;paint-order:fill markers stroke"
       id="rect814"
       width="150"
       height="150"
       x="-788.68628"
       y="492.4801"
       inkscape:label="background_color"
       inkscape:export-xdpi="96"
       inkscape:export-ydpi="96" />
  </g>
</svg>
