<?xml version="1.0" encoding="UTF-8" standalone="no"?>
<!-- Created with Inkscape (http://www.inkscape.org/) -->

<svg
   xmlns:dc="http://purl.org/dc/elements/1.1/"
   xmlns:cc="http://creativecommons.org/ns#"
   xmlns:rdf="http://www.w3.org/1999/02/22-rdf-syntax-ns#"
   xmlns:svg="http://www.w3.org/2000/svg"
   xmlns="http://www.w3.org/2000/svg"
   xmlns:sodipodi="http://sodipodi.sourceforge.net/DTD/sodipodi-0.dtd"
   xmlns:inkscape="http://www.inkscape.org/namespaces/inkscape"
   width="1080"
   height="1080"
   viewBox="0 0 1080 1080"
   version="1.1"
   id="svg8"
   sodipodi:docname="default_theme.svg"
   inkscape:version="0.92.3 (2405546, 2018-03-11)">
  <defs
     id="defs2" />
  <sodipodi:namedview
     id="base"
     pagecolor="#ffffff"
     bordercolor="#666666"
     borderopacity="1.0"
     inkscape:pageopacity="0.0"
     inkscape:pageshadow="2"
     inkscape:zoom="1"
     inkscape:cx="566.89163"
     inkscape:cy="997.68116"
     inkscape:document-units="px"
     inkscape:current-layer="layer1"
     showgrid="false"
     units="px"
     borderlayer="true"
     inkscape:window-width="1366"
     inkscape:window-height="717"
     inkscape:window-x="0"
     inkscape:window-y="25"
     inkscape:window-maximized="1"
     showborder="false"
     inkscape:snap-bbox="true"
     inkscape:bbox-nodes="true" />
  <metadata
     id="metadata5">
    <rdf:RDF>
      <cc:Work
         rdf:about="">
        <dc:format>image/svg+xml</dc:format>
        <dc:type
           rdf:resource="http://purl.org/dc/dcmitype/StillImage" />
        <dc:title />
      </cc:Work>
    </rdf:RDF>
  </metadata>
  <g
     inkscape:label="Layer 1"
     inkscape:groupmode="layer"
     id="layer1"
     transform="translate(0,-42.519653)">
    <rect
       inkscape:label="line_edit"
       style="opacity:1;vector-effect:none;fill:none;fill-opacity:1;fill-rule:nonzero;stroke:#1a1a1a;stroke-width:5;stroke-linecap:round;stroke-linejoin:miter;stroke-miterlimit:4;stroke-dasharray:none;stroke-dashoffset:0;stroke-opacity:1;paint-order:fill markers stroke"
       id="rect920"
       width="855.20471"
       height="117.79504"
       x="-158.46896"
       y="89.764984"
       rx="0"
       ry="0"
       inkscape:export-xdpi="96"
       inkscape:export-ydpi="96" />
    <path
       style="opacity:1;vector-effect:none;fill:#1a1a1a;fill-opacity:1;stroke:none;stroke-width:7;stroke-linecap:round;stroke-linejoin:miter;stroke-miterlimit:4;stroke-dasharray:none;stroke-dashoffset:0;stroke-opacity:1;paint-order:fill markers stroke"
       d="M 765.5,73 A 36.5,36.5 0 0 0 729,109.5 36.5,36.5 0 0 0 765.5,146 36.5,36.5 0 0 0 802,109.5 36.5,36.5 0 0 0 765.5,73 Z M 751.71094,93.589844 765.5,107.37891 l 13.78906,-13.789066 2.1211,2.121094 -13.78907,13.789062 13.78907,13.78906 -2.1211,2.1211 -13.78906,-13.78907 -13.78906,13.78907 -2.1211,-2.1211 L 763.37891,109.5 749.58984,95.710938 Z"
       transform="translate(0,42.519653)"
       id="path816"
       inkscape:connector-curvature="0"
       inkscape:label="clear_button"
       inkscape:export-xdpi="96"
       inkscape:export-ydpi="96" />
    <path
       style="opacity:1;vector-effect:none;fill:#1a1a1a;fill-opacity:1;stroke:none;stroke-width:7;stroke-linecap:round;stroke-linejoin:miter;stroke-miterlimit:4;stroke-dasharray:none;stroke-dashoffset:0;stroke-opacity:1;paint-order:fill markers stroke"
       d="m 765.5,187 c -20.15839,0 -36.5,16.34161 -36.5,36.5 0,20.15839 16.34161,36.5 36.5,36.5 20.15839,0 36.5,-16.34161 36.5,-36.5 0,-20.15839 -16.34161,-36.5 -36.5,-36.5 z m -7.07031,20.23633 1.06054,1.06055 13.08008,13.08203 0.13867,0.13867 0.92188,0.92187 1.0625,1.06055 -1.0625,1.06055 -0.92188,0.92187 -0.13867,0.13867 -13.08008,13.08203 -1.06054,1.06055 -2.12305,-2.12109 1.0625,-1.06055 13.08008,-13.08203 -13.08008,-13.08203 -1.0625,-1.06055 z"
       id="path826"
       inkscape:connector-curvature="0"
       inkscape:label="enter_button_hover"
       inkscape:export-xdpi="96"
       inkscape:export-ydpi="96"
       transform="translate(0,42.519653)" />
    <path
       style="opacity:1;vector-effect:none;fill:#1a1a1a;fill-opacity:1;stroke:none;stroke-width:7;stroke-linecap:round;stroke-linejoin:miter;stroke-miterlimit:4;stroke-dasharray:none;stroke-dashoffset:0;stroke-opacity:1;paint-order:fill markers stroke"
       d="m 868.25586,187 c -2.51772,0 -4.97664,0.25555 -7.35156,0.74219 -1.18623,0.24306 -2.35078,0.54511 -3.49219,0.90039 -11.42843,3.55726 -20.45641,12.58525 -24.01367,24.01367 -0.35528,1.14141 -0.65733,2.30596 -0.90039,3.49219 -2.6e-4,0.001 2.5e-4,0.003 0,0.004 -0.24294,1.18626 -0.42814,2.3942 -0.55274,3.61914 -6e-5,6.5e-4 7e-5,0.001 0,0.002 -0.0623,0.61248 -0.11104,1.2286 -0.14258,1.84961 -0.0317,0.62194 -0.0469,1.24727 -0.0469,1.87695 0,0.62902 0.0153,1.2537 0.0469,1.875 4e-5,6.5e-4 -3e-5,0.001 0,0.002 0.0316,0.62064 0.0802,1.23745 0.14258,1.84961 7e-5,6.5e-4 -6e-5,10e-4 0,0.002 0.1246,1.22494 0.3098,2.43288 0.55274,3.61914 2.5e-4,0.001 -2.6e-4,0.003 0,0.004 0.24306,1.18623 0.54511,2.35078 0.90039,3.49219 3.91254,12.56984 14.44253,22.23732 27.50586,24.91406 10e-4,2.6e-4 0.003,-2.5e-4 0.004,0 0.59251,0.12134 1.19044,0.22811 1.79297,0.32031 10e-4,2e-4 0.003,-1.9e-4 0.004,0 0.60255,0.0921 1.21044,0.17019 1.82226,0.23243 6.5e-4,6e-5 0.001,-7e-5 0.002,0 0.61248,0.0623 1.2286,0.11104 1.84961,0.14257 0.62194,0.0317 1.24727,0.0469 1.87695,0.0469 2.51742,0 4.97636,-0.25472 7.35156,-0.74219 13.06333,-2.67674 23.59332,-12.34422 27.50586,-24.91406 0.35528,-1.14141 0.65733,-2.30596 0.90039,-3.49219 2.6e-4,-0.001 -2.5e-4,-0.003 0,-0.004 0.12149,-0.59226 0.22799,-1.19072 0.32031,-1.79297 2e-4,-10e-4 -1.9e-4,-0.003 0,-0.004 0.0924,-0.60291 0.17005,-1.21011 0.23243,-1.82226 6e-5,-6.5e-4 -7e-5,-0.001 0,-0.002 0.0623,-0.61216 0.11098,-1.22897 0.14257,-1.84961 4e-5,-6.4e-4 -3e-5,-0.001 0,-0.002 0.0316,-0.6213 0.0469,-1.24598 0.0469,-1.875 0,-0.62968 -0.0152,-1.25501 -0.0469,-1.87695 -0.0315,-0.62101 -0.0803,-1.23713 -0.14257,-1.84961 -7e-5,-6.5e-4 6e-5,-10e-4 0,-0.002 -0.0623,-0.61247 -0.14016,-1.22103 -0.23243,-1.82421 -9e-5,-6.4e-4 10e-5,-0.001 0,-0.002 -0.0922,-0.60253 -0.19897,-1.20046 -0.32031,-1.79297 -2.5e-4,-0.001 2.6e-4,-0.003 0,-0.004 -0.24306,-1.18623 -0.54511,-2.35078 -0.90039,-3.49219 -3.55726,-11.42842 -12.58524,-20.45641 -24.01367,-24.01367 -1.14141,-0.35528 -2.30597,-0.65733 -3.49219,-0.90039 -0.001,-2.6e-4 -0.003,2.5e-4 -0.004,0 -0.59226,-0.12149 -1.19072,-0.22799 -1.79297,-0.32031 -0.001,-2e-4 -0.003,1.9e-4 -0.004,0 -0.60291,-0.0924 -1.21011,-0.17005 -1.82226,-0.23243 -6.5e-4,-6e-5 -10e-4,7e-5 -0.002,0 -0.61216,-0.0623 -1.22897,-0.11099 -1.84961,-0.14257 -6.4e-4,-4e-5 -10e-4,3e-5 -0.002,0 -0.6213,-0.0316 -1.24598,-0.0469 -1.875,-0.0469 z m 0,5 c 17.42659,0 31.5,14.07342 31.5,31.5 0,17.42658 -14.07341,31.5 -31.5,31.5 -17.42659,0 -31.5,-14.07342 -31.5,-31.5 0,-17.42658 14.07341,-31.5 31.5,-31.5 z m -7.07031,15.23633 -2.12305,2.12109 1.0625,1.06055 13.08008,13.08203 -13.08008,13.08203 -1.0625,1.06055 2.12305,2.12109 1.06054,-1.06055 13.08008,-13.08203 0.13867,-0.13867 0.92188,-0.92187 1.0625,-1.06055 -1.0625,-1.06055 -0.92188,-0.92187 -0.13867,-0.13867 -13.08008,-13.08203 z"
       transform="translate(0,42.519653)"
       id="path846"
       inkscape:connector-curvature="0"
       inkscape:label="enter_button_normal"
       inkscape:export-xdpi="96"
       inkscape:export-ydpi="96" />
  </g>
</svg>
