<?xml version="1.0" encoding="UTF-8" standalone="no"?>
<!-- Created with Inkscape (http://www.inkscape.org/) -->

<svg
   xmlns:dc="http://purl.org/dc/elements/1.1/"
   xmlns:cc="http://creativecommons.org/ns#"
   xmlns:rdf="http://www.w3.org/1999/02/22-rdf-syntax-ns#"
   xmlns:svg="http://www.w3.org/2000/svg"
   xmlns="http://www.w3.org/2000/svg"
   xmlns:xlink="http://www.w3.org/1999/xlink"
   xmlns:sodipodi="http://sodipodi.sourceforge.net/DTD/sodipodi-0.dtd"
   xmlns:inkscape="http://www.inkscape.org/namespaces/inkscape"
   width="1080"
   height="1080"
   viewBox="0 0 1080 1080"
   version="1.1"
   id="svg8"
   sodipodi:docname="default_theme.svg"
   inkscape:version="0.92.3 (2405546, 2018-03-11)">
  <defs
     id="defs2">
    <linearGradient
       id="linearGradient878"
       inkscape:collect="always">
      <stop
         id="stop874"
         offset="0"
         style="stop-color:#00b8d4;stop-opacity:1" />
      <stop
         id="stop876"
         offset="1"
         style="stop-color:#00e5ff;stop-opacity:1" />
    </linearGradient>
    <linearGradient
       inkscape:collect="always"
       id="linearGradient861-3">
      <stop
         style="stop-color:#64dd17;stop-opacity:1"
         offset="0"
         id="stop857" />
      <stop
         style="stop-color:#eeff41;stop-opacity:1"
         offset="1"
         id="stop859" />
    </linearGradient>
    <linearGradient
       inkscape:collect="always"
       xlink:href="#linearGradient861-3"
       id="linearGradient863"
       x1="167.27817"
       y1="884.1557"
       x2="327.27817"
       y2="884.1557"
       gradientUnits="userSpaceOnUse"
       gradientTransform="matrix(1,0,0,2,0,-771.08464)" />
    <linearGradient
       inkscape:collect="always"
       xlink:href="#linearGradient878"
       id="linearGradient891"
       gradientUnits="userSpaceOnUse"
       gradientTransform="matrix(1,0,0,2,0,-742.58464)"
       x1="167.27817"
       y1="884.1557"
       x2="327.27817"
       y2="884.1557" />
  </defs>
  <sodipodi:namedview
     id="base"
     pagecolor="#ffffff"
     bordercolor="#666666"
     borderopacity="1.0"
     inkscape:pageopacity="0.0"
     inkscape:pageshadow="2"
     inkscape:zoom="0.5"
     inkscape:cx="5.13876"
     inkscape:cy="1674.795"
     inkscape:document-units="px"
     inkscape:current-layer="layer1"
     showgrid="false"
     units="px"
     borderlayer="true"
     inkscape:window-width="1366"
     inkscape:window-height="717"
     inkscape:window-x="0"
     inkscape:window-y="25"
     inkscape:window-maximized="1"
     showborder="false"
     inkscape:snap-bbox="true"
     inkscape:bbox-nodes="true"
     inkscape:bbox-paths="true"
     inkscape:object-paths="true"
     inkscape:snap-global="true"
     inkscape:snap-intersection-paths="true" />
  <metadata
     id="metadata5">
    <rdf:RDF>
      <cc:Work
         rdf:about="">
        <dc:format>image/svg+xml</dc:format>
        <dc:type
           rdf:resource="http://purl.org/dc/dcmitype/StillImage" />
        <dc:title />
      </cc:Work>
    </rdf:RDF>
  </metadata>
  <g
     inkscape:label="Layer 1"
     inkscape:groupmode="layer"
     id="layer1"
     transform="translate(0,-42.519653)">
    <path
       style="opacity:1;vector-effect:none;fill:#fdefba;fill-opacity:1;stroke:none;stroke-width:7;stroke-linecap:round;stroke-linejoin:miter;stroke-miterlimit:4;stroke-dasharray:none;stroke-dashoffset:0;stroke-opacity:1;paint-order:fill markers stroke"
       d="M 765.5,73 A 36.5,36.5 0 0 0 729,109.5 36.5,36.5 0 0 0 765.5,146 36.5,36.5 0 0 0 802,109.5 36.5,36.5 0 0 0 765.5,73 Z M 751.71094,93.589844 765.5,107.37891 l 13.78906,-13.789066 2.1211,2.121094 -13.78907,13.789062 13.78907,13.78906 -2.1211,2.1211 -13.78906,-13.78907 -13.78906,13.78907 -2.1211,-2.1211 L 763.37891,109.5 749.58984,95.710938 Z"
       transform="translate(0,42.519653)"
       id="path816"
       inkscape:connector-curvature="0"
       inkscape:label="clear_button"
       inkscape:export-xdpi="96"
       inkscape:export-ydpi="96" />
    <path
       style="opacity:1;vector-effect:none;fill:#fdefba;fill-opacity:1;stroke:none;stroke-width:7;stroke-linecap:round;stroke-linejoin:miter;stroke-miterlimit:4;stroke-dasharray:none;stroke-dashoffset:0;stroke-opacity:1;paint-order:fill markers stroke"
       d="m 765.5,187 c -20.15839,0 -36.5,16.34161 -36.5,36.5 0,20.15839 16.34161,36.5 36.5,36.5 20.15839,0 36.5,-16.34161 36.5,-36.5 0,-20.15839 -16.34161,-36.5 -36.5,-36.5 z m -7.07031,20.23633 1.06054,1.06055 13.08008,13.08203 0.13867,0.13867 0.92188,0.92187 1.0625,1.06055 -1.0625,1.06055 -0.92188,0.92187 -0.13867,0.13867 -13.08008,13.08203 -1.06054,1.06055 -2.12305,-2.12109 1.0625,-1.06055 13.08008,-13.08203 -13.08008,-13.08203 -1.0625,-1.06055 z"
       id="path826"
       inkscape:connector-curvature="0"
       inkscape:label="enter_button_hover"
       inkscape:export-xdpi="96"
       inkscape:export-ydpi="96"
       transform="translate(0,42.519653)" />
    <path
       style="opacity:1;vector-effect:none;fill:#fdefba;fill-opacity:1;stroke:none;stroke-width:7;stroke-linecap:round;stroke-linejoin:miter;stroke-miterlimit:4;stroke-dasharray:none;stroke-dashoffset:0;stroke-opacity:1;paint-order:fill markers stroke"
       d="m 868.25586,187 c -2.51772,0 -4.97664,0.25555 -7.35156,0.74219 -1.18623,0.24306 -2.35078,0.54511 -3.49219,0.90039 -11.42843,3.55726 -20.45641,12.58525 -24.01367,24.01367 -0.35528,1.14141 -0.65733,2.30596 -0.90039,3.49219 -2.6e-4,0.001 2.5e-4,0.003 0,0.004 -0.24294,1.18626 -0.42814,2.3942 -0.55274,3.61914 -6e-5,6.5e-4 7e-5,0.001 0,0.002 -0.0623,0.61248 -0.11104,1.2286 -0.14258,1.84961 -0.0317,0.62194 -0.0469,1.24727 -0.0469,1.87695 0,0.62902 0.0153,1.2537 0.0469,1.875 4e-5,6.5e-4 -3e-5,0.001 0,0.002 0.0316,0.62064 0.0802,1.23745 0.14258,1.84961 7e-5,6.5e-4 -6e-5,10e-4 0,0.002 0.1246,1.22494 0.3098,2.43288 0.55274,3.61914 2.5e-4,0.001 -2.6e-4,0.003 0,0.004 0.24306,1.18623 0.54511,2.35078 0.90039,3.49219 3.91254,12.56984 14.44253,22.23732 27.50586,24.91406 10e-4,2.6e-4 0.003,-2.5e-4 0.004,0 0.59251,0.12134 1.19044,0.22811 1.79297,0.32031 10e-4,2e-4 0.003,-1.9e-4 0.004,0 0.60255,0.0921 1.21044,0.17019 1.82226,0.23243 6.5e-4,6e-5 0.001,-7e-5 0.002,0 0.61248,0.0623 1.2286,0.11104 1.84961,0.14257 0.62194,0.0317 1.24727,0.0469 1.87695,0.0469 2.51742,0 4.97636,-0.25472 7.35156,-0.74219 13.06333,-2.67674 23.59332,-12.34422 27.50586,-24.91406 0.35528,-1.14141 0.65733,-2.30596 0.90039,-3.49219 2.6e-4,-0.001 -2.5e-4,-0.003 0,-0.004 0.12149,-0.59226 0.22799,-1.19072 0.32031,-1.79297 2e-4,-10e-4 -1.9e-4,-0.003 0,-0.004 0.0924,-0.60291 0.17005,-1.21011 0.23243,-1.82226 6e-5,-6.5e-4 -7e-5,-0.001 0,-0.002 0.0623,-0.61216 0.11098,-1.22897 0.14257,-1.84961 4e-5,-6.4e-4 -3e-5,-0.001 0,-0.002 0.0316,-0.6213 0.0469,-1.24598 0.0469,-1.875 0,-0.62968 -0.0152,-1.25501 -0.0469,-1.87695 -0.0315,-0.62101 -0.0803,-1.23713 -0.14257,-1.84961 -7e-5,-6.5e-4 6e-5,-10e-4 0,-0.002 -0.0623,-0.61247 -0.14016,-1.22103 -0.23243,-1.82421 -9e-5,-6.4e-4 10e-5,-0.001 0,-0.002 -0.0922,-0.60253 -0.19897,-1.20046 -0.32031,-1.79297 -2.5e-4,-0.001 2.6e-4,-0.003 0,-0.004 -0.24306,-1.18623 -0.54511,-2.35078 -0.90039,-3.49219 -3.55726,-11.42842 -12.58524,-20.45641 -24.01367,-24.01367 -1.14141,-0.35528 -2.30597,-0.65733 -3.49219,-0.90039 -0.001,-2.6e-4 -0.003,2.5e-4 -0.004,0 -0.59226,-0.12149 -1.19072,-0.22799 -1.79297,-0.32031 -0.001,-2e-4 -0.003,1.9e-4 -0.004,0 -0.60291,-0.0924 -1.21011,-0.17005 -1.82226,-0.23243 -6.5e-4,-6e-5 -10e-4,7e-5 -0.002,0 -0.61216,-0.0623 -1.22897,-0.11099 -1.84961,-0.14257 -6.4e-4,-4e-5 -10e-4,3e-5 -0.002,0 -0.6213,-0.0316 -1.24598,-0.0469 -1.875,-0.0469 z m 0,5 c 17.42659,0 31.5,14.07342 31.5,31.5 0,17.42658 -14.07341,31.5 -31.5,31.5 -17.42659,0 -31.5,-14.07342 -31.5,-31.5 0,-17.42658 14.07341,-31.5 31.5,-31.5 z m -7.07031,15.23633 -2.12305,2.12109 1.0625,1.06055 13.08008,13.08203 -13.08008,13.08203 -1.0625,1.06055 2.12305,2.12109 1.06054,-1.06055 13.08008,-13.08203 0.13867,-0.13867 0.92188,-0.92187 1.0625,-1.06055 -1.0625,-1.06055 -0.92188,-0.92187 -0.13867,-0.13867 -13.08008,-13.08203 z"
       transform="translate(0,42.519653)"
       id="path846"
       inkscape:connector-curvature="0"
       inkscape:label="enter_button_normal"
       inkscape:export-xdpi="96"
       inkscape:export-ydpi="96" />
    <path
       style="fill:#1a1a1a;fill-opacity:1;stroke:none;stroke-width:0.77330142px;stroke-linecap:butt;stroke-linejoin:miter;stroke-opacity:1"
       d="m 404.25916,333.10572 c -10.42249,1.97338 -25.3145,10.80589 -29.25416,18.59143 -3.93966,7.78555 -1.25319,26.20954 10.11593,36.36265 11.36911,10.15311 53.04025,8.4755 53.04025,8.4755 l 3.716,-6.30498 0.34679,4.88392 c 0,0 133.57084,3.78241 144.12205,-2.53165 11.17498,-6.68732 12.9528,-25.32563 12.9528,-25.32563 l -1.48967,-13.01132 -3.62399,0.30966 1.01692,-6.85173 c 0,0 -6.27487,-10.88871 -12.33592,-15.82514 -18.04362,-14.69569 -81.55574,-5.57003 -81.55574,-5.57003 l 0.26502,5.62184 -5.30782,-5.26865 c 0,0 -81.58596,4.47076 -92.00846,6.44413 z"
       id="path830-3"
       inkscape:connector-curvature="0"
       sodipodi:nodetypes="zzzcccsccccscccz"
       inkscape:label="default_button" />
    <path
       sodipodi:nodetypes="zzzcccsccccscccz"
       inkscape:connector-curvature="0"
       id="path1397"
       d="m -109.44656,103.3286 c -17.444,3.30281 -42.36857,18.08566 -48.96234,31.11624 -6.59376,13.03057 -2.09744,43.86659 16.93091,60.85973 19.02836,16.99313 88.772815,14.18533 88.772815,14.18533 l 6.21943,-10.55257 0.58042,8.17415 c 0,0 705.802705,6.33058 723.462135,-4.23717 18.70342,-11.19249 21.67894,-42.3872 21.67894,-42.3872 l -2.49323,-21.77689 -6.06544,0.51828 1.70201,-11.46768 c 0,0 -10.50218,-18.22428 -20.64648,-26.48635 -30.1994,-24.595988 -136.49885,-9.322481 -136.49885,-9.322481 l 0.44356,9.409201 -8.88364,-8.818071 c 0,0 -618.796235,7.482671 -636.24024,10.785481 z"
       style="fill:#1a1a1a;fill-opacity:1;stroke:none;stroke-width:5;stroke-linecap:butt;stroke-linejoin:miter;stroke-miterlimit:4;stroke-dasharray:none;stroke-opacity:1;paint-order:markers fill stroke"
       inkscape:export-xdpi="96"
       inkscape:export-ydpi="96"
       inkscape:label="line_edit" />
    <path
       inkscape:label="panel"
       sodipodi:nodetypes="zzzcccsccccscccz"
       inkscape:connector-curvature="0"
       id="path1401"
       d="m 165.69561,522.70571 c -27.67034,4.04762 -67.20664,22.16415 -77.66592,38.13323 -10.45928,15.96908 -3.32705,53.75889 26.85644,74.58413 30.1835,20.82523 140.81482,17.38425 140.81482,17.38425 l 9.86551,-12.93226 0.92067,10.01749 c 0,0 354.61285,7.75817 382.62491,-5.1927 C 678.78012,630.98335 683.5,592.75397 683.5,592.75397 l -3.95486,-26.68777 -9.62122,0.63515 2.69979,-14.05373 c 0,0 -16.65896,-22.33402 -32.75023,-32.45925 C 591.97005,490.04577 423.3538,508.76358 423.3538,508.76358 l 0.70361,11.53106 -14.09157,-10.80662 c 0,0 -216.59989,9.17007 -244.27023,13.21769 z"
       style="fill:#1a1a1a;fill-opacity:1;stroke:none;stroke-width:1.80453634px;stroke-linecap:butt;stroke-linejoin:miter;stroke-opacity:1"
       inkscape:export-xdpi="96"
       inkscape:export-ydpi="96" />
    <g
       transform="matrix(0.63214305,0,0,-0.63214305,206.64796,978.76444)"
       id="g1988">
      <path
         style="opacity:1;vector-effect:none;fill:#1a1a1a;fill-opacity:1;stroke:none;stroke-width:4.36301374;stroke-linecap:round;stroke-linejoin:miter;stroke-miterlimit:4;stroke-dasharray:none;stroke-dashoffset:0;stroke-opacity:1;paint-order:fill markers stroke"
         d="m 697.25,551.05663 c 0,12.56448 10.18552,22.75 22.75,22.75 12.56448,0 22.75,-10.18552 22.75,-22.75 0,-12.56448 -10.18552,-22.75 -22.75,-22.75 -12.56448,0 -22.75,10.18552 -22.75,22.75 z"
         id="path1984"
         inkscape:connector-curvature="0" />
      <path
         style="opacity:1;vector-effect:none;fill:#fdefba;fill-opacity:1;stroke:#fdefba;stroke-width:2.5782249;stroke-linecap:round;stroke-linejoin:miter;stroke-miterlimit:4;stroke-dasharray:none;stroke-dashoffset:0;stroke-opacity:1;paint-order:fill markers stroke"
         d="m 706.02287,557.13288 0.91144,-0.91144 11.24281,-11.24113 0.11917,-0.11917 0.79226,-0.79227 0.91145,-0.91312 0.91145,0.91312 0.79226,0.79227 0.11917,0.11917 11.24281,11.24113 0.91144,0.91144 -1.82288,1.82457 -0.91144,-0.91313 L 720,546.8032 l -11.24281,11.24112 -0.91144,0.91313 z"
         id="path1986"
         inkscape:connector-curvature="0" />
    </g>
    <g
       id="g2022"
       transform="matrix(0.63214305,0,0,0.63214305,206.64796,186.25823)">
      <path
         inkscape:connector-curvature="0"
         id="path2018"
         d="m 697.25,551.05663 c 0,12.56448 10.18552,22.75 22.75,22.75 12.56448,0 22.75,-10.18552 22.75,-22.75 0,-12.56448 -10.18552,-22.75 -22.75,-22.75 -12.56448,0 -22.75,10.18552 -22.75,22.75 z"
         style="opacity:1;vector-effect:none;fill:#1a1a1a;fill-opacity:1;stroke:none;stroke-width:4.36301374;stroke-linecap:round;stroke-linejoin:miter;stroke-miterlimit:4;stroke-dasharray:none;stroke-dashoffset:0;stroke-opacity:1;paint-order:fill markers stroke" />
      <path
         inkscape:connector-curvature="0"
         id="path2020"
         d="m 706.02287,557.13288 0.91144,-0.91144 11.24281,-11.24113 0.11917,-0.11917 0.79226,-0.79227 0.91145,-0.91312 0.91145,0.91312 0.79226,0.79227 0.11917,0.11917 11.24281,11.24113 0.91144,0.91144 -1.82288,1.82457 -0.91144,-0.91313 L 720,546.8032 l -11.24281,11.24112 -0.91144,0.91313 z"
         style="opacity:1;vector-effect:none;fill:#fdefba;fill-opacity:1;stroke:#fdefba;stroke-width:2.57853031;stroke-linecap:round;stroke-linejoin:miter;stroke-miterlimit:4;stroke-dasharray:none;stroke-dashoffset:0;stroke-opacity:1;paint-order:fill markers stroke" />
    </g>
    <path
       style="fill:#1a1a1a;fill-opacity:1;stroke:none;stroke-width:1px;stroke-linecap:butt;stroke-linejoin:miter;stroke-opacity:1"
       d="m 101.6466,570.79958 c 1.29299,-8.75958 -1.675169,-24.62355 -4.958745,-32.92109 -0.838612,-2.11916 0.715645,-6.08511 0.715645,-6.08511 l -2.609066,0.29261 c 0,0 0.488204,-12.1981 -5.69898,-23.33503 17.147336,1.23744 27.513836,10.40439 27.513836,10.40439 l -1.11456,4.34006 c 0,0 4.09672,-2.91522 5.50081,-2.21758 11.40037,5.6644 34.87573,18.84786 34.56795,29.19243 -0.61084,20.53056 -56.549652,38.16538 -53.91689,20.32932 z"
       id="path2024"
       inkscape:connector-curvature="0"
       sodipodi:nodetypes="sscccccsss" />
    <path
       sodipodi:nodetypes="sscccccsss"
       inkscape:connector-curvature="0"
       id="path2026"
       d="m 146.6115,532.00837 c -1.99821,-2.43445 -6.57325,-11.81706 -7.08055,-14.93989 -0.12958,-0.79756 -1.99078,-1.95748 -1.99078,-1.95748 l 2.03165,-0.4302 c 0,0 -0.30888,0.66378 -0.44278,-3.85017 -4.29064,1.99093 -7.21278,7.82808 -7.21278,7.82808 l 1.79445,1.44685 c 0,0 -2.35641,-0.19258 -2.66042,0.27435 -2.46833,3.79118 -6.70872,12.10745 -4.72362,15.20328 3.93976,6.14419 24.35354,1.38214 20.28483,-3.57482 z"
       style="fill:#1a1a1a;fill-opacity:1;stroke:none;stroke-width:0.35600257px;stroke-linecap:butt;stroke-linejoin:miter;stroke-opacity:1" />
    <path
       sodipodi:nodetypes="sscccccsss"
       inkscape:connector-curvature="0"
       id="path2028"
       d="m 113.41528,628.35632 c -3.55057,-0.6712 -10.0681,0.27838 -13.50549,1.48093 -0.8779,0.30712 -2.46952,-0.39182 -2.46952,-0.39182 l 0.0764,1.06868 c 0,0 -4.96592,-0.39955 -9.608827,1.94032 0.786398,-6.97171 4.694717,-11.04812 4.694717,-11.04812 l 1.7514,0.52581 c 0,0 -1.12139,-1.71841 -0.81385,-2.27948 2.4971,-4.55555 8.25865,-13.91126 12.47173,-13.61574 8.36155,0.58649 14.63301,23.6861 7.4034,22.31942 z"
       style="fill:#1a1a1a;fill-opacity:1;stroke:none;stroke-width:0.40809399px;stroke-linecap:butt;stroke-linejoin:miter;stroke-opacity:1" />
    <g
       id="g2049"
       transform="matrix(0.55863604,0,0,0.55863604,-126.37104,-73.016776)"
       inkscape:export-xdpi="96.000008"
       inkscape:export-ydpi="96.000008">
      <path
         style="fill:#1a1a1a;fill-opacity:1;stroke:none;stroke-width:0.91876107px;stroke-linecap:butt;stroke-linejoin:miter;stroke-opacity:1"
         d="m 421.95405,765.23457 c -12.38299,2.34457 -30.07621,12.83849 -34.75693,22.08852 -4.68072,9.25002 -1.48892,31.1396 12.01875,43.20254 13.50767,12.06293 63.01724,10.06976 63.01724,10.06976 l 4.415,-7.49096 0.41201,5.80258 c 0,0 158.6958,4.49389 171.23171,-3.00784 13.27702,-7.94523 15.38925,-30.08943 15.38925,-30.08943 l -1.76987,-15.45879 -4.30568,0.36791 1.20821,-8.14056 c 0,0 -7.45519,-12.93689 -14.65633,-18.80188 -21.43767,-17.45999 -96.89656,-6.61777 -96.89656,-6.61777 l 0.31488,6.67932 -6.30623,-6.25969 c 0,0 -96.93246,5.31172 -109.31545,7.65629 z"
         id="path2030"
         inkscape:connector-curvature="0"
         sodipodi:nodetypes="zzzcccsccccscccz"
         inkscape:label="default_button" />
      <path
         transform="scale(-1,1)"
         sodipodi:type="star"
         style="opacity:1;vector-effect:none;fill:#fdefba;fill-opacity:1;fill-rule:nonzero;stroke:none;stroke-width:2.95245028;stroke-linecap:round;stroke-linejoin:bevel;stroke-miterlimit:4;stroke-dasharray:none;stroke-dashoffset:0;stroke-opacity:1;paint-order:markers fill stroke"
         id="path2034"
         sodipodi:sides="3"
         sodipodi:cx="-620.98291"
         sodipodi:cy="797.2749"
         sodipodi:r1="15.420596"
         sodipodi:r2="7.7102976"
         sodipodi:arg1="0"
         sodipodi:arg2="1.0471976"
         inkscape:flatsided="true"
         inkscape:rounded="0"
         inkscape:randomized="0"
         d="m -605.56231,797.2749 -23.1309,13.35463 v -26.70926 z"
         inkscape:transform-center-x="13.649948"
         inkscape:transform-center-y="-2.1751043e-06" />
      <path
         inkscape:transform-center-y="-2.1751043e-06"
         inkscape:transform-center-x="-13.64994"
         d="m 432.76743,797.2749 -23.1309,13.35463 v -26.70926 z"
         inkscape:randomized="0"
         inkscape:rounded="0"
         inkscape:flatsided="true"
         sodipodi:arg2="1.0471976"
         sodipodi:arg1="0"
         sodipodi:r2="7.7102976"
         sodipodi:r1="15.420596"
         sodipodi:cy="797.2749"
         sodipodi:cx="417.34683"
         sodipodi:sides="3"
         id="path2036"
         style="opacity:1;vector-effect:none;fill:#fdefba;fill-opacity:1;fill-rule:nonzero;stroke:none;stroke-width:2.95245028;stroke-linecap:round;stroke-linejoin:bevel;stroke-miterlimit:4;stroke-dasharray:none;stroke-dashoffset:0;stroke-opacity:1;paint-order:markers fill stroke"
         sodipodi:type="star" />
    </g>
    <path
       inkscape:label="default_button"
       sodipodi:nodetypes="zzzcccsccccscccz"
       inkscape:connector-curvature="0"
       id="path836"
       d="m 112.52967,414.22135 c -6.91758,1.30976 -16.801658,7.17205 -19.416476,12.33944 -2.614819,5.1674 -0.831764,17.39571 6.714117,24.1345 7.545869,6.73879 35.203699,5.62534 35.203699,5.62534 l 2.46638,-4.18473 0.23017,3.24154 c 0,0 88.6532,2.51045 95.65622,-1.68029 7.41702,-4.43849 8.59699,-16.80905 8.59699,-16.80905 l -0.98872,-8.63583 -2.4053,0.20552 0.67495,-4.5476 c 0,0 -4.16474,-7.22702 -8.18756,-10.50341 -11.97585,-9.75378 -54.12992,-3.69693 -54.12992,-3.69693 l 0.1759,3.73131 -3.52289,-3.49689 c 0,0 -54.14997,2.96732 -61.06756,4.27708 z"
       style="fill:#1a1a1a;fill-opacity:1;stroke:none;stroke-width:0.51325315px;stroke-linecap:butt;stroke-linejoin:miter;stroke-opacity:1"
       inkscape:export-xdpi="96.000008"
       inkscape:export-ydpi="96.000008" />
    <g
       id="g853"
       transform="matrix(0.66666672,0,0,0.66666672,27.83333,316.33982)"
       inkscape:export-xdpi="96"
       inkscape:export-ydpi="96">
      <path
         inkscape:label="panel"
         sodipodi:nodetypes="zzzcccsccccscccz"
         inkscape:connector-curvature="0"
         id="path840"
         d="m 165.69561,818.70571 c -27.67034,4.04762 -67.20664,22.16415 -77.66592,38.13323 -10.45928,15.96908 -3.32705,53.75889 26.85644,74.58413 30.1835,20.82523 80.81482,17.38425 80.81482,17.38425 l 9.86551,-12.93226 0.92067,10.01749 c 0,0 234.61285,7.75817 262.62491,-5.1927 C 498.78012,926.98335 503.5,888.75397 503.5,888.75397 l -3.95486,-26.68777 -9.62122,0.63515 2.69979,-14.05373 c 0,0 -16.65896,-22.33402 -32.75023,-32.45925 C 411.97005,786.04577 303.3538,804.76358 303.3538,804.76358 l 0.70361,11.53106 -14.09157,-10.80662 c 0,0 -96.59989,9.17007 -124.27023,13.21769 z"
         style="fill:#1a1a1a;fill-opacity:1;stroke:none;stroke-width:1.80453634px;stroke-linecap:butt;stroke-linejoin:miter;stroke-opacity:1"
         inkscape:export-xdpi="96"
         inkscape:export-ydpi="96" />
      <path
         style="fill:#1a1a1a;fill-opacity:1;stroke:none;stroke-width:1px;stroke-linecap:butt;stroke-linejoin:miter;stroke-opacity:1"
         d="m 101.6466,866.79958 c 1.29299,-8.75958 -1.675169,-24.62355 -4.958745,-32.92109 -0.838612,-2.11916 0.715645,-6.08511 0.715645,-6.08511 l -2.609066,0.29261 c 0,0 0.488204,-12.1981 -5.69898,-23.33503 17.147336,1.23744 27.513836,10.40439 27.513836,10.40439 l -1.11456,4.34006 c 0,0 4.09672,-2.91522 5.50081,-2.21758 11.40037,5.6644 34.87573,18.84786 34.56795,29.19243 -0.61084,20.53056 -56.549652,38.16538 -53.91689,20.32932 z"
         id="path842"
         inkscape:connector-curvature="0"
         sodipodi:nodetypes="sscccccsss" />
      <path
         sodipodi:nodetypes="sscccccsss"
         inkscape:connector-curvature="0"
         id="path844"
         d="m 146.6115,828.00837 c -1.99821,-2.43445 -6.57325,-11.81706 -7.08055,-14.93989 -0.12958,-0.79756 -1.99078,-1.95748 -1.99078,-1.95748 l 2.03165,-0.4302 c 0,0 -0.30888,0.66378 -0.44278,-3.85017 -4.29064,1.99093 -7.21278,7.82808 -7.21278,7.82808 l 1.79445,1.44685 c 0,0 -2.35641,-0.19258 -2.66042,0.27435 -2.46833,3.79118 -6.70872,12.10745 -4.72362,15.20328 3.93976,6.14419 24.35354,1.38214 20.28483,-3.57482 z"
         style="fill:#1a1a1a;fill-opacity:1;stroke:none;stroke-width:0.35600257px;stroke-linecap:butt;stroke-linejoin:miter;stroke-opacity:1" />
      <path
         sodipodi:nodetypes="sscccccsss"
         inkscape:connector-curvature="0"
         id="path847"
         d="m 113.41528,924.35632 c -3.55057,-0.6712 -10.0681,0.27838 -13.50549,1.48093 -0.8779,0.30712 -2.46952,-0.39182 -2.46952,-0.39182 l 0.0764,1.06868 c 0,0 -4.96592,-0.39955 -9.608827,1.94032 0.786398,-6.97171 4.694717,-11.04812 4.694717,-11.04812 l 1.7514,0.52581 c 0,0 -1.12139,-1.71841 -0.81385,-2.27948 2.4971,-4.55555 8.25865,-13.91126 12.47173,-13.61574 8.36155,0.58649 14.63301,23.6861 7.4034,22.31942 z"
         style="fill:#1a1a1a;fill-opacity:1;stroke:none;stroke-width:0.40809399px;stroke-linecap:butt;stroke-linejoin:miter;stroke-opacity:1" />
    </g>
    <rect
       style="opacity:1;vector-effect:none;fill:url(#linearGradient863);fill-opacity:1;fill-rule:nonzero;stroke:#fdefba;stroke-width:3;stroke-linecap:round;stroke-linejoin:bevel;stroke-miterlimit:4;stroke-dasharray:none;stroke-dashoffset:0;stroke-opacity:0.01731603;paint-order:stroke markers fill"
       id="rect855"
       width="160"
       height="14"
       x="167.27817"
       y="990.22675"
       rx="7"
       ry="7"
       inkscape:export-xdpi="96"
       inkscape:export-ydpi="96" />
    <rect
       inkscape:export-ydpi="96"
       inkscape:export-xdpi="96"
       ry="7"
       rx="7"
       y="960.97675"
       x="167.27817"
       height="14"
       width="160"
       id="rect880"
       style="opacity:1;vector-effect:none;fill:#1a1a1a;fill-opacity:1;fill-rule:nonzero;stroke:#fdefba;stroke-width:3;stroke-linecap:round;stroke-linejoin:bevel;stroke-miterlimit:4;stroke-dasharray:none;stroke-dashoffset:0;stroke-opacity:1;paint-order:stroke markers fill" />
    <rect
       inkscape:export-ydpi="96"
       inkscape:export-xdpi="96"
       ry="7"
       rx="7"
       y="1018.7267"
       x="167.27817"
       height="14"
       width="160"
       id="rect889"
       style="opacity:1;vector-effect:none;fill:url(#linearGradient891);fill-opacity:1;fill-rule:nonzero;stroke:#fdefba;stroke-width:3;stroke-linecap:round;stroke-linejoin:bevel;stroke-miterlimit:4;stroke-dasharray:none;stroke-dashoffset:0;stroke-opacity:0.01731603;paint-order:stroke markers fill" />
    <path
       inkscape:label="line_edit"
       inkscape:export-ydpi="96"
       inkscape:export-xdpi="96"
       style="fill:#1a1a1a;fill-opacity:1;stroke:none;stroke-width:5;stroke-linecap:butt;stroke-linejoin:miter;stroke-miterlimit:4;stroke-dasharray:none;stroke-opacity:1;paint-order:markers fill stroke"
       d="m -78.18496,-867.59156 c -18.306029,14.13063 -37.72414,63.96364 -58.05135,118.16683 -0.28205,7.08922 29.09005,25.8319 28.23496,26.71388 0,0 -41.3375,30.30234 -43.01543,43.82105 -5.03484,40.5645 -1.37123,181.09178 -1.37123,181.09178 l 63.473879,5.49248 -62.411579,10.59839 8.28431,71.88061 26.95771,-3.2924 -24.29869,22.15697 c 0,0 9.43764,62.53586 14.55044,81.15079 28.304765,103.05339 132.0501806,86.02572 132.0501806,86.02572 l 9.2514434,-34.03363 c 6.869672,18.31328 7.5761,22.91821 21.387567,34.62907 l 704.855249,-13.15062 20.63316,18.53414 69.47814,-9.82037 25.10588,-39.16166 c 0,0 31.83251,35.13796 39.76128,34.76391 110.99784,-5.23649 188.88034,-15.00615 195.79694,-31.88054 5.6356,-13.74909 9.4563,-53.61066 11.2573,-76.55517 0.7856,-10.00801 -7.2984,-10.78704 -7.2984,-10.78704 l 16.2029,-5.05271 12.0858,-164.65861 -3.7088,-132.06409 -9.0223,3.14306 2.5317,-69.54475 c 0,0 -4.8899,-33.4703 -11.7203,-71.94093 -0.9475,-5.33647 -87.7995,17.71905 -87.7995,17.71905 0,0 82.9784,-43.90336 82.0104,-48.85207 -4.2137,-21.54104 -8.7786,-42.30882 -13.2023,-57.55025 l -36.6152,-16.20553 -1.8962,-28.56718 c -31,-10.5 -164.53159,-11.76267 -164.53159,-11.76267 l 0.19127,27.09975 -12.74595,-23.51488 c 0,0 -625.32774,30.82808 -859.6801292,52.88077 -1.8576859,0.1748 -9.8174499,25.99393 -9.8174499,25.99393 0,0 2.8470326,-24.18137 1.07339334,-24.0072 -43.73337024,4.29423 -73.76739924,7.28257 -77.98750424,10.54011 z"
       id="path2346"
       inkscape:connector-curvature="0"
       sodipodi:nodetypes="cccsccccccscccccccsssccccccscsccccccscssc" />
  </g>
</svg>
