<?xml version="1.0" encoding="UTF-8" standalone="no"?>
<!-- Created with Inkscape (http://www.inkscape.org/) -->

<svg
   xmlns:dc="http://purl.org/dc/elements/1.1/"
   xmlns:cc="http://creativecommons.org/ns#"
   xmlns:rdf="http://www.w3.org/1999/02/22-rdf-syntax-ns#"
   xmlns:svg="http://www.w3.org/2000/svg"
   xmlns="http://www.w3.org/2000/svg"
   xmlns:xlink="http://www.w3.org/1999/xlink"
   xmlns:sodipodi="http://sodipodi.sourceforge.net/DTD/sodipodi-0.dtd"
   xmlns:inkscape="http://www.inkscape.org/namespaces/inkscape"
   width="1080"
   height="1080"
   viewBox="0 0 1080 1080"
   version="1.1"
   id="svg8"
   sodipodi:docname="default_theme.svg"
   inkscape:version="0.92.3 (2405546, 2018-03-11)">
  <defs
     id="defs2">
    <linearGradient
       id="linearGradient878"
       inkscape:collect="always">
      <stop
         id="stop874"
         offset="0"
         style="stop-color:#00b8d4;stop-opacity:1" />
      <stop
         id="stop876"
         offset="1"
         style="stop-color:#00e5ff;stop-opacity:1" />
    </linearGradient>
    <linearGradient
       inkscape:collect="always"
       id="linearGradient861-3">
      <stop
         style="stop-color:#64dd17;stop-opacity:1"
         offset="0"
         id="stop857" />
      <stop
         style="stop-color:#eeff41;stop-opacity:1"
         offset="1"
         id="stop859" />
    </linearGradient>
    <linearGradient
       inkscape:collect="always"
       xlink:href="#linearGradient861-3"
       id="linearGradient863"
       x1="167.27817"
       y1="884.1557"
       x2="327.27817"
       y2="884.1557"
       gradientUnits="userSpaceOnUse"
       gradientTransform="matrix(1,0,0,2,0,-771.08464)" />
    <linearGradient
       inkscape:collect="always"
       xlink:href="#linearGradient878"
       id="linearGradient891"
       gradientUnits="userSpaceOnUse"
       gradientTransform="matrix(1,0,0,2,0,-742.58464)"
       x1="167.27817"
       y1="884.1557"
       x2="327.27817"
       y2="884.1557" />
  </defs>
  <sodipodi:namedview
     id="base"
     pagecolor="#ffffff"
     bordercolor="#666666"
     borderopacity="1.0"
     inkscape:pageopacity="0.0"
     inkscape:pageshadow="2"
     inkscape:zoom="0.35355339"
     inkscape:cx="-726.83443"
     inkscape:cy="578.66992"
     inkscape:document-units="px"
     inkscape:current-layer="layer1"
     showgrid="false"
     units="px"
     borderlayer="true"
     inkscape:window-width="1366"
     inkscape:window-height="717"
     inkscape:window-x="0"
     inkscape:window-y="25"
     inkscape:window-maximized="1"
     showborder="false"
     inkscape:snap-bbox="true"
     inkscape:bbox-nodes="true"
     inkscape:bbox-paths="true"
     inkscape:object-paths="true"
     inkscape:snap-global="true"
     inkscape:snap-intersection-paths="true" />
  <metadata
     id="metadata5">
    <rdf:RDF>
      <cc:Work
         rdf:about="">
        <dc:format>image/svg+xml</dc:format>
        <dc:type
           rdf:resource="http://purl.org/dc/dcmitype/StillImage" />
        <dc:title />
      </cc:Work>
    </rdf:RDF>
  </metadata>
  <g
     inkscape:label="Layer 1"
     inkscape:groupmode="layer"
     id="layer1"
     transform="translate(0,-42.519653)">
    <path
       style="opacity:1;vector-effect:none;fill:#fdefba;fill-opacity:1;stroke:none;stroke-width:7;stroke-linecap:round;stroke-linejoin:miter;stroke-miterlimit:4;stroke-dasharray:none;stroke-dashoffset:0;stroke-opacity:1;paint-order:fill markers stroke"
       d="M 765.5,73 A 36.5,36.5 0 0 0 729,109.5 36.5,36.5 0 0 0 765.5,146 36.5,36.5 0 0 0 802,109.5 36.5,36.5 0 0 0 765.5,73 Z M 751.71094,93.589844 765.5,107.37891 l 13.78906,-13.789066 2.1211,2.121094 -13.78907,13.789062 13.78907,13.78906 -2.1211,2.1211 -13.78906,-13.78907 -13.78906,13.78907 -2.1211,-2.1211 L 763.37891,109.5 749.58984,95.710938 Z"
       transform="translate(0,42.519653)"
       id="path816"
       inkscape:connector-curvature="0"
       inkscape:label="clear_button"
       inkscape:export-xdpi="96"
       inkscape:export-ydpi="96" />
    <path
       style="opacity:1;vector-effect:none;fill:#fdefba;fill-opacity:1;stroke:none;stroke-width:7;stroke-linecap:round;stroke-linejoin:miter;stroke-miterlimit:4;stroke-dasharray:none;stroke-dashoffset:0;stroke-opacity:1;paint-order:fill markers stroke"
       d="m 765.5,187 c -20.15839,0 -36.5,16.34161 -36.5,36.5 0,20.15839 16.34161,36.5 36.5,36.5 20.15839,0 36.5,-16.34161 36.5,-36.5 0,-20.15839 -16.34161,-36.5 -36.5,-36.5 z m -7.07031,20.23633 1.06054,1.06055 13.08008,13.08203 0.13867,0.13867 0.92188,0.92187 1.0625,1.06055 -1.0625,1.06055 -0.92188,0.92187 -0.13867,0.13867 -13.08008,13.08203 -1.06054,1.06055 -2.12305,-2.12109 1.0625,-1.06055 13.08008,-13.08203 -13.08008,-13.08203 -1.0625,-1.06055 z"
       id="path826"
       inkscape:connector-curvature="0"
       inkscape:label="enter_button_hover"
       inkscape:export-xdpi="96"
       inkscape:export-ydpi="96"
       transform="translate(0,42.519653)" />
    <path
       style="opacity:1;vector-effect:none;fill:#fdefba;fill-opacity:1;stroke:none;stroke-width:7;stroke-linecap:round;stroke-linejoin:miter;stroke-miterlimit:4;stroke-dasharray:none;stroke-dashoffset:0;stroke-opacity:1;paint-order:fill markers stroke"
       d="m 868.25586,187 c -2.51772,0 -4.97664,0.25555 -7.35156,0.74219 -1.18623,0.24306 -2.35078,0.54511 -3.49219,0.90039 -11.42843,3.55726 -20.45641,12.58525 -24.01367,24.01367 -0.35528,1.14141 -0.65733,2.30596 -0.90039,3.49219 -2.6e-4,0.001 2.5e-4,0.003 0,0.004 -0.24294,1.18626 -0.42814,2.3942 -0.55274,3.61914 -6e-5,6.5e-4 7e-5,0.001 0,0.002 -0.0623,0.61248 -0.11104,1.2286 -0.14258,1.84961 -0.0317,0.62194 -0.0469,1.24727 -0.0469,1.87695 0,0.62902 0.0153,1.2537 0.0469,1.875 4e-5,6.5e-4 -3e-5,0.001 0,0.002 0.0316,0.62064 0.0802,1.23745 0.14258,1.84961 7e-5,6.5e-4 -6e-5,10e-4 0,0.002 0.1246,1.22494 0.3098,2.43288 0.55274,3.61914 2.5e-4,0.001 -2.6e-4,0.003 0,0.004 0.24306,1.18623 0.54511,2.35078 0.90039,3.49219 3.91254,12.56984 14.44253,22.23732 27.50586,24.91406 10e-4,2.6e-4 0.003,-2.5e-4 0.004,0 0.59251,0.12134 1.19044,0.22811 1.79297,0.32031 10e-4,2e-4 0.003,-1.9e-4 0.004,0 0.60255,0.0921 1.21044,0.17019 1.82226,0.23243 6.5e-4,6e-5 0.001,-7e-5 0.002,0 0.61248,0.0623 1.2286,0.11104 1.84961,0.14257 0.62194,0.0317 1.24727,0.0469 1.87695,0.0469 2.51742,0 4.97636,-0.25472 7.35156,-0.74219 13.06333,-2.67674 23.59332,-12.34422 27.50586,-24.91406 0.35528,-1.14141 0.65733,-2.30596 0.90039,-3.49219 2.6e-4,-0.001 -2.5e-4,-0.003 0,-0.004 0.12149,-0.59226 0.22799,-1.19072 0.32031,-1.79297 2e-4,-10e-4 -1.9e-4,-0.003 0,-0.004 0.0924,-0.60291 0.17005,-1.21011 0.23243,-1.82226 6e-5,-6.5e-4 -7e-5,-0.001 0,-0.002 0.0623,-0.61216 0.11098,-1.22897 0.14257,-1.84961 4e-5,-6.4e-4 -3e-5,-0.001 0,-0.002 0.0316,-0.6213 0.0469,-1.24598 0.0469,-1.875 0,-0.62968 -0.0152,-1.25501 -0.0469,-1.87695 -0.0315,-0.62101 -0.0803,-1.23713 -0.14257,-1.84961 -7e-5,-6.5e-4 6e-5,-10e-4 0,-0.002 -0.0623,-0.61247 -0.14016,-1.22103 -0.23243,-1.82421 -9e-5,-6.4e-4 10e-5,-0.001 0,-0.002 -0.0922,-0.60253 -0.19897,-1.20046 -0.32031,-1.79297 -2.5e-4,-0.001 2.6e-4,-0.003 0,-0.004 -0.24306,-1.18623 -0.54511,-2.35078 -0.90039,-3.49219 -3.55726,-11.42842 -12.58524,-20.45641 -24.01367,-24.01367 -1.14141,-0.35528 -2.30597,-0.65733 -3.49219,-0.90039 -0.001,-2.6e-4 -0.003,2.5e-4 -0.004,0 -0.59226,-0.12149 -1.19072,-0.22799 -1.79297,-0.32031 -0.001,-2e-4 -0.003,1.9e-4 -0.004,0 -0.60291,-0.0924 -1.21011,-0.17005 -1.82226,-0.23243 -6.5e-4,-6e-5 -10e-4,7e-5 -0.002,0 -0.61216,-0.0623 -1.22897,-0.11099 -1.84961,-0.14257 -6.4e-4,-4e-5 -10e-4,3e-5 -0.002,0 -0.6213,-0.0316 -1.24598,-0.0469 -1.875,-0.0469 z m 0,5 c 17.42659,0 31.5,14.07342 31.5,31.5 0,17.42658 -14.07341,31.5 -31.5,31.5 -17.42659,0 -31.5,-14.07342 -31.5,-31.5 0,-17.42658 14.07341,-31.5 31.5,-31.5 z m -7.07031,15.23633 -2.12305,2.12109 1.0625,1.06055 13.08008,13.08203 -13.08008,13.08203 -1.0625,1.06055 2.12305,2.12109 1.06054,-1.06055 13.08008,-13.08203 0.13867,-0.13867 0.92188,-0.92187 1.0625,-1.06055 -1.0625,-1.06055 -0.92188,-0.92187 -0.13867,-0.13867 -13.08008,-13.08203 z"
       transform="translate(0,42.519653)"
       id="path846"
       inkscape:connector-curvature="0"
       inkscape:label="enter_button_normal"
       inkscape:export-xdpi="96"
       inkscape:export-ydpi="96" />
    <path
       style="fill:#1a1a1a;fill-opacity:1;stroke:none;stroke-width:0.77330142px;stroke-linecap:butt;stroke-linejoin:miter;stroke-opacity:1"
       d="m 404.25916,333.10572 c -10.42249,1.97338 -25.3145,10.80589 -29.25416,18.59143 -3.93966,7.78555 -1.25319,26.20954 10.11593,36.36265 11.36911,10.15311 53.04025,8.4755 53.04025,8.4755 l 3.716,-6.30498 0.34679,4.88392 c 0,0 133.57084,3.78241 144.12205,-2.53165 11.17498,-6.68732 12.9528,-25.32563 12.9528,-25.32563 l -1.48967,-13.01132 -3.62399,0.30966 1.01692,-6.85173 c 0,0 -6.27487,-10.88871 -12.33592,-15.82514 -18.04362,-14.69569 -81.55574,-5.57003 -81.55574,-5.57003 l 0.26502,5.62184 -5.30782,-5.26865 c 0,0 -81.58596,4.47076 -92.00846,6.44413 z"
       id="path830-3"
       inkscape:connector-curvature="0"
       sodipodi:nodetypes="zzzcccsccccscccz"
       inkscape:label="default_button" />
    <path
       sodipodi:nodetypes="zzzcccsccccscccz"
       inkscape:connector-curvature="0"
       id="path1397"
       d="m -109.44656,103.3286 c -17.444,3.30281 -42.36857,18.08566 -48.96234,31.11624 -6.59376,13.03057 -2.09744,43.86659 16.93091,60.85973 19.02836,16.99313 88.772815,14.18533 88.772815,14.18533 l 6.21943,-10.55257 0.58042,8.17415 c 0,0 705.802705,6.33058 723.462135,-4.23717 18.70342,-11.19249 21.67894,-42.3872 21.67894,-42.3872 l -2.49323,-21.77689 -6.06544,0.51828 1.70201,-11.46768 c 0,0 -10.50218,-18.22428 -20.64648,-26.48635 -30.1994,-24.595988 -136.49885,-9.322481 -136.49885,-9.322481 l 0.44356,9.409201 -8.88364,-8.818071 c 0,0 -618.796235,7.482671 -636.24024,10.785481 z"
       style="fill:#1a1a1a;fill-opacity:1;stroke:none;stroke-width:5;stroke-linecap:butt;stroke-linejoin:miter;stroke-miterlimit:4;stroke-dasharray:none;stroke-opacity:1;paint-order:markers fill stroke"
       inkscape:export-xdpi="96"
       inkscape:export-ydpi="96"
       inkscape:label="line_edit" />
    <path
       inkscape:label="panel"
       sodipodi:nodetypes="zzzcccsccccscccz"
       inkscape:connector-curvature="0"
       id="path1401"
       d="m 165.69561,522.70571 c -27.67034,4.04762 -67.20664,22.16415 -77.66592,38.13323 -10.45928,15.96908 -3.32705,53.75889 26.85644,74.58413 30.1835,20.82523 140.81482,17.38425 140.81482,17.38425 l 9.86551,-12.93226 0.92067,10.01749 c 0,0 354.61285,7.75817 382.62491,-5.1927 C 678.78012,630.98335 683.5,592.75397 683.5,592.75397 l -3.95486,-26.68777 -9.62122,0.63515 2.69979,-14.05373 c 0,0 -16.65896,-22.33402 -32.75023,-32.45925 C 591.97005,490.04577 423.3538,508.76358 423.3538,508.76358 l 0.70361,11.53106 -14.09157,-10.80662 c 0,0 -216.59989,9.17007 -244.27023,13.21769 z"
       style="fill:#1a1a1a;fill-opacity:1;stroke:none;stroke-width:1.80453634px;stroke-linecap:butt;stroke-linejoin:miter;stroke-opacity:1"
       inkscape:export-xdpi="96"
       inkscape:export-ydpi="96" />
    <g
       transform="matrix(0.63214305,0,0,-0.63214305,206.64796,978.76444)"
       id="g1988">
      <path
         style="opacity:1;vector-effect:none;fill:#1a1a1a;fill-opacity:1;stroke:none;stroke-width:4.36301374;stroke-linecap:round;stroke-linejoin:miter;stroke-miterlimit:4;stroke-dasharray:none;stroke-dashoffset:0;stroke-opacity:1;paint-order:fill markers stroke"
         d="m 697.25,551.05663 c 0,12.56448 10.18552,22.75 22.75,22.75 12.56448,0 22.75,-10.18552 22.75,-22.75 0,-12.56448 -10.18552,-22.75 -22.75,-22.75 -12.56448,0 -22.75,10.18552 -22.75,22.75 z"
         id="path1984"
         inkscape:connector-curvature="0" />
      <path
         style="opacity:1;vector-effect:none;fill:#fdefba;fill-opacity:1;stroke:#fdefba;stroke-width:2.5782249;stroke-linecap:round;stroke-linejoin:miter;stroke-miterlimit:4;stroke-dasharray:none;stroke-dashoffset:0;stroke-opacity:1;paint-order:fill markers stroke"
         d="m 706.02287,557.13288 0.91144,-0.91144 11.24281,-11.24113 0.11917,-0.11917 0.79226,-0.79227 0.91145,-0.91312 0.91145,0.91312 0.79226,0.79227 0.11917,0.11917 11.24281,11.24113 0.91144,0.91144 -1.82288,1.82457 -0.91144,-0.91313 L 720,546.8032 l -11.24281,11.24112 -0.91144,0.91313 z"
         id="path1986"
         inkscape:connector-curvature="0" />
    </g>
    <g
       id="g2022"
       transform="matrix(0.63214305,0,0,0.63214305,206.64796,186.25823)">
      <path
         inkscape:connector-curvature="0"
         id="path2018"
         d="m 697.25,551.05663 c 0,12.56448 10.18552,22.75 22.75,22.75 12.56448,0 22.75,-10.18552 22.75,-22.75 0,-12.56448 -10.18552,-22.75 -22.75,-22.75 -12.56448,0 -22.75,10.18552 -22.75,22.75 z"
         style="opacity:1;vector-effect:none;fill:#1a1a1a;fill-opacity:1;stroke:none;stroke-width:4.36301374;stroke-linecap:round;stroke-linejoin:miter;stroke-miterlimit:4;stroke-dasharray:none;stroke-dashoffset:0;stroke-opacity:1;paint-order:fill markers stroke" />
      <path
         inkscape:connector-curvature="0"
         id="path2020"
         d="m 706.02287,557.13288 0.91144,-0.91144 11.24281,-11.24113 0.11917,-0.11917 0.79226,-0.79227 0.91145,-0.91312 0.91145,0.91312 0.79226,0.79227 0.11917,0.11917 11.24281,11.24113 0.91144,0.91144 -1.82288,1.82457 -0.91144,-0.91313 L 720,546.8032 l -11.24281,11.24112 -0.91144,0.91313 z"
         style="opacity:1;vector-effect:none;fill:#fdefba;fill-opacity:1;stroke:#fdefba;stroke-width:2.57853031;stroke-linecap:round;stroke-linejoin:miter;stroke-miterlimit:4;stroke-dasharray:none;stroke-dashoffset:0;stroke-opacity:1;paint-order:fill markers stroke" />
    </g>
    <path
       style="fill:#1a1a1a;fill-opacity:1;stroke:none;stroke-width:1px;stroke-linecap:butt;stroke-linejoin:miter;stroke-opacity:1"
       d="m 101.6466,570.79958 c 1.29299,-8.75958 -1.675169,-24.62355 -4.958745,-32.92109 -0.838612,-2.11916 0.715645,-6.08511 0.715645,-6.08511 l -2.609066,0.29261 c 0,0 0.488204,-12.1981 -5.69898,-23.33503 17.147336,1.23744 27.513836,10.40439 27.513836,10.40439 l -1.11456,4.34006 c 0,0 4.09672,-2.91522 5.50081,-2.21758 11.40037,5.6644 34.87573,18.84786 34.56795,29.19243 -0.61084,20.53056 -56.549652,38.16538 -53.91689,20.32932 z"
       id="path2024"
       inkscape:connector-curvature="0"
       sodipodi:nodetypes="sscccccsss" />
    <path
       sodipodi:nodetypes="sscccccsss"
       inkscape:connector-curvature="0"
       id="path2026"
       d="m 146.6115,532.00837 c -1.99821,-2.43445 -6.57325,-11.81706 -7.08055,-14.93989 -0.12958,-0.79756 -1.99078,-1.95748 -1.99078,-1.95748 l 2.03165,-0.4302 c 0,0 -0.30888,0.66378 -0.44278,-3.85017 -4.29064,1.99093 -7.21278,7.82808 -7.21278,7.82808 l 1.79445,1.44685 c 0,0 -2.35641,-0.19258 -2.66042,0.27435 -2.46833,3.79118 -6.70872,12.10745 -4.72362,15.20328 3.93976,6.14419 24.35354,1.38214 20.28483,-3.57482 z"
       style="fill:#1a1a1a;fill-opacity:1;stroke:none;stroke-width:0.35600257px;stroke-linecap:butt;stroke-linejoin:miter;stroke-opacity:1" />
    <path
       sodipodi:nodetypes="sscccccsss"
       inkscape:connector-curvature="0"
       id="path2028"
       d="m 113.41528,628.35632 c -3.55057,-0.6712 -10.0681,0.27838 -13.50549,1.48093 -0.8779,0.30712 -2.46952,-0.39182 -2.46952,-0.39182 l 0.0764,1.06868 c 0,0 -4.96592,-0.39955 -9.608827,1.94032 0.786398,-6.97171 4.694717,-11.04812 4.694717,-11.04812 l 1.7514,0.52581 c 0,0 -1.12139,-1.71841 -0.81385,-2.27948 2.4971,-4.55555 8.25865,-13.91126 12.47173,-13.61574 8.36155,0.58649 14.63301,23.6861 7.4034,22.31942 z"
       style="fill:#1a1a1a;fill-opacity:1;stroke:none;stroke-width:0.40809399px;stroke-linecap:butt;stroke-linejoin:miter;stroke-opacity:1" />
    <g
       id="g2049"
       transform="matrix(0.55863604,0,0,0.55863604,-126.37104,-73.016776)"
       inkscape:export-xdpi="96.000008"
       inkscape:export-ydpi="96.000008">
      <path
         style="fill:#1a1a1a;fill-opacity:1;stroke:none;stroke-width:0.91876107px;stroke-linecap:butt;stroke-linejoin:miter;stroke-opacity:1"
         d="m 421.95405,765.23457 c -12.38299,2.34457 -30.07621,12.83849 -34.75693,22.08852 -4.68072,9.25002 -1.48892,31.1396 12.01875,43.20254 13.50767,12.06293 63.01724,10.06976 63.01724,10.06976 l 4.415,-7.49096 0.41201,5.80258 c 0,0 158.6958,4.49389 171.23171,-3.00784 13.27702,-7.94523 15.38925,-30.08943 15.38925,-30.08943 l -1.76987,-15.45879 -4.30568,0.36791 1.20821,-8.14056 c 0,0 -7.45519,-12.93689 -14.65633,-18.80188 -21.43767,-17.45999 -96.89656,-6.61777 -96.89656,-6.61777 l 0.31488,6.67932 -6.30623,-6.25969 c 0,0 -96.93246,5.31172 -109.31545,7.65629 z"
         id="path2030"
         inkscape:connector-curvature="0"
         sodipodi:nodetypes="zzzcccsccccscccz"
         inkscape:label="default_button" />
      <path
         transform="scale(-1,1)"
         sodipodi:type="star"
         style="opacity:1;vector-effect:none;fill:#fdefba;fill-opacity:1;fill-rule:nonzero;stroke:none;stroke-width:2.95245028;stroke-linecap:round;stroke-linejoin:bevel;stroke-miterlimit:4;stroke-dasharray:none;stroke-dashoffset:0;stroke-opacity:1;paint-order:markers fill stroke"
         id="path2034"
         sodipodi:sides="3"
         sodipodi:cx="-620.98291"
         sodipodi:cy="797.2749"
         sodipodi:r1="15.420596"
         sodipodi:r2="7.7102976"
         sodipodi:arg1="0"
         sodipodi:arg2="1.0471976"
         inkscape:flatsided="true"
         inkscape:rounded="0"
         inkscape:randomized="0"
         d="m -605.56231,797.2749 -23.1309,13.35463 v -26.70926 z"
         inkscape:transform-center-x="13.649948"
         inkscape:transform-center-y="-2.1751043e-06" />
      <path
         inkscape:transform-center-y="-2.1751043e-06"
         inkscape:transform-center-x="-13.64994"
         d="m 432.76743,797.2749 -23.1309,13.35463 v -26.70926 z"
         inkscape:randomized="0"
         inkscape:rounded="0"
         inkscape:flatsided="true"
         sodipodi:arg2="1.0471976"
         sodipodi:arg1="0"
         sodipodi:r2="7.7102976"
         sodipodi:r1="15.420596"
         sodipodi:cy="797.2749"
         sodipodi:cx="417.34683"
         sodipodi:sides="3"
         id="path2036"
         style="opacity:1;vector-effect:none;fill:#fdefba;fill-opacity:1;fill-rule:nonzero;stroke:none;stroke-width:2.95245028;stroke-linecap:round;stroke-linejoin:bevel;stroke-miterlimit:4;stroke-dasharray:none;stroke-dashoffset:0;stroke-opacity:1;paint-order:markers fill stroke"
         sodipodi:type="star" />
    </g>
    <path
       inkscape:label="default_button"
       sodipodi:nodetypes="zzzcccsccccscccz"
       inkscape:connector-curvature="0"
       id="path836"
       d="m 112.52967,414.22135 c -6.91758,1.30976 -16.801658,7.17205 -19.416476,12.33944 -2.614819,5.1674 -0.831764,17.39571 6.714117,24.1345 7.545869,6.73879 35.203699,5.62534 35.203699,5.62534 l 2.46638,-4.18473 0.23017,3.24154 c 0,0 88.6532,2.51045 95.65622,-1.68029 7.41702,-4.43849 8.59699,-16.80905 8.59699,-16.80905 l -0.98872,-8.63583 -2.4053,0.20552 0.67495,-4.5476 c 0,0 -4.16474,-7.22702 -8.18756,-10.50341 -11.97585,-9.75378 -54.12992,-3.69693 -54.12992,-3.69693 l 0.1759,3.73131 -3.52289,-3.49689 c 0,0 -54.14997,2.96732 -61.06756,4.27708 z"
       style="fill:#1a1a1a;fill-opacity:1;stroke:none;stroke-width:0.51325315px;stroke-linecap:butt;stroke-linejoin:miter;stroke-opacity:1"
       inkscape:export-xdpi="96.000008"
       inkscape:export-ydpi="96.000008" />
    <g
       id="g853"
       transform="matrix(0.66666672,0,0,0.66666672,27.83333,316.33982)"
       inkscape:export-xdpi="96"
       inkscape:export-ydpi="96">
      <path
         inkscape:label="panel"
         sodipodi:nodetypes="zzzcccsccccscccz"
         inkscape:connector-curvature="0"
         id="path840"
         d="m 165.69561,818.70571 c -27.67034,4.04762 -67.20664,22.16415 -77.66592,38.13323 -10.45928,15.96908 -3.32705,53.75889 26.85644,74.58413 30.1835,20.82523 80.81482,17.38425 80.81482,17.38425 l 9.86551,-12.93226 0.92067,10.01749 c 0,0 234.61285,7.75817 262.62491,-5.1927 C 498.78012,926.98335 503.5,888.75397 503.5,888.75397 l -3.95486,-26.68777 -9.62122,0.63515 2.69979,-14.05373 c 0,0 -16.65896,-22.33402 -32.75023,-32.45925 C 411.97005,786.04577 303.3538,804.76358 303.3538,804.76358 l 0.70361,11.53106 -14.09157,-10.80662 c 0,0 -96.59989,9.17007 -124.27023,13.21769 z"
         style="fill:#1a1a1a;fill-opacity:1;stroke:none;stroke-width:1.80453634px;stroke-linecap:butt;stroke-linejoin:miter;stroke-opacity:1"
         inkscape:export-xdpi="96"
         inkscape:export-ydpi="96" />
      <path
         style="fill:#1a1a1a;fill-opacity:1;stroke:none;stroke-width:1px;stroke-linecap:butt;stroke-linejoin:miter;stroke-opacity:1"
         d="m 101.6466,866.79958 c 1.29299,-8.75958 -1.675169,-24.62355 -4.958745,-32.92109 -0.838612,-2.11916 0.715645,-6.08511 0.715645,-6.08511 l -2.609066,0.29261 c 0,0 0.488204,-12.1981 -5.69898,-23.33503 17.147336,1.23744 27.513836,10.40439 27.513836,10.40439 l -1.11456,4.34006 c 0,0 4.09672,-2.91522 5.50081,-2.21758 11.40037,5.6644 34.87573,18.84786 34.56795,29.19243 -0.61084,20.53056 -56.549652,38.16538 -53.91689,20.32932 z"
         id="path842"
         inkscape:connector-curvature="0"
         sodipodi:nodetypes="sscccccsss" />
      <path
         sodipodi:nodetypes="sscccccsss"
         inkscape:connector-curvature="0"
         id="path844"
         d="m 146.6115,828.00837 c -1.99821,-2.43445 -6.57325,-11.81706 -7.08055,-14.93989 -0.12958,-0.79756 -1.99078,-1.95748 -1.99078,-1.95748 l 2.03165,-0.4302 c 0,0 -0.30888,0.66378 -0.44278,-3.85017 -4.29064,1.99093 -7.21278,7.82808 -7.21278,7.82808 l 1.79445,1.44685 c 0,0 -2.35641,-0.19258 -2.66042,0.27435 -2.46833,3.79118 -6.70872,12.10745 -4.72362,15.20328 3.93976,6.14419 24.35354,1.38214 20.28483,-3.57482 z"
         style="fill:#1a1a1a;fill-opacity:1;stroke:none;stroke-width:0.35600257px;stroke-linecap:butt;stroke-linejoin:miter;stroke-opacity:1" />
      <path
         sodipodi:nodetypes="sscccccsss"
         inkscape:connector-curvature="0"
         id="path847"
         d="m 113.41528,924.35632 c -3.55057,-0.6712 -10.0681,0.27838 -13.50549,1.48093 -0.8779,0.30712 -2.46952,-0.39182 -2.46952,-0.39182 l 0.0764,1.06868 c 0,0 -4.96592,-0.39955 -9.608827,1.94032 0.786398,-6.97171 4.694717,-11.04812 4.694717,-11.04812 l 1.7514,0.52581 c 0,0 -1.12139,-1.71841 -0.81385,-2.27948 2.4971,-4.55555 8.25865,-13.91126 12.47173,-13.61574 8.36155,0.58649 14.63301,23.6861 7.4034,22.31942 z"
         style="fill:#1a1a1a;fill-opacity:1;stroke:none;stroke-width:0.40809399px;stroke-linecap:butt;stroke-linejoin:miter;stroke-opacity:1" />
    </g>
    <rect
       style="opacity:1;vector-effect:none;fill:url(#linearGradient863);fill-opacity:1;fill-rule:nonzero;stroke:#fdefba;stroke-width:3;stroke-linecap:round;stroke-linejoin:bevel;stroke-miterlimit:4;stroke-dasharray:none;stroke-dashoffset:0;stroke-opacity:0.01731603;paint-order:stroke markers fill"
       id="rect855"
       width="160"
       height="14"
       x="167.27817"
       y="990.22675"
       rx="7"
       ry="7"
       inkscape:export-xdpi="96"
       inkscape:export-ydpi="96" />
    <rect
       inkscape:export-ydpi="96"
       inkscape:export-xdpi="96"
       ry="7"
       rx="7"
       y="960.97675"
       x="167.27817"
       height="14"
       width="160"
       id="rect880"
       style="opacity:1;vector-effect:none;fill:#1a1a1a;fill-opacity:1;fill-rule:nonzero;stroke:#fdefba;stroke-width:3;stroke-linecap:round;stroke-linejoin:bevel;stroke-miterlimit:4;stroke-dasharray:none;stroke-dashoffset:0;stroke-opacity:1;paint-order:stroke markers fill" />
    <rect
       inkscape:export-ydpi="96"
       inkscape:export-xdpi="96"
       ry="7"
       rx="7"
       y="1018.7267"
       x="167.27817"
       height="14"
       width="160"
       id="rect889"
       style="opacity:1;vector-effect:none;fill:url(#linearGradient891);fill-opacity:1;fill-rule:nonzero;stroke:#fdefba;stroke-width:3;stroke-linecap:round;stroke-linejoin:bevel;stroke-miterlimit:4;stroke-dasharray:none;stroke-dashoffset:0;stroke-opacity:0.01731603;paint-order:stroke markers fill" />
    <path
       inkscape:label="line_edit"
       inkscape:export-ydpi="96"
       inkscape:export-xdpi="96"
       style="fill:#1a1a1a;fill-opacity:1;stroke:none;stroke-width:5;stroke-linecap:butt;stroke-linejoin:miter;stroke-miterlimit:4;stroke-dasharray:none;stroke-opacity:1;paint-order:markers fill stroke"
       d="m -78.18496,-867.59156 c -18.306029,14.13063 -37.72414,63.96364 -58.05135,118.16683 -0.28205,7.08922 29.09005,25.8319 28.23496,26.71388 0,0 -41.3375,30.30234 -43.01543,43.82105 -5.03484,40.5645 -1.37123,181.09178 -1.37123,181.09178 l 63.473879,5.49248 -62.411579,10.59839 8.28431,71.88061 26.95771,-3.2924 -24.29869,22.15697 c 0,0 9.43764,62.53586 14.55044,81.15079 28.304765,103.05339 132.0501806,86.02572 132.0501806,86.02572 l 9.2514434,-34.03363 c 6.869672,18.31328 7.5761,22.91821 21.387567,34.62907 l 704.855249,-13.15062 20.63316,18.53414 69.47814,-9.82037 25.10588,-39.16166 c 0,0 31.83251,35.13796 39.76128,34.76391 110.99784,-5.23649 188.88034,-15.00615 195.79694,-31.88054 5.6356,-13.74909 9.4563,-53.61066 11.2573,-76.55517 0.7856,-10.00801 -7.2984,-10.78704 -7.2984,-10.78704 l 16.2029,-5.05271 12.0858,-164.65861 -3.7088,-132.06409 -9.0223,3.14306 2.5317,-69.54475 c 0,0 -4.8899,-33.4703 -11.7203,-71.94093 -0.9475,-5.33647 -87.7995,17.71905 -87.7995,17.71905 0,0 82.9784,-43.90336 82.0104,-48.85207 -4.2137,-21.54104 -8.7786,-42.30882 -13.2023,-57.55025 l -36.6152,-16.20553 -1.8962,-28.56718 c -31,-10.5 -164.53159,-11.76267 -164.53159,-11.76267 l 0.19127,27.09975 -12.74595,-23.51488 c 0,0 -625.32774,30.82808 -859.6801292,52.88077 -1.8576859,0.1748 -9.8174499,25.99393 -9.8174499,25.99393 0,0 2.8470326,-24.18137 1.07339334,-24.0072 -43.73337024,4.29423 -73.76739924,7.28257 -77.98750424,10.54011 z"
       id="path2346"
       inkscape:connector-curvature="0"
       sodipodi:nodetypes="cccsccccccscccccccsssccccccscsccccccscssc" />
    <g
       transform="translate(-1315.1543,-143.5461)"
       id="g1671"
       inkscape:export-xdpi="96"
       inkscape:export-ydpi="96">
      <path
         sodipodi:nodetypes="sscccccsss"
         inkscape:connector-curvature="0"
         id="path1597"
         d="m 724.7705,662.75299 c -15.11752,-7.97301 -36.58652,-30.96474 -45.88911,-45.77866 -2.37585,-3.78341 -10.29867,-5.83272 -10.29867,-5.83272 l 3.36066,-3.86646 c 0,0 -19.59129,-13.21645 -30.09618,-35.96661 -17.15164,29.03923 -14.37428,56.25944 -14.37428,56.25944 l 8.01765,3.18699 c 0,0 -9.11166,3.25193 -9.58494,6.31431 -3.84268,24.86468 -9.38273,77.80968 7.11337,89.18899 32.73931,22.5842 122.5335,-47.2709 91.7515,-63.50528 z"
         style="fill:#1a1a1a;fill-opacity:1;stroke:none;stroke-width:1.94749582px;stroke-linecap:butt;stroke-linejoin:miter;stroke-opacity:1" />
      <path
         sodipodi:nodetypes="sscccccsss"
         inkscape:connector-curvature="0"
         id="path1599"
         d="m 629.87388,640.69739 c -5.3548,-6.52384 -17.615,-31.66737 -18.97446,-40.03593 -0.34725,-2.1373 -5.33489,-5.24565 -5.33489,-5.24565 l 5.44441,-1.15285 c 0,0 -0.82773,1.7788 -1.18656,-10.31769 -11.49806,5.3353 -19.32881,20.97769 -19.32881,20.97769 l 4.80877,3.87727 c 0,0 -6.31471,-0.51607 -7.1294,0.73521 -6.61463,10.1596 -17.97803,32.44554 -12.65835,40.74175 10.55777,16.4652 65.26262,3.70386 54.35929,-9.5798 z"
         style="fill:#1a1a1a;fill-opacity:1;stroke:none;stroke-width:0.95401579px;stroke-linecap:butt;stroke-linejoin:miter;stroke-opacity:1" />
      <path
         style="fill:#1a1a1a;fill-opacity:1;stroke:none;stroke-width:0.79277956px;stroke-linecap:butt;stroke-linejoin:miter;stroke-opacity:1"
         d="m 559.66858,655.19468 c 1.10621,-7.12354 -0.48554,-30.99145 -2.91712,-37.7704 -0.62098,-1.73134 1.60881,-6.16852 1.60881,-6.16852 l -4.27097,1.47734 c 0,0 1.29731,0.9628 -3.34006,-8.14825 10.19198,-0.9721 21.98594,7.25834 21.98594,7.25834 l -1.79406,4.92998 c 0,0 4.20482,-3.08578 5.27984,-2.50801 8.72844,4.69112 25.676,16.3286 25.31054,24.74954 -0.7253,16.71273 -44.11538,30.68474 -41.86292,16.17998 z"
         id="path1601"
         inkscape:connector-curvature="0"
         sodipodi:nodetypes="sscccccsss" />
      <path
         style="fill:#1a1a1a;fill-opacity:1;stroke:none;stroke-width:1.94749582px;stroke-linecap:butt;stroke-linejoin:miter;stroke-opacity:1"
         d="m 707.59791,757.45437 c -15.11752,7.97301 -36.58652,30.96474 -45.88911,45.77866 -2.37585,3.78341 -10.29867,5.83272 -10.29867,5.83272 l 3.36066,3.86646 c 0,0 -19.59129,13.21645 -30.09618,35.96661 -17.15164,-29.03923 -14.37428,-56.25944 -14.37428,-56.25944 l 8.01765,-3.18699 c 0,0 -9.11166,-3.25193 -9.58494,-6.31431 -3.84268,-24.86468 -9.38273,-77.80968 7.11337,-89.18899 32.73931,-22.5842 122.5335,47.2709 91.7515,63.50528 z"
         id="path1557"
         inkscape:connector-curvature="0"
         sodipodi:nodetypes="sscccccsss" />
      <path
         style="fill:#1a1a1a;fill-opacity:1;stroke:none;stroke-width:2.67980027px;stroke-linecap:butt;stroke-linejoin:miter;stroke-opacity:1"
         d="m 832.09384,638.16352 c 23.68649,-1.40744 63.67459,-17.88508 83.64165,-31.04463 5.09951,-3.36088 16.35452,-1.45663 16.35452,-1.45663 l -2.19703,-6.68378 c 0,0 32.26548,-5.40245 58.08993,-27.73438 6.1487,45.6588 -12.21837,77.87456 -12.21837,77.87456 l -11.99548,-0.54587 c 0,0 9.89171,9.1493 8.83094,13.21473 -8.61277,33.00882 -30.33385,101.81226 -57.63831,106.67249 -54.19034,9.64597 -131.09777,-127.43068 -82.86785,-130.29649 z"
         id="path1519"
         inkscape:connector-curvature="0"
         sodipodi:nodetypes="sscccccsss" />
      <path
         sodipodi:nodetypes="sscccccsss"
         inkscape:connector-curvature="0"
         id="path1521"
         d="m 949.85036,756.37043 c 7.11424,-8.69248 36.83614,-31.35307 47.47654,-35.37403 2.7175,-1.027 5.4374,-8.32125 5.4374,-8.32125 l 3.0139,6.73365 c 0,0 -2.5687,-0.59036 13.2533,-4.32402 -10.1827,-13.43683 -32.9226,-19.34235 -32.9226,-19.34235 l -3.7811,7.27058 c 0,0 -1.0566,-8.31088 -2.9274,-9.02692 -15.18959,-5.81367 -47.64436,-14.49497 -57.10092,-5.36895 -18.76809,18.11212 13.06509,85.45269 27.55088,67.75329 z"
         style="fill:#1a1a1a;fill-opacity:1;stroke:none;stroke-width:1.27188516px;stroke-linecap:butt;stroke-linejoin:miter;stroke-opacity:1" />
      <path
         style="fill:#1a1a1a;fill-opacity:1;stroke:none;stroke-width:0.95401579px;stroke-linecap:butt;stroke-linejoin:miter;stroke-opacity:1"
         d="m 582.69672,661.77329 c -2.1301,-8.16683 -2.73219,-36.13372 -0.46164,-44.30229 0.57985,-2.08624 -2.64737,-6.99781 -2.64737,-6.99781 l 5.42673,1.23344 c 0,0 -1.49666,1.26858 3.24391,-9.86609 -12.67556,0.029 -26.33793,10.95353 -26.33793,10.95353 l 2.74274,5.53488 c 0,0 -5.51801,-3.11344 -6.78188,-2.31841 -10.26167,6.45513 -29.91445,21.93281 -28.55857,31.69435 2.69095,19.37338 57.71129,30.69748 53.37401,14.0684 z"
         id="path2026-3"
         inkscape:connector-curvature="0"
         sodipodi:nodetypes="sscccccsss" />
      <path
         sodipodi:nodetypes="sscccccsss"
         inkscape:connector-curvature="0"
         id="path1481"
         d="m 362.25518,694.7857 c 2.47826,18.41989 -4.03262,51.60936 -11.02402,68.91356 -1.78557,4.41941 1.34343,12.7901 1.34343,12.7901 l -5.39793,-0.69733 c 0,0 0.73263,25.60856 -12.33839,48.77729 35.54852,-2.04816 57.23187,-20.95006 57.23187,-20.95006 l -2.20963,-9.14155 c 0,0 8.41963,6.2474 11.34411,4.82857 23.74496,-11.52013 72.67471,-38.43007 72.27348,-60.14395 -0.79632,-43.09489 -116.26915,-81.8828 -111.22292,-44.37663 z"
         style="fill:#1a1a1a;fill-opacity:1;stroke:none;stroke-width:2.08492398px;stroke-linecap:butt;stroke-linejoin:miter;stroke-opacity:1" />
      <path
         style="fill:#1a1a1a;fill-opacity:1;stroke:none;stroke-width:0.95401579px;stroke-linecap:butt;stroke-linejoin:miter;stroke-opacity:1"
         d="m 469.19716,773.19121 c -3.53075,7.66605 -9.03322,35.09289 -8.23196,43.53321 0.20459,2.15564 -3.83476,6.42438 -3.83476,6.42438 l 5.55899,-0.2616 c 0,0 -1.25071,-1.51162 1.46149,10.28235 -12.47361,-2.25383 -24.00595,-15.40717 -24.00595,-15.40717 l 3.67182,-4.96742 c 0,0 -5.97889,2.09637 -7.08355,1.09182 -8.96909,-8.15638 -25.59946,-26.84383 -22.55096,-36.21573 6.05026,-18.6001 62.20411,-20.08923 55.01488,-4.47984 z"
         id="path1483"
         inkscape:connector-curvature="0"
         sodipodi:nodetypes="sscccccsss" />
      <path
         style="fill:#1a1a1a;fill-opacity:1;stroke:none;stroke-width:2.21385217px;stroke-linecap:butt;stroke-linejoin:miter;stroke-opacity:1"
         d="m 361.77401,740.23639 c -1.73671,-19.27627 -16.49812,-51.85765 -28.00605,-68.13986 -2.93908,-4.15842 -1.60585,-13.31078 -1.60585,-13.31078 l -5.55531,1.76926 c 0,0 -5.28938,-26.2675 -24.62933,-47.34077 38.15775,-4.87755 65.61395,10.15515 65.61395,10.15515 l -0.17633,9.75857 c 0,0 7.44293,-8.02324 10.87822,-7.149 27.89249,7.09832 86.11998,24.96039 90.83806,47.18988 9.36385,44.1182 -103.82115,106.31749 -107.35736,67.06755 z"
         id="path1487"
         inkscape:connector-curvature="0"
         sodipodi:nodetypes="sscccccsss" />
      <path
         sodipodi:nodetypes="sscccccsss"
         inkscape:connector-curvature="0"
         id="path1489"
         d="m 489.6595,644.24855 c -8.16435,-2.13961 -32.84725,-15.30255 -38.85928,-21.28054 -1.53548,-1.52674 -7.39809,-1.11639 -7.39809,-1.11639 l 3.73165,-4.12862 c 0,0 0.37373,1.92604 -7.01593,-7.65763 -6.17856,11.06778 -3.33881,28.32875 -3.33881,28.32875 l 6.16902,0.3172 c 0,0 -5.41575,3.28808 -5.34104,4.77934 0.6067,12.10797 4.48508,36.82129 13.66113,40.41655 18.2114,7.13542 55.01538,-35.30207 38.39135,-39.65866 z"
         style="fill:#1a1a1a;fill-opacity:1;stroke:none;stroke-width:0.95401579px;stroke-linecap:butt;stroke-linejoin:miter;stroke-opacity:1" />
      <path
         inkscape:export-ydpi="96"
         inkscape:export-xdpi="96"
         style="fill:#1a1a1a;fill-opacity:1;stroke:none;stroke-width:1.80453634px;stroke-linecap:butt;stroke-linejoin:miter;stroke-opacity:1"
         d="m 448.89629,646.98229 c -27.67034,4.04762 -67.20664,22.16415 -77.66592,38.13323 -10.45928,15.96908 -3.32705,53.75889 26.85644,74.58413 30.1835,20.82523 140.81482,17.38425 140.81482,17.38425 l 9.86551,-12.93226 0.92067,10.01749 c 0,0 354.61286,7.75817 382.62486,-5.1927 29.66807,-13.7165 34.38797,-51.94588 34.38797,-51.94588 l -3.9549,-26.68777 -9.6212,0.63515 2.6998,-14.05373 c 0,0 -16.6589,-22.33402 -32.75017,-32.45925 -47.9034,-30.1426 -216.5197,-11.42479 -216.5197,-11.42479 l 0.7036,11.53106 -14.0916,-10.80662 c 0,0 -216.59984,9.17007 -244.27018,13.21769 z"
         id="path1401-6"
         inkscape:connector-curvature="0"
         sodipodi:nodetypes="zzzcccsccccscccz"
         inkscape:label="panel" />
      <path
         sodipodi:nodetypes="sscccccsss"
         inkscape:connector-curvature="0"
         id="path1559"
         d="m 804.63027,636.90484 c -5.3548,-6.52384 -17.615,-31.66737 -18.97446,-40.03593 -0.34725,-2.1373 -5.33489,-5.24565 -5.33489,-5.24565 l 5.44441,-1.15285 c 0,0 -0.82773,1.7788 -1.18656,-10.31769 -11.49806,5.3353 -19.32881,20.97769 -19.32881,20.97769 l 4.80877,3.87727 c 0,0 -6.31471,-0.51607 -7.1294,0.73521 -6.61463,10.1596 -17.97803,32.44554 -12.65835,40.74175 10.55777,16.4652 65.26262,3.70386 54.35929,-9.5798 z"
         style="fill:#1a1a1a;fill-opacity:1;stroke:none;stroke-width:0.95401579px;stroke-linecap:butt;stroke-linejoin:miter;stroke-opacity:1" />
      <path
         style="fill:#1a1a1a;fill-opacity:1;stroke:none;stroke-width:0.79277956px;stroke-linecap:butt;stroke-linejoin:miter;stroke-opacity:1"
         d="m 734.42497,651.40213 c 1.10621,-7.12354 -0.48554,-30.99145 -2.91712,-37.7704 -0.62098,-1.73134 1.60881,-6.16852 1.60881,-6.16852 l -4.27097,1.47734 c 0,0 1.29731,0.9628 -3.34006,-8.14825 10.19198,-0.9721 21.98594,7.25834 21.98594,7.25834 l -1.79406,4.92998 c 0,0 4.20482,-3.08578 5.27984,-2.50801 8.72844,4.69112 25.676,16.3286 25.31054,24.74954 -0.7253,16.71273 -44.11538,30.68474 -41.86292,16.17998 z"
         id="path1565"
         inkscape:connector-curvature="0"
         sodipodi:nodetypes="sscccccsss" />
      <path
         style="fill:#1a1a1a;fill-opacity:1;stroke:none;stroke-width:0.95401579px;stroke-linecap:butt;stroke-linejoin:miter;stroke-opacity:1"
         d="m 946.03326,750.65002 c -0.23629,8.43674 5.47499,35.82088 9.52672,43.26832 1.03476,1.90208 -1.00353,7.41423 -1.00353,7.41423 l 5.00957,-2.42381 c 0,0 -1.74388,-0.89896 5.38236,8.88218 -12.35654,2.82614 -28.12807,-4.74111 -28.12807,-4.74111 l 1.42588,-6.01036 c 0,0 -4.67516,4.27607 -6.0856,3.78609 -11.45174,-3.97849 -34.08517,-14.63298 -34.96232,-24.44912 -1.74088,-19.48175 49.31613,-42.90509 48.83499,-25.72642 z"
         id="path1567"
         inkscape:connector-curvature="0"
         sodipodi:nodetypes="sscccccsss" />
      <path
         sodipodi:nodetypes="sscccccsss"
         inkscape:connector-curvature="0"
         id="path1579"
         d="m 483.52755,669.30967 c 2.60419,-9.74439 3.34029,-43.11354 0.56439,-52.86 -0.70891,-2.48924 3.23659,-8.34956 3.23659,-8.34956 l -6.63455,1.4717 c 0,0 1.82977,1.51363 -3.96589,-11.77188 15.49672,0.0346 32.19989,13.06938 32.19989,13.06938 l -3.35319,6.60403 c 0,0 6.74614,-3.71485 8.29131,-2.76625 12.54558,7.70205 36.57242,26.16949 34.91477,37.81664 -3.28987,23.11566 -70.55593,36.6272 -65.25332,16.78594 z"
         style="fill:#1a1a1a;fill-opacity:1;stroke:none;stroke-width:1.15223861px;stroke-linecap:butt;stroke-linejoin:miter;stroke-opacity:1" />
      <path
         style="fill:#1a1a1a;fill-opacity:1;stroke:none;stroke-width:0.95401579px;stroke-linecap:butt;stroke-linejoin:miter;stroke-opacity:1"
         d="m 612.70129,779.50997 c -5.3548,6.52384 -17.615,31.66737 -18.97446,40.03593 -0.34725,2.1373 -5.33489,5.24565 -5.33489,5.24565 l 5.44441,1.15285 c 0,0 -0.82773,-1.7788 -1.18656,10.31769 -11.49806,-5.3353 -19.32881,-20.97769 -19.32881,-20.97769 l 4.80877,-3.87727 c 0,0 -6.31471,0.51607 -7.1294,-0.73521 -6.61463,-10.1596 -17.97803,-32.44554 -12.65835,-40.74175 10.55777,-16.4652 65.26262,-3.70386 54.35929,9.5798 z"
         id="path1583"
         inkscape:connector-curvature="0"
         sodipodi:nodetypes="sscccccsss" />
      <path
         sodipodi:nodetypes="sscccccsss"
         inkscape:connector-curvature="0"
         id="path1585"
         d="m 542.49599,765.01268 c 1.10621,7.12354 -0.48554,30.99145 -2.91712,37.7704 -0.62098,1.73134 1.60881,6.16852 1.60881,6.16852 l -4.27097,-1.47734 c 0,0 1.29731,-0.9628 -3.34006,8.14825 10.19198,0.9721 21.98594,-7.25834 21.98594,-7.25834 l -1.79406,-4.92998 c 0,0 4.20482,3.08578 5.27984,2.50801 8.72844,-4.69112 25.676,-16.3286 25.31054,-24.74954 -0.7253,-16.71273 -44.11538,-30.68474 -41.86292,-16.17998 z"
         style="fill:#1a1a1a;fill-opacity:1;stroke:none;stroke-width:0.79277956px;stroke-linecap:butt;stroke-linejoin:miter;stroke-opacity:1" />
      <path
         sodipodi:nodetypes="sscccccsss"
         inkscape:connector-curvature="0"
         id="path1587"
         d="m 903.62522,775.46936 c -5.3548,6.52384 -17.615,31.66737 -18.97446,40.03593 -0.34725,2.1373 -5.33489,5.24565 -5.33489,5.24565 l 5.44441,1.15285 c 0,0 -0.82773,-1.7788 -1.18656,10.31769 -11.49806,-5.3353 -19.32881,-20.97769 -19.32881,-20.97769 l 4.80877,-3.87727 c 0,0 -6.31471,0.51607 -7.1294,-0.73521 -6.61463,-10.1596 -17.97803,-32.44554 -12.65835,-40.74175 10.55777,-16.4652 65.26262,-3.70386 54.35929,9.5798 z"
         style="fill:#1a1a1a;fill-opacity:1;stroke:none;stroke-width:0.95401579px;stroke-linecap:butt;stroke-linejoin:miter;stroke-opacity:1" />
      <path
         style="fill:#1a1a1a;fill-opacity:1;stroke:none;stroke-width:0.79277956px;stroke-linecap:butt;stroke-linejoin:miter;stroke-opacity:1"
         d="m 833.41992,760.97207 c 1.10621,7.12354 -0.48554,30.99145 -2.91712,37.7704 -0.62098,1.73134 1.60881,6.16852 1.60881,6.16852 l -4.27097,-1.47734 c 0,0 1.29731,-0.9628 -3.34006,8.14825 10.19198,0.9721 21.98594,-7.25834 21.98594,-7.25834 l -1.79406,-4.92998 c 0,0 4.20482,3.08578 5.27984,2.50801 8.72844,-4.69112 25.676,-16.3286 25.31054,-24.74954 -0.7253,-16.71273 -44.11538,-30.68474 -41.86292,-16.17998 z"
         id="path1589"
         inkscape:connector-curvature="0"
         sodipodi:nodetypes="sscccccsss" />
      <path
         sodipodi:nodetypes="sscccccsss"
         inkscape:connector-curvature="0"
         id="path1591"
         d="m 878.16634,648.64131 c -2.1301,-8.16683 -2.73219,-36.13372 -0.46164,-44.30229 0.57985,-2.08624 -2.64737,-6.99781 -2.64737,-6.99781 l 5.42673,1.23344 c 0,0 -1.49666,1.26858 3.24391,-9.86609 -12.67556,0.029 -26.33793,10.95353 -26.33793,10.95353 l 2.74274,5.53488 c 0,0 -5.51801,-3.11344 -6.78188,-2.31841 -10.26167,6.45513 -29.91445,21.93281 -28.55857,31.69435 2.69095,19.37338 57.71129,30.69748 53.37401,14.0684 z"
         style="fill:#1a1a1a;fill-opacity:1;stroke:none;stroke-width:0.95401579px;stroke-linecap:butt;stroke-linejoin:miter;stroke-opacity:1" />
      <path
         style="fill:#1a1a1a;fill-opacity:1;stroke:none;stroke-width:0.95401579px;stroke-linecap:butt;stroke-linejoin:miter;stroke-opacity:1"
         d="m 742.19764,624.04551 c -8.16435,-2.13961 -32.84725,-15.30255 -38.85928,-21.28054 -1.53548,-1.52674 -7.39809,-1.11639 -7.39809,-1.11639 l 3.73165,-4.12862 c 0,0 0.37373,1.92604 -7.01593,-7.65763 -6.17856,11.06778 -3.33881,28.32875 -3.33881,28.32875 l 6.16902,0.3172 c 0,0 -5.41575,3.28808 -5.34104,4.77934 0.6067,12.10797 4.48508,36.82129 13.66113,40.41655 18.2114,7.13542 55.01538,-35.30207 38.39135,-39.65866 z"
         id="path1593"
         inkscape:connector-curvature="0"
         sodipodi:nodetypes="sscccccsss" />
      <path
         style="fill:#1a1a1a;fill-opacity:1;stroke:none;stroke-width:1.15223861px;stroke-linecap:butt;stroke-linejoin:miter;stroke-opacity:1"
         d="m 792.63423,644.56094 c 2.60419,-9.74439 3.34029,-43.11354 0.56439,-52.86 -0.70891,-2.48924 3.23659,-8.34956 3.23659,-8.34956 l -6.63455,1.4717 c 0,0 1.82977,1.51363 -3.96589,-11.77188 15.49672,0.0346 32.19989,13.06938 32.19989,13.06938 l -3.35319,6.60403 c 0,0 6.74614,-3.71485 8.29131,-2.76625 12.54558,7.70205 36.57242,26.16949 34.91477,37.81664 -3.28987,23.11566 -70.55593,36.6272 -65.25332,16.78594 z"
         id="path1595"
         inkscape:connector-curvature="0"
         sodipodi:nodetypes="sscccccsss" />
      <path
         sodipodi:nodetypes="sscccccsss"
         inkscape:connector-curvature="0"
         id="path1603"
         d="m 942.2482,645.37024 c 8.43989,-0.0523 35.61277,-6.69633 42.91737,-11.00024 1.8656,-1.09922 7.4442,0.74948 7.4442,0.74948 l -2.5936,-4.92378 c 0,0 -0.8389,1.77357 8.6929,-5.68289 3.24703,12.25272 -3.7767,28.2737 -3.7767,28.2737 l -6.0556,-1.21953 c 0,0 4.4334,4.52624 3.9919,5.95261 -3.5847,11.58103 -13.4592,34.56544 -23.2397,35.77765 -19.41083,2.40582 -44.56582,-47.82059 -27.38077,-47.927 z"
         style="fill:#1a1a1a;fill-opacity:1;stroke:none;stroke-width:0.95401579px;stroke-linecap:butt;stroke-linejoin:miter;stroke-opacity:1" />
      <path
         style="fill:#1a1a1a;fill-opacity:1;stroke:none;stroke-width:0.79277956px;stroke-linecap:butt;stroke-linejoin:miter;stroke-opacity:1"
         d="m 975.97657,708.62651 c 4.771,-5.40424 24.14343,-19.43714 30.91083,-21.90048 1.7284,-0.62918 3.7154,-5.18029 3.7154,-5.18029 l 1.594,4.22881 c 0,0 -1.5697,-0.38221 8.4012,-2.64 -5.7674,-8.45922 -19.6358,-12.2679 -19.6358,-12.2679 l -2.64443,4.53105 c 0,0 -0.3148,-5.20607 -1.4464,-5.66352 -9.1869,-3.71362 -28.9697,-9.30767 -35.212,-3.64371 -12.38873,11.24097 4.6026,53.54004 14.3172,42.53604 z"
         id="path1605"
         inkscape:connector-curvature="0"
         sodipodi:nodetypes="sscccccsss" />
      <path
         style="fill:#1a1a1a;fill-opacity:1;stroke:none;stroke-width:0.95401579px;stroke-linecap:butt;stroke-linejoin:miter;stroke-opacity:1"
         d="m 969.10979,704.64457 c 3.42988,7.7117 20.40562,29.94526 27.27592,34.91314 1.7547,1.2688 2.2964,7.12073 2.2964,7.12073 l 3.47189,-4.34928 c 0,0 -1.9612,-0.0579 8.69,5.68726 -9.9249,7.88476 -27.41785,7.86939 -27.41785,7.86939 l -1.30921,-6.03685 c 0,0 -2.37044,5.87562 -3.8542,6.04268 -12.04702,1.35634 -37.06226,1.51942 -42.09206,-6.95577 -9.98238,-16.82024 25.95536,-59.99367 32.93911,-44.2913 z"
         id="path1607"
         inkscape:connector-curvature="0"
         sodipodi:nodetypes="sscccccsss" />
      <path
         sodipodi:nodetypes="sscccccsss"
         inkscape:connector-curvature="0"
         id="path1609"
         d="m 924.6695,760.89419 c 6.86318,2.20567 27.48295,14.33161 32.45165,19.54484 1.26905,1.33145 6.23501,1.32826 6.23501,1.32826 l -3.23572,3.15496 c 0,0 -0.27881,-1.59132 5.78524,6.63934 5.43931,-8.67383 3.3716,-22.9063 3.3716,-22.9063 l -5.21102,-0.60719 c 0,0 4.64368,-2.37455 4.60935,-3.59464 -0.27887,-9.90516 -3.08078,-30.27185 -10.77149,-33.72145 -15.26334,-6.84621 -47.20929,25.67106 -33.23462,30.16218 z"
         style="fill:#1a1a1a;fill-opacity:1;stroke:none;stroke-width:0.79277956px;stroke-linecap:butt;stroke-linejoin:miter;stroke-opacity:1" />
      <path
         style="fill:#1a1a1a;fill-opacity:1;stroke:none;stroke-width:0.95401579px;stroke-linecap:butt;stroke-linejoin:miter;stroke-opacity:1"
         d="m 835.27004,776.50771 c -4.0998,7.3774 -11.65857,34.31018 -11.49725,42.78691 0.0412,2.16493 -4.30913,6.11631 -4.30913,6.11631 l 5.56285,0.15911 c 0,0 -1.13293,-1.60179 0.68052,10.36338 -12.2677,-3.18974 -22.77338,-17.17672 -22.77338,-17.17672 l 4.0366,-4.67583 c 0,0 -6.12018,1.63869 -7.1458,0.55355 -8.32725,-8.81065 -23.49832,-28.70107 -19.7505,-37.81589 7.43815,-18.08986 63.54403,-15.33248 55.19609,-0.31082 z"
         id="path1611"
         inkscape:connector-curvature="0"
         sodipodi:nodetypes="sscccccsss" />
      <path
         sodipodi:nodetypes="sscccccsss"
         inkscape:connector-curvature="0"
         id="path1613"
         d="m 763.60343,774.81857 c 2.36415,6.81023 5.07287,30.5773 3.89471,37.68214 -0.30086,1.81456 2.68758,5.78064 2.68758,5.78064 l -4.46651,-0.68852 c 0,0 1.1039,-1.17958 -1.8267,8.6147 10.20129,-0.86899 20.33048,-11.07865 20.33048,-11.07865 l -2.64801,-4.52895 c 0,0 4.6895,2.2828 5.64366,1.52184 7.74713,-6.17853 22.33639,-20.66314 20.46866,-28.88247 -3.70682,-16.3126 -48.8977,-22.28755 -44.08387,-8.42073 z"
         style="fill:#1a1a1a;fill-opacity:1;stroke:none;stroke-width:0.79277956px;stroke-linecap:butt;stroke-linejoin:miter;stroke-opacity:1" />
      <path
         sodipodi:nodetypes="sscccccsss"
         inkscape:connector-curvature="0"
         id="path1615"
         d="m 785.081,764.222 c -0.63298,8.41628 3.78352,36.0388 7.48035,43.66864 0.94412,1.94866 -1.35126,7.3588 -1.35126,7.3588 l 5.11807,-2.18542 c 0,0 -1.69966,-0.98001 4.95848,9.12559 -12.47581,2.24165 -27.87385,-6.05932 -27.87385,-6.05932 l 1.7071,-5.9366 c 0,0 -4.87117,4.05137 -6.257,3.49555 -11.25186,-4.5129 -33.35891,-16.22051 -33.77325,-26.06706 -0.82232,-19.54207 51.28025,-40.53719 49.99136,-23.40018 z"
         style="fill:#1a1a1a;fill-opacity:1;stroke:none;stroke-width:0.95401579px;stroke-linecap:butt;stroke-linejoin:miter;stroke-opacity:1" />
      <path
         style="fill:#1a1a1a;fill-opacity:1;stroke:none;stroke-width:0.95401579px;stroke-linecap:butt;stroke-linejoin:miter;stroke-opacity:1"
         d="m 658.38183,776.46897 c 2.49565,8.06265 4.35634,35.97405 2.45589,44.23656 -0.48534,2.11023 2.95974,6.87154 2.95974,6.87154 l -5.47675,-0.98786 c 0,0 1.43805,-1.33466 -2.7964,10.00213 12.66138,-0.5997 25.81802,-12.12827 25.81802,-12.12827 l -2.98915,-5.40578 c 0,0 5.65258,2.86184 6.87938,2.01071 9.96064,-6.91061 28.8966,-23.25747 27.10258,-32.94804 -3.56049,-19.23258 -59.03491,-28.06792 -53.95331,-11.65099 z"
         id="path1617"
         inkscape:connector-curvature="0"
         sodipodi:nodetypes="sscccccsss" />
      <path
         style="fill:#1a1a1a;fill-opacity:1;stroke:none;stroke-width:1.15223861px;stroke-linecap:butt;stroke-linejoin:miter;stroke-opacity:1"
         d="m 686.16554,774.56862 c 4.3073,9.12043 11.0079,41.8182 10.02247,51.90423 -0.25163,2.57595 4.67966,7.63488 4.67966,7.63488 l -6.79086,-0.25966 c 0,0 1.5291,-1.81687 -1.79343,12.29183 15.23996,-2.80949 29.33853,-18.62505 29.33853,-18.62505 l -4.48175,-5.89669 c 0,0 7.30239,2.44655 8.65268,1.23655 10.9633,-9.82442 31.29414,-32.29645 27.57729,-43.4584 -7.37668,-22.15269 -75.97502,-23.39844 -67.20459,-4.82769 z"
         id="path1619"
         inkscape:connector-curvature="0"
         sodipodi:nodetypes="sscccccsss" />
      <path
         sodipodi:nodetypes="sscccccsss"
         inkscape:connector-curvature="0"
         id="path1621"
         d="m 510.13926,756.54235 c 1.10621,7.12354 -0.48554,30.99145 -2.91712,37.7704 -0.62098,1.73134 1.60881,6.16852 1.60881,6.16852 l -4.27097,-1.47734 c 0,0 1.29731,-0.9628 -3.34006,8.14825 10.19198,0.9721 21.98594,-7.25834 21.98594,-7.25834 l -1.79406,-4.92998 c 0,0 4.20482,3.08578 5.27984,2.50801 8.72844,-4.69112 25.676,-16.3286 25.31054,-24.74954 -0.7253,-16.71273 -44.11538,-30.68474 -41.86292,-16.17998 z"
         style="fill:#1a1a1a;fill-opacity:1;stroke:none;stroke-width:0.79277956px;stroke-linecap:butt;stroke-linejoin:miter;stroke-opacity:1" />
      <path
         sodipodi:nodetypes="sscccccsss"
         inkscape:connector-curvature="0"
         id="path1623"
         d="m 517.91193,783.89897 c -8.16435,2.13961 -32.84725,15.30255 -38.85928,21.28054 -1.53548,1.52674 -7.39809,1.11639 -7.39809,1.11639 l 3.73165,4.12862 c 0,0 0.37373,-1.92604 -7.01593,7.65763 -6.17856,-11.06778 -3.33881,-28.32875 -3.33881,-28.32875 l 6.16902,-0.3172 c 0,0 -5.41575,-3.28808 -5.34104,-4.77934 0.6067,-12.10797 4.48508,-36.82129 13.66113,-40.41655 18.2114,-7.13542 55.01538,35.30207 38.39135,39.65866 z"
         style="fill:#1a1a1a;fill-opacity:1;stroke:none;stroke-width:0.95401579px;stroke-linecap:butt;stroke-linejoin:miter;stroke-opacity:1" />
      <path
         sodipodi:nodetypes="sscccccsss"
         inkscape:connector-curvature="0"
         id="path1625"
         d="m 366.29586,747.00454 c -8.44005,-10e-4 -35.65463,6.46983 -42.98642,10.72727 -1.87252,1.08734 -7.43929,-0.79678 -7.43929,-0.79678 l 2.56233,4.94015 c 0,0 0.85008,-1.76823 -8.72892,5.62748 -3.16897,-12.27308 3.9564,-28.24913 3.9564,-28.24913 l 6.04772,1.25805 c 0,0 -4.40455,-4.55435 -3.95401,-5.97786 3.65823,-11.55803 13.67865,-34.47923 23.46658,-35.62926 19.42575,-2.28242 44.26105,48.1029 27.07564,48.10006 z"
         style="fill:#1a1a1a;fill-opacity:1;stroke:none;stroke-width:0.95401579px;stroke-linecap:butt;stroke-linejoin:miter;stroke-opacity:1" />
      <path
         style="fill:#1a1a1a;fill-opacity:1;stroke:none;stroke-width:0.79277956px;stroke-linecap:butt;stroke-linejoin:miter;stroke-opacity:1"
         d="m 348.79829,674.49007 c -6.75695,2.51237 -30.45917,5.7397 -37.58806,4.71705 -1.8207,-0.26115 -5.72054,2.81322 -5.72054,2.81322 l 0.59077,-4.48047 c 0,0 1.20343,1.07785 -8.65255,-1.63806 1.09166,10.17987 11.52018,20.08358 11.52018,20.08358 l 4.47002,-2.74632 c 0,0 -2.1798,4.73825 -1.39818,5.67556 6.34632,7.61029 21.14621,21.87962 29.32277,19.83277 16.22772,-4.06234 21.21393,-49.37297 7.45559,-44.25733 z"
         id="path1627"
         inkscape:connector-curvature="0"
         sodipodi:nodetypes="sscccccsss" />
      <path
         style="fill:#1a1a1a;fill-opacity:1;stroke:none;stroke-width:0.95401579px;stroke-linecap:butt;stroke-linejoin:miter;stroke-opacity:1"
         d="m 360.35316,708.48856 c -8.12186,-2.2956 -36.07074,-3.46581 -44.28376,-1.3617 -2.09759,0.53734 -6.94257,-2.78901 -6.94257,-2.78901 l 1.12292,5.45067 c 0,0 1.29873,-1.47058 -9.92997,3.04278 0.28655,-12.67236 11.48643,-26.10994 11.48643,-26.10994 l 5.478,2.85464 c 0,0 -3.00068,-5.58013 -2.18013,-6.82759 6.66231,-10.1284 22.5361,-29.46263 32.26808,-27.90869 19.3147,3.08403 29.51853,58.3231 12.981,53.64884 z"
         id="path1629"
         inkscape:connector-curvature="0"
         sodipodi:nodetypes="sscccccsss" />
      <path
         style="fill:#1a1a1a;fill-opacity:1;stroke:none;stroke-width:0.95401579px;stroke-linecap:butt;stroke-linejoin:miter;stroke-opacity:1"
         d="m 381.74911,647.65521 c 5.89611,-6.03908 20.27357,-30.03484 22.34783,-38.25545 0.52979,-2.09951 5.76632,-4.76735 5.76632,-4.76735 l -5.32507,-1.61687 c 0,0 0.67166,1.84342 2.06963,-10.17738 10.99652,6.30452 17.45277,22.56251 17.45277,22.56251 l -5.12443,3.44927 c 0,0 6.33568,0.029 7.03973,1.34572 5.71624,10.6909 15.12059,33.87168 9.10705,41.67955 -11.93489,15.49607 -65.33934,-1.92342 -53.33383,-14.22 z"
         id="path1631"
         inkscape:connector-curvature="0"
         sodipodi:nodetypes="sscccccsss" />
    </g>
  </g>
</svg>
